<svg width="530" height="222" viewBox="0 0 530 222" fill="none" xmlns="http://www.w3.org/2000/svg">
<path d="M529.333 66.6423C529.126 66.5352 528.876 66.6125 528.763 66.8206C525.015 73.8204 515.889 81.0356 506.792 83.9636C505.919 81.4529 504.662 79.119 502.933 77.0384C500.474 74.2114 496.992 72.1084 493.115 72.0456C488.165 71.9765 485.213 75.6808 487.278 80.4713C489.842 87.5721 497.538 88.2449 503.952 86.6293C504.018 86.9168 504.073 87.2091 504.127 87.4984C505.246 93.8189 504.276 100.412 502.623 106.615C499.254 119.317 492.072 130.622 483.557 140.531C456.01 171.863 405.393 200.296 362.784 193.075C344.134 189.958 329.738 181.686 319.856 169.874C337.112 146.836 350.667 120.035 360.914 95.7505C369.481 74.6293 378.092 44.0758 368.218 22.1137C365.315 15.8115 359.435 10.1354 352.169 9.26615C326.107 6.55482 307.407 49.3405 300.3 69.5581C288.718 101.732 284.294 141.426 304.93 170.98C299.347 177.924 293.343 184.512 286.852 190.645C271.589 204.905 249.179 217.789 228.52 207.872C220.441 204.21 213.214 197.991 210.185 189.6C198.796 157.131 234.151 108.094 230.874 73.4C230.335 67.875 228.468 62.0938 225.021 57.5555C220.459 51.688 214.081 47.2716 207.077 44.8424C191.706 39.7279 175.266 44.829 160.628 49.6962C135.495 58.497 110.422 68.9072 83.533 69.6443C64.9398 70.3096 41.561 67.6185 32.4448 49.0345C29.1055 41.9099 28.369 33.6518 29.658 25.7341C35.4486 23.694 40.6971 20.3233 44.2568 15.1814C46.182 12.1901 47.8838 9.11807 48.1571 5.4401C48.3066 -0.158822 43.046 -0.370894 39.3006 2.3402C33.4476 6.49497 30.3257 13.1564 28.2948 19.768C27.7401 21.6076 27.2788 23.4936 26.9407 25.4092C18.3972 28.0937 8.51595 28.0677 0.0871595 26.4625L0.168559 26.9483C5.79524 28.1808 11.6009 28.6295 17.3772 28.2144C20.4835 27.9865 23.6562 27.4845 26.7314 26.6471C24.9362 38.1754 27.1329 50.5806 35.3095 59.253C42.5074 67.058 52.9023 70.9611 63.1445 72.7531C97.692 78.6384 130.471 66.3283 162.529 55.4362C180.138 49.7935 201.642 43.9443 216.311 58.554C230.228 71.4484 220.867 96.2786 215.865 111.864C207.294 138.321 187.907 177.444 206.878 202.883C211.412 208.935 217.652 213.44 224.359 216.655C241.607 225.282 261.492 220.966 277.085 211.196C289.992 202.983 301.618 192.113 312.033 179.732C334.738 203.61 372.237 209.631 403.218 200.453C443.179 188.943 488.137 157.073 503.784 117.586C507.147 108.393 510.114 95.8019 507.292 85.5704C513.324 83.3657 518.775 79.7954 523.366 75.3408C525.789 72.9548 527.958 70.2565 529.514 67.197C529.616 66.9909 529.538 66.7409 529.33 66.628L529.333 66.6423ZM34.4174 11.4187C35.991 8.60455 37.9859 5.94144 40.5207 4.13657C41.6149 3.32965 43.1875 2.60808 44.4665 2.71C47.4925 3.21965 45.8655 7.97264 45.0928 9.92262C42.1452 17.0248 36.5777 21.6311 29.9045 24.3481C30.7823 19.7975 32.3263 15.3953 34.4174 11.4187ZM304.563 111.673C306.879 86.9713 319.16 50.7641 335.044 31.7091C338.923 27.2201 346.743 19.5498 352.702 22.8367C360.623 28.3218 360.529 44.7814 359.581 53.9629C358.234 66.6988 354.509 79.2687 349.754 91.2279C339.929 115.102 328.206 138.886 313.153 160.098C305.605 146.553 302.651 129.877 304.563 111.673ZM496.014 85.1104C492.99 84.5768 490.465 82.6119 489.561 79.6542C487.431 74.2097 493.621 73.9173 497.154 76.13C500.361 78.0368 502.385 81.2796 503.474 84.8357C500.888 85.3636 498.358 85.486 496.014 85.1104Z" fill="#FF784A"/>
</svg>
