<svg width="326" height="391" viewBox="0 0 326 391" fill="none" xmlns="http://www.w3.org/2000/svg">
<path d="M325.2 133.783C296.423 144.824 264.642 146.54 234.371 141.719C219.631 139.607 205.211 133.667 194.217 123.453C173.416 104.366 167.001 73.4482 172.956 46.524C177.533 24.415 193.387 0.306868 218.278 0.183398C237.274 -0.231671 251.252 16.3842 254.924 33.7829C260.221 56.8376 251.071 81.0613 235.519 98.0634C220.18 115.128 199.379 126.443 177.979 133.954C156.945 141.225 135.705 147.756 114.707 154.938C83.4223 165.94 49.6731 178.25 29.8549 206.26C28.7646 207.881 27.6981 209.522 26.6604 211.177C26.2138 212.013 25.1945 213.749 24.7348 214.585C23.9073 215.959 22.8092 218.446 22.0973 219.836C21.2934 221.502 20.5342 223.566 19.7934 225.261C18.7426 228.137 17.4763 231.671 16.6935 234.634C10.6225 255.343 12.4193 278.006 20.6261 297.879C21.874 300.648 23.3346 304.053 24.8215 306.701C25.783 308.763 27.5693 311.495 28.7016 313.481C30.8662 316.986 33.5458 320.545 36.0599 323.819C36.9662 324.901 38.3165 326.454 39.2254 327.539C65.2513 357.148 104.449 370.474 143 372.742C177.611 374.549 218.275 363.35 240.762 335.727C249.794 324.439 254.018 309.982 249.1 296.025C247.868 292.358 249.841 288.383 253.511 287.151C257.023 285.971 260.825 287.752 262.222 291.125C264.644 297.007 266.032 303.48 266.074 309.993C266.15 316.463 264.918 322.947 262.687 328.981C258.358 340.794 241.264 359 241.264 359C214.148 382.553 177.351 392.137 142.031 390.266C118.79 388.727 95.7089 383.544 74.6323 373.367C60.1338 366.347 46.5495 356.969 35.2928 345.352C34.3392 344.409 33.1071 343.146 32.2533 342.139C30.5116 340.203 28.0764 337.445 26.5343 335.391C26.0404 334.8 24.9476 333.36 24.4774 332.787C24.2567 332.493 24.0491 332.186 23.8337 331.886L21.2855 328.269C18.8713 324.78 16.4387 320.682 14.429 316.915C13.0262 314.372 11.7757 311.595 10.541 308.973C9.93944 307.447 8.59703 304.3 8.04011 302.829C7.31505 300.788 6.57949 298.589 5.89384 296.555C5.47614 294.964 4.46736 291.706 4.09958 290.174C3.61358 288.062 3.10394 285.803 2.67837 283.701L1.9612 279.341C1.69061 277.893 1.56977 276.422 1.40952 274.959C1.31232 273.606 1.02335 271.89 0.997077 270.561C0.989196 269.805 0.744883 265.754 0.734375 265.047C0.74751 264.493 0.747509 262.36 0.758017 261.734C0.710731 258.789 0.989199 255.85 1.17309 252.915C1.60129 248.513 2.31058 244.16 3.20377 239.83C3.8579 237.298 4.66177 233.762 5.49191 231.332C6.16705 228.954 7.42802 225.408 8.33959 223.057C8.71 221.906 9.51649 220.136 10.013 218.998C10.6067 217.771 11.1873 216.161 11.823 214.989L13.8301 211.064C14.0376 210.534 14.6155 209.659 14.9019 209.136C15.4457 208.167 16.5989 206.296 17.148 205.335C18.3511 203.486 19.5937 201.652 20.8626 199.847C21.4221 199.138 23.7181 196.106 24.233 195.473C25.2707 194.294 26.8049 192.494 27.8504 191.309C29.3189 189.794 30.9529 188.06 32.4845 186.61L35.7236 183.646C48.7247 172.284 64.3949 164.13 80.1254 157.691C100.908 149.161 122.334 142.92 143.678 136.307C164.521 129.669 186.099 124.302 205.035 113.145C232.561 97.6168 255.668 68.1863 248.951 35.1148C246.037 20.2354 234.531 5.43218 218.306 5.57666C202.006 5.35862 189.091 18.1679 182.726 32.296C171.619 56.7115 172.849 87.2611 187.781 109.83C197.527 124.623 213.586 134.282 230.861 137.786C244.986 140.548 259.601 141.882 273.997 141.596C281.497 141.393 289.228 140.718 296.649 139.586C306.154 138.07 315.658 135.756 324.732 132.525C325.082 132.398 325.468 132.582 325.594 132.932C325.717 133.276 325.539 133.657 325.2 133.788V133.783Z" fill="#FF6D39"/>
</svg>
