<?xml version="1.0" encoding="UTF-8"?>
<svg id="Layer_1" data-name="Layer 1" xmlns="http://www.w3.org/2000/svg" viewBox="0 0 74.93 30.7">
  <defs>
    <style>
      .cls-1 {
        fill: #121212;
        fill-rule: evenodd;
      }
    </style>
  </defs>
  <path class="cls-1" d="M16.63,28.31c1.44-.87,2.66-1.94,3.69-3.05.73,1.47,2.21,2.46,3.78,2.46,1.21,0,2.41-.59,3.24-1.69.31,1.03,1.06,1.69,2.34,1.69.97,0,3.07-.96,4.97-2.38l-.21,1.05c-.08.29-.08.51-.08.66.08.44.38.66.83.66.91,0,2.19-.81,2.49-2.13l.46-1.84c.53-2.35,4.07-5.88,5.05-5.88.08,0,.23.07.23.22.03.23-.14.68-.39,1.32-.39.98-.95,2.43-1.27,4.34-.15.59-.15,1.18-.08,1.62.16,1.4.99,2.35,2.57,2.35,1.36,0,4.3-1.13,6.36-3.38.16,1.22.42,2.27.81,2.94.15.29.53.37.91.37.45,0,1.05-.15,1.73-.51,1.59-.81,3.63-2.72,5.59-5.51.3.07.53.07.75.07.79,0,1.66-.27,2.48-.75-.34.99-.47,2.01-.36,2.95.3,2.21,2.19,3.9,4.22,3.9,1.14,0,2.34-.66,3.17-1.69.31,1.4,1.21,2.87,3.48,3.75.15.07.3.07.45.07.45,0,.75-.29.68-.66,0-.15-.08-.37-.3-.51-.53-.44-1.14-1.25-1.29-2.5-.07-.59-.07-1.32.31-2.06.45-1.99.52-2.57.52-2.79-.07-.51-.45-.74-.9-.74-.91,0-2.19.88-2.49,2.13-.53,1.91-1.89,3.16-2.8,3.16-1.13,0-1.73-1.18-1.88-2.43-.38-3.09,1.58-6.84,4.53-6.84.83,0,1.81.29,1.88,1.18.1.81-.41,1.02-.8,1.17-.24.1-.43.18-.4.37.07.59,1.05.74,1.73.74.61,0,2.57-.44,2.27-2.57-.23-1.69-2.12-2.5-4.23-2.5-2.52,0-4.67,1.24-6.13,2.97-.21.12-.42.32-.66.56-.46.51-1.36,1.03-2.49,1.03-.16,0-.46-.07-.46-.07.76-1.4,1.29-2.87,1.29-4.12,0-2.06-1.29-3.09-2.72-3.09-1.81,0-3.7,1.54-3.7,4.63,0,1.84.75,3.31,2.04,4.12-1.51,2.35-3.55,4.34-3.85,4.34-.11,0-.14-.11-.17-.22-.02-.05-.03-.1-.06-.15-.22-.81-.45-2.43-.45-3.38,0-1.76.3-3.53.98-5.37.08-.22.15-.44.15-.59,0-.51-.38-.74-.83-.74-.9,0-2.34,1.03-2.72,2.13-.3,1.03-.45,2.5-.45,4.26,0,.32.01.64.02.96-1.8,2.37-4.03,3.16-4.7,3.16-.83,0-.98-.74-.83-1.03.53-2.13,1.21-4.56,1.81-6.25.3-.81.45-1.54.38-1.99-.15-.81-.68-1.18-1.43-1.18-1.82,0-4.68,1.76-6.57,4.19l.6-2.65c.08-.29.08-.51.08-.66-.08-.51-.38-.74-.83-.74-2.12,0-2.49,1.03-2.72,2.06-.04.26-.64,3.27-1.14,5.77-1.61,1.44-3.42,2.39-3.92,2.39-.6,0-.83-.44-.83-.81,0-.25.15-.95.29-1.6.11-.48.21-.94.24-1.19.08-.29.08-.51.08-.66-.08-.44-.46-.66-.91-.66-.9,0-2.19.88-2.49,2.13-.45,1.91-1.81,3.16-2.72,3.16-1.13,0-1.73-1.18-1.88-2.35-.38-2.65,1.35-6.91,4.52-6.91.91,0,1.82.29,1.89,1.18.09.85-.37,1.04-.73,1.2-.24.1-.43.18-.4.42.07.59,1.06.74,1.66.74.68,0,2.57-.44,2.26-2.57-.22-1.69-2.03-2.57-4.22-2.57-5.08,0-8.46,4.89-8.09,8.77-1.29,1.47-2.58,2.35-4.9,3.51-1.28.66-2.79,1.03-4.15,1.03-4.22,0-6.26-3.75-6.64-6.98C3.11,13.01,10.66,1.62,15.87,1.62c1.21,0,2.27,1.03,2.49,2.65.3,2.5.23,4.26-2.41,6.4-.31.22-.38.59-.23.81.23.29.98.37,2.42-.37,2.86-1.4,3.84-3.53,3.54-6.03-.3-2.79-2.79-5.07-6.11-5.07-1.66,0-3.4.44-4.98,1.4C3.72,5.51-.74,14.78.1,21.84c.3,2.28,1.28,4.71,3.09,6.4,1.21,1.1,3.4,2.43,6.04,2.43,2.87,0,5.28-1.03,7.4-2.35ZM59.05,18.6c-.76-.81-1.36-2.06-1.36-3.23,0-.66.22-1.4.75-1.4.45,0,1.06.66,1.06,2.21,0,.81-.15,1.62-.45,2.43Z"/>
</svg>