<?xml version="1.0" encoding="UTF-8"?>
<svg id="Layer_1" data-name="Layer 1" xmlns="http://www.w3.org/2000/svg" viewBox="0 0 119.13 38.52">
  <defs>
    <style>
      .cls-1 {
        fill: #121212;
      }
    </style>
  </defs>
  <path class="cls-1" d="M47.86,18.15l-.17-3.23h.88c.45,2.16,1.67,3.65,3.57,3.65,1.43,0,2.34-.73,2.34-1.96s-.8-1.85-2.98-2.58c-2.34-.75-3.72-1.85-3.72-4.09,0-2.43,1.85-4.04,4.52-4.04,1.64,0,3.05.43,3.98,1.1v2.82h-.79c-.38-1.96-1.41-3.11-3.19-3.11-1.23,0-2.04.73-2.04,1.85,0,1.27.75,1.77,2.71,2.44,2.5.85,4.08,1.82,4.08,4.29,0,2.74-2.23,4.07-4.91,4.07-1.84,0-3.43-.54-4.29-1.23Z"/>
  <path class="cls-1" d="M66,16.8c0,.54-.01.97.68.93.47-.03,1.05-.47,1.05-.47l.02.5s-1.05,1.63-2.77,1.63c-1.04,0-1.66-.6-1.9-1.61-.58.79-1.52,1.57-2.86,1.57-1.55,0-2.6-.91-2.6-2.47s1.13-2.28,2.5-2.78l2.9-1.03v-1.74c0-.97-.3-1.64-1.16-1.64-.8,0-1.14.64-1.14,1.53,0,.39.06.79.17,1.22l-1.79.24c-.52-.17-.88-.6-.88-1.24,0-1.62,1.68-2.41,3.85-2.41,2.49,0,3.93.84,3.93,3.16v4.61ZM63.03,17.27v-3.47l-1.33.52c-.73.3-1.19.67-1.19,1.74,0,.97.4,1.67,1.38,1.67.43,0,.73-.17,1.15-.45Z"/>
  <path class="cls-1" d="M69.91,15.36c-.31.3-.6.65-.6,1.03,0,.36.22.6.61.6h3.94c2.34,0,3.44,1,3.44,2.67,0,2.37-2.34,3.69-5.57,3.69-2.84,0-4.6-.82-4.6-2.32,0-.95.88-1.44,1.74-1.64-.77-.3-1.19-1-1.19-1.77,0-1.16.86-1.91,1.8-2.44-1.03-.46-1.77-1.33-1.77-2.67,0-2.19,1.82-3.47,4.28-3.47.71,0,1.23.12,1.7.27l3.26-.07v1.16h-.8l-1.23-.06c.67.45,1.18,1.22,1.18,2.15,0,2.01-1.77,3.19-4.21,3.19-.67-.02-1.36-.12-1.97-.32ZM69.23,19.74c-.19.21-.27.52-.27.89,0,1.19,1.12,1.92,2.87,1.92s3.36-.52,3.36-1.85c0-.71-.45-.97-1.27-.97h-4.69ZM73.29,12.47c0-1.46-.45-2.73-1.42-2.73s-1.31.97-1.31,2.47.46,2.78,1.44,2.78c.96.01,1.3-.94,1.3-2.51Z"/>
  <path class="cls-1" d="M85.72,13.03v.43h-6.04c-.06,2.44,1.23,3.9,2.99,3.9,1.25,0,2.11-.49,2.8-1.44l.31.19c-.49,1.96-1.89,3.26-4.15,3.26-2.73,0-4.67-1.92-4.67-4.93,0-3.26,2.17-5.42,4.81-5.42s3.94,1.68,3.94,4.01ZM79.72,12.69h3.36c0-1.77-.41-2.93-1.52-2.93s-1.74,1.22-1.84,2.93Z"/>
  <path class="cls-1" d="M40.64,18.06c-.27-4.93-4.4-8.33-4.62-8.44.02.09.05.16.05.17.43,1.67.87,5.94.87,5.94.31,2.85-1.32,5.26-5.34,6.9-1.63.66-4.32,1.55-6.15,2.64-1.18.69-1.99,1.66-2.36,3.98-.17,1.12-.25,2.91-.21,4.8.04,1.27-.13,4.71,3.41,4.46,3.52-.25,8.47-3.84,11.69-9.25,1.78-3.01,2.92-6.75,2.68-11.21Z"/>
  <path class="cls-1" d="M36.06,9.79s-.13-.47-.15-.56C33.79,1.82,30.17.3,25.07.02c-6.82-.39-14.02,4.63-18.63,9.21-1.11,1.11-2.07,2.19-2.84,3.16-5.47,6.95-3.99,13.14-.34,16.84,1.05,1.08,2.29,1.93,3.6,2.55,1.56.72,3.24,1.1,4.8,1.02,2.87-.16,4.32-1.85,5.33-3.07.14-.16.4-.5.4-.5-.14,0-.44.01-.45.01-4.44-.03-7.65-3.15-7.94-8.52-.14-2.21.52-4.41,1.87-6.17,2.11-2.85,6.04-4.73,11.62-5.21,5.36-.45,8.94.71,11.1,1.98,1.8,1.04,3.04,2.76,3.35,4.38h0c-.06-.36-.45-4.25-.88-5.92Z"/>
  <path class="cls-1" d="M11.66,32.8c-1.55.09-3.23-.29-4.8-1.02h-.01c2.2,3.38,5.71,6.34,10.24,6.71,2.35.2,4.11-.98,4.23-4.29.08-2.36-.02-3.99-.51-4.95-.34-.67-.85-1.02-1.6-1.08-.78-.06-1.29.43-1.83,1.06,0,0-.27.32-.4.5-1,1.22-2.44,2.91-5.32,3.07Z"/>
  <path class="cls-1" d="M47.75,24.02h6.89v.83h-2.86v7.91h-.9v-7.91h-3.13v-.83Z"/>
  <path class="cls-1" d="M55.27,24.02h.87v1.3c0,.31-.01,1.66-.04,2.26h.04c.37-.78,1.14-1.16,2.04-1.16,1.22,0,2.25.67,2.25,2.55v3.8h-.87v-3.68c0-1.4-.64-1.91-1.56-1.91-1.02,0-1.85.82-1.85,2.34v3.25h-.87v-8.74Z"/>
  <path class="cls-1" d="M64.55,26.41c1.55,0,2.68,1.09,2.68,2.95v.36h-4.63c.02,1.45.79,2.43,2,2.43.98,0,1.58-.56,1.7-1.27h.87c-.16,1.13-1.18,2.03-2.57,2.03-1.87,0-2.91-1.28-2.91-3.24s1.24-3.25,2.86-3.25ZM62.63,29.08h3.72c-.09-1.3-.78-1.91-1.8-1.91s-1.74.73-1.92,1.91Z"/>
  <path class="cls-1" d="M68.49,26.55h.82v1.02h.03c.29-.69.88-1.16,1.67-1.16.27,0,.57.03.88.25l-.28.78c-.28-.15-.54-.21-.78-.21-1,0-1.48,1.05-1.48,2.23v3.29h-.87v-6.2Z"/>
  <path class="cls-1" d="M73.99,29.36l1.33-.23c.64-.1.83-.21.83-.52-.02-.95-.52-1.47-1.47-1.47s-1.54.51-1.6,1.35h-.82c.06-1.22.95-2.07,2.43-2.07s2.34.82,2.34,2.26v4.09h-.82v-1h-.03c-.36.73-1.12,1.13-2.11,1.13-1.3,0-2.04-.68-2.04-1.7-.01-1.02.58-1.61,1.96-1.84ZM76.17,29.44c-.14.16-.39.27-.71.31l-1.31.22c-.88.14-1.26.53-1.26,1.16s.44,1.06,1.31,1.06c1.07,0,1.97-.65,1.97-2.06v-.69Z"/>
  <path class="cls-1" d="M79.44,35.56h-.87v-8.99h.82v1.1h.04c.39-.86,1.22-1.25,2.19-1.25,1.54,0,2.71,1.19,2.71,3.19s-1.25,3.29-2.78,3.29c-.96,0-1.72-.39-2.11-1.25h-.04c.02.61.04,1.99.04,2.32v1.6ZM81.44,27.17c-1.09,0-1.96.88-1.99,2.37v.12c0,1.57.88,2.49,1.99,2.49s1.99-.98,1.99-2.55-.89-2.43-1.99-2.43Z"/>
  <path class="cls-1" d="M88.16,26.41c1.55,0,2.68,1.09,2.68,2.95v.36h-4.63c.02,1.45.79,2.43,2,2.43.99,0,1.58-.56,1.7-1.27h.87c-.16,1.13-1.18,2.03-2.57,2.03-1.86,0-2.91-1.28-2.91-3.24s1.24-3.25,2.86-3.25ZM86.24,29.08h3.72c-.09-1.3-.78-1.91-1.8-1.91s-1.74.73-1.92,1.91Z"/>
  <path class="cls-1" d="M91.88,26.55h.87v3.68c0,1.4.62,1.91,1.55,1.91,1.02,0,1.82-.81,1.82-2.37v-3.22h.87v6.2h-.83v-1.02h-.03c-.38.79-1.12,1.16-1.99,1.16-1.22,0-2.24-.67-2.24-2.55v-3.8h-.01Z"/>
  <path class="cls-1" d="M98.99,27.26h-1.22v-.69h1.22v-1.88h.87v1.88h1.69v.69h-1.69v3.68c0,.79.3,1.07,1,1.07h.7v.75h-.81c-1.16,0-1.74-.56-1.74-1.78v-3.72Z"/>
  <path class="cls-1" d="M103.54,23.69h-.94v.98h.94v-.98Z"/>
  <path class="cls-1" d="M103.51,26.55h-.87v6.2h.87v-6.2Z"/>
  <path class="cls-1" d="M107.5,26.41c1.47,0,2.42.9,2.61,2.19h-.86c-.16-.83-.75-1.44-1.74-1.44-1.11,0-1.97,1.01-1.97,2.49s.83,2.49,1.97,2.49c1,0,1.58-.6,1.74-1.44h.87c-.18,1.28-1.14,2.19-2.61,2.19-1.75,0-2.87-1.28-2.87-3.24-.01-1.96,1.24-3.24,2.86-3.24Z"/>
  <path class="cls-1" d="M111.66,31.01c0,.86.82,1.22,1.66,1.22,1.05,0,1.68-.42,1.68-1.17,0-.58-.37-.83-1.1-.96l-1.17-.21c-.86-.14-1.74-.49-1.74-1.61s1.04-1.85,2.38-1.85c1.26,0,2.36.54,2.36,1.83h-.82c0-.78-.67-1.16-1.54-1.16s-1.54.38-1.54,1.1c0,.57.41.82,1.17.95l1.17.21c.98.17,1.7.54,1.7,1.63,0,1.27-1.07,1.92-2.55,1.92s-2.48-.63-2.48-1.9h.82Z"/>
  <path class="cls-1" d="M117.94,24.01c.67,0,1.19.51,1.19,1.19s-.5,1.22-1.19,1.22-1.19-.53-1.19-1.22.51-1.19,1.19-1.19ZM117.94,26.21c.54,0,.95-.46.95-1.01s-.39-.97-.95-.97-.95.42-.95.97.39,1.01.95,1.01ZM117.46,24.62h.53c.29,0,.44.14.44.36,0,.16-.1.29-.26.35l.3.45h-.27l-.26-.42h-.24v.42h-.24v-1.16ZM117.7,24.82v.34h.28c.14,0,.2-.07.2-.17s-.07-.16-.2-.16h-.28Z"/>
</svg>