<?xml version="1.0" encoding="UTF-8"?>
<svg id="Layer_1" data-name="Layer 1" xmlns="http://www.w3.org/2000/svg" xmlns:xlink="http://www.w3.org/1999/xlink" viewBox="0 0 89.84 25.33">
  <defs>
    <style>
      .cls-1 {
        fill: none;
      }

      .cls-2 {
        fill: #121212;
      }

      .cls-3 {
        clip-path: url(#clippath);
      }
    </style>
    <clipPath id="clippath">
      <rect class="cls-1" y="0" width="89.84" height="25.33"/>
    </clipPath>
  </defs>
  <g class="cls-3">
    <g>
      <path class="cls-2" d="M0,0h19.12v7.75h-4.34v-3.4H6.59l7.21,7.86-7.04,8.22h8.36v-3.9h4.34v8.45H.05v-3.67l7.95-8.98L0,3.59V0Z"/>
      <path class="cls-2" d="M89.82,14.6c-.03,3.01.04,6.03,0,9.05,0,0-.02.04-.03.08,0,.42.01.84.01,1.26h-4.65v-8.87c-.06-1.76-.63-3.23-2.58-3.43-2.41-.26-3.91,1.22-4.03,3.58v8.72h-4.67l-.03-16.51h3.93l.41,2.13s.05-.02.07-.04c.15-.11.29-.3.43-.43,1.11-1,2.59-1.78,4.11-1.86,4.07-.21,6.85,2.26,7.03,6.32h0Z"/>
      <path class="cls-2" d="M61.03,8.47h3.57v16.51h-3.91l-.31-1.7c-.92.9-2.01,1.59-3.28,1.87-3.12.7-6.13-.91-7.82-3.48-2.39-3.64-2-8.76,1.39-11.63,2.8-2.37,7.24-2.53,9.87.19l.49-1.77h0ZM56.07,12.21c-3.6.22-5.08,4.64-2.98,7.36,1.68,2.18,4.77,2.06,6.33-.18,1.92-2.76.38-6.99-3.15-7.19h-.2Z"/>
      <path class="cls-2" d="M37.48,24.99h-4.67v-9.06c-.09-2.04-1.03-3.33-3.2-3.27-2.21.07-3.31,1.61-3.41,3.7v8.63s-4.67,0-4.67,0V8.47h3.9l.44,2.13.59-.56c1.14-.96,2.49-1.68,4.01-1.76,3.99-.21,6.85,2.23,7.01,6.26v10.45h0Z"/>
      <path class="cls-2" d="M44.79,3.54v4.93h2.87v3.85h-2.87v12.66h-4.62v-12.66h-1.78v-3.85h1.78V3.54h4.62Z"/>
      <path class="cls-2" d="M71.5,8.47h-4.55v16.51h4.55V8.47Z"/>
      <path class="cls-2" d="M69.21.97c1.82,0,3.04,1.74,2.46,3.46-.56,1.68-2.78,2.23-4.11,1.11-1.86-1.55-.75-4.55,1.65-4.56h0Z"/>
    </g>
  </g>
</svg>