<?xml version="1.0" encoding="UTF-8"?>
<svg id="Layer_1" data-name="Layer 1" xmlns="http://www.w3.org/2000/svg" viewBox="0 0 130.34 27.75">
  <defs>
    <style>
      .cls-1 {
        fill: #121212;
        fill-rule: evenodd;
      }
    </style>
  </defs>
  <path class="cls-1" d="M18.29.25c.17-.17.43-.25.69-.25s.51.08.69.25l7.99,7.76c.4.39.4,1.15,0,1.53l-8.41,8.17-9.48-9.2L18.29.25ZM20.69,10.3c.43-.42.67-.99.67-1.59s-.24-1.17-.67-1.59c-.44-.42-1.03-.66-1.64-.66s-1.2.24-1.63.66c-.44.42-.68.99-.68,1.59s.24,1.17.68,1.59c.43.42,1.02.66,1.63.66s1.2-.24,1.64-.66ZM86.63,14.83c1.39,0,2.51-1.08,2.51-2.41s-1.12-2.41-2.51-2.41-2.51,1.08-2.51,2.41,1.12,2.41,2.51,2.41ZM32.48,11.27c-.21,0-.43.21-.43.42v14.97c0,.2.23.42.43.42h7.39c4.78,0,8.47-3.05,8.47-7.91,0-3.88-2.7-7.91-8.91-7.91h-6.95ZM36.95,15.49h2.6c1.97,0,3.75,1.17,3.75,3.69,0,2.01-1.62,3.8-3.75,3.8h-2.6v-7.49ZM55.4,15.34c-3.38,0-6.25,2.75-6.25,5.91,0,3.74,3.04,6.17,6.25,6.17,3.48,0,6.24-2.67,6.24-6.01s-2.43-6.06-6.24-6.06ZM55.4,19.27c1.3,0,2.12.98,2.12,2.06s-.93,2.04-2.12,2.04c-1.08,0-2.11-.82-2.11-2.09,0-1.07.97-2,2.11-2ZM63,26.67c0,.22.2.42.43.42h3.48c.21,0,.43-.21.43-.42v-6.59s.7-.9,1.85-.9c.95,0,1.3.53,1.3,1.16v6.33c0,.22.23.42.43.42h3.59c.21,0,.43-.21.43-.42v-6.64s.7-.84,1.85-.84c.7,0,1.3.42,1.3,1.16v6.33c0,.21.23.42.43.42h3.59c.22,0,.43-.21.43-.42v-7.59c0-2.23-1.02-3.69-3.69-3.69-2.14,0-3.47,1.05-4.13,2-.43-1.05-1.26-2-3.36-2-2.61,0-4.02,1.58-4.02,1.58v-.84c0-.2-.22-.42-.43-.42h-3.48c-.21,0-.43.21-.43.42v10.55ZM110.58,15.34c-3.38,0-6.25,2.75-6.25,5.91,0,3.74,3.05,6.17,6.25,6.17,3.48,0,6.24-2.67,6.24-6.01s-2.42-6.06-6.24-6.06ZM110.58,19.27c1.3,0,2.12.98,2.12,2.06s-.93,2.04-2.12,2.04c-1.08,0-2.11-.82-2.11-2.09,0-1.07.97-2,2.11-2ZM90.59,26.67c0,.22.21.42.44.42h3.58c.21,0,.43-.21.43-.42v-6.64s.64-.84,1.85-.84c1.45,0,1.74.9,1.74,1.58v5.91c0,.22.23.42.43.42h3.59c.21,0,.43-.21.43-.42v-7.38c0-2.21-1.06-3.9-4.02-3.9s-4.02,1.53-4.02,1.53v-.79c0-.2-.22-.42-.43-.42h-3.58c-.22,0-.43.21-.44.42v10.55ZM84.72,27.09c-.23,0-.44-.21-.44-.42v-10.55c.01-.21.23-.42.44-.42h3.58c.22,0,.44.22.44.42v10.55c0,.22-.22.42-.44.42h-3.58ZM115.34,12.42c0-1.25,1.07-2.35,2.49-2.35,1.57,0,2.54,1.22,2.54,2.52,0,2.05-1.64,3.17-2.9,3.75h-.02c-.16.08-.26.12-.55-.22-.34-.4-.26-.46-.07-.62h0s.05-.04.08-.07c.04-.04.08-.07.12-.1.12-.1.24-.2.39-.36,0,0,.15-.14.15-.42-1.03,0-2.23-.8-2.23-2.14ZM124.56,15.4c-2.7,0-5.3.99-5.3,3.61,0,3.02,3.03,3.48,5.18,3.8,1.18.18,2.09.32,2.09.82,0,.22-.43.62-1.63.62-1.81,0-3.73-1.19-3.73-1.19-.27-.17-.56-.19-.73.11l-1.29,2.1c-.2.3-.25.52.01.69,0,0,2.16,1.47,5.47,1.47s5.72-1.27,5.72-3.95c0-3.17-3.06-3.56-5.1-3.81-1-.13-1.75-.22-1.75-.6,0-.43.58-.61,1.31-.61,1.44,0,2.29.51,2.91.88l.07.04c.32.21.53.18.69-.08l1.22-1.99c.12-.22.12-.47-.15-.59-.96-.54-2.34-1.3-4.99-1.3ZM.25,17.75l9.16-8.89,9.48,9.2-8.76,8.51-.35.34c-.34.34-1.14.33-1.48,0L.25,19.09c-.34-.34-.34-1.01,0-1.34ZM14.17,20.18c.43-.42.68-.99.68-1.59s-.25-1.17-.68-1.59c-.43-.42-1.02-.66-1.63-.66s-1.21.24-1.64.66c-.43.42-.68.99-.68,1.59s.25,1.17.68,1.59c.43.42,1.02.66,1.64.66s1.2-.24,1.63-.66ZM7.83,18.14c0,.6-.24,1.17-.68,1.59-.43.42-1.02.66-1.63.66s-1.2-.24-1.63-.66c-.44-.42-.68-.99-.68-1.59s.24-1.17.68-1.59c.43-.42,1.02-.66,1.63-.66s1.2.24,1.63.66c.44.42.68.99.68,1.59Z"/>
</svg>