<?xml version="1.0" encoding="UTF-8"?>
<svg id="Layer_1" data-name="Layer 1" xmlns="http://www.w3.org/2000/svg" xmlns:xlink="http://www.w3.org/1999/xlink" viewBox="0 0 124.25 29.44">
  <defs>
    <style>
      .cls-1 {
        mask: url(#mask);
      }

      .cls-2 {
        fill: #fff;
      }

      .cls-3 {
        fill: #121212;
      }
    </style>
    <mask id="mask" x="-.12" y="-.36" width="124.49" height="30.39" maskUnits="userSpaceOnUse">
      <g id="mask0_2842_57608" data-name="mask0 2842 57608">
        <path class="cls-2" d="M-.12-.36h124.49v30.39H-.12V-.36Z"/>
      </g>
    </mask>
  </defs>
  <path class="cls-3" d="M48.93,10.59h3.93v12.34h-3.93v-12.34Z"/>
  <g class="cls-1">
    <g>
      <path class="cls-3" d="M53.68,10.59h3.78v1.69h.08c.91-1.33,2.09-2.05,3.81-2.05,2.7,0,4.29,1.93,4.29,4.67v8.02h-3.93v-7.23c0-1.3-.65-2.19-1.93-2.19s-2.17,1.08-2.17,2.6v6.82h-3.93v-12.34Z"/>
      <path class="cls-3" d="M53.24,7.29c0-1.3-1.06-2.36-2.36-2.36s-2.36,1.05-2.36,2.36,1.06,2.36,2.36,2.36,2.36-1.05,2.36-2.36Z"/>
      <path class="cls-3" d="M93.3,10.41c-.12-.01-.24-.01-.39-.01-1.5,0-2.51.65-3.38,2.12h-.07v-1.93h-3.77v12.34h3.93v-5.54c0-2.57,1.43-3.76,3.68-3.55v-3.42Z"/>
      <path class="cls-3" d="M112.59,15.14c-1.57-.29-2.97-.41-2.97-1.28,0-.77.75-1.13,1.72-1.13,1.08,0,1.83.34,1.97,1.45h3.62c-.19-2.43-2.07-3.95-5.57-3.95-2.92,0-5.33,1.35-5.33,3.95,0,2.89,2.29,3.47,4.44,3.83,1.64.29,3.13.41,3.13,1.52,0,.8-.74,1.23-1.93,1.23s-1.97-.5-2.21-1.52h-3.74c.27,2.54,2.5,4.07,5.98,4.07,3.23,0,5.62-1.4,5.62-4.1,0-3.16-2.56-3.71-4.73-4.07Z"/>
      <path class="cls-3" d="M99.39,13.03c1.28,0,2.2.94,2.34,2.41h-4.87c.26-1.47,1.03-2.41,2.53-2.41ZM99.61,20.47c-1.62,0-2.54-1.04-2.78-2.7h8.88c.02-2.51-.7-4.65-2.17-6-1.06-.96-2.46-1.54-4.22-1.54-3.77,0-6.35,2.82-6.35,6.51s2.51,6.55,6.59,6.55c1.57,0,2.82-.41,3.86-1.13,1.08-.75,1.81-1.81,2.07-2.92h-3.83c-.34.77-1.02,1.23-2.05,1.23Z"/>
      <path class="cls-3" d="M124.25,20.02c-.19,0-.43.02-.66.02-.84,0-1.37-.24-1.37-1.2v-5.78h2.03v-2.46h-2.03v-3.9h-3.84v3.9h-1.2v2.46h1.2v6.63c0,2.65,1.64,3.4,3.94,3.4.87,0,1.53-.07,1.93-.14v-2.91Z"/>
      <path class="cls-3" d="M72.66,20.02c-.16,0-.34.01-.51.01-.84,0-1.37-.24-1.37-1.2v-5.78h1.88v-2.46h-1.88v-3.9h-3.84v3.9h-1.28v2.46h1.28v6.63c0,2.65,1.64,3.4,3.93,3.4.78,0,1.38-.05,1.79-.12v-2.93Z"/>
      <path class="cls-3" d="M81.23,15.43c-.14-1.47-1.06-2.41-2.34-2.41-1.5,0-2.27.94-2.53,2.41h4.87ZM72.47,16.74c0-3.69,2.58-6.51,6.35-6.51,1.76,0,3.16.58,4.22,1.54,1.47,1.35,2.19,3.49,2.17,6h-8.88c.24,1.66,1.16,2.7,2.78,2.7,1.03,0,1.71-.46,2.05-1.23h3.83c-.26,1.11-.99,2.17-2.07,2.92-1.04.72-2.29,1.13-3.86,1.13-4.08,0-6.59-2.82-6.59-6.55Z"/>
      <path class="cls-3" d="M42.09,13.79c1.55,0,2.42-.92,2.42-2.29s-.9-2.22-2.42-2.22h-3.01v4.51h3.01ZM35.1,5.69h6.83c2.1,0,3.64.58,4.7,1.59,1.11,1.04,1.74,2.51,1.74,4.24,0,3.3-2.29,5.64-5.84,5.64h-3.45v5.76h-3.98V5.69Z"/>
      <path class="cls-3" d="M14.85,0C6.65,0,0,6.64,0,14.83c0,6.28,3.92,11.65,9.44,13.81-.13-1.17-.25-2.98.05-4.26.27-1.16,1.74-7.37,1.74-7.37,0,0-.44-.89-.44-2.2,0-2.06,1.2-3.6,2.68-3.6,1.27,0,1.88.95,1.88,2.09,0,1.27-.81,3.17-1.23,4.94-.35,1.48.74,2.68,2.2,2.68,2.64,0,4.67-2.78,4.67-6.79,0-3.55-2.56-6.03-6.2-6.03-4.23,0-6.71,3.16-6.71,6.44,0,1.27.5,2.64,1.11,3.38.12.15.14.28.1.43-.11.47-.36,1.48-.41,1.68-.07.27-.22.33-.5.2-1.85-.86-3.01-3.57-3.01-5.74,0-4.68,3.4-8.97,9.81-8.97,5.15,0,9.15,3.67,9.15,8.56s-3.22,9.22-7.7,9.22c-1.51,0-2.92-.78-3.41-1.7,0,0-.74,2.83-.92,3.52-.34,1.29-1.24,2.9-1.85,3.89,1.39.43,2.87.66,4.4.66,8.2,0,14.85-6.64,14.85-14.83S23.05,0,14.85,0Z"/>
    </g>
  </g>
</svg>