<?xml version="1.0" encoding="UTF-8"?>
<svg id="Layer_1" data-name="Layer 1" xmlns="http://www.w3.org/2000/svg" viewBox="0 0 136.63 22.2">
  <defs>
    <style>
      .cls-1 {
        fill: #121212;
      }
    </style>
  </defs>
  <path class="cls-1" d="M132.8,1.99c0-.6.57-.84,1.5-.84s1.51.22,1.51.84c0,.77-.93.86-1.51.86-.93,0-1.5-.25-1.5-.86ZM136.7,1.99c0-1.17-.9-1.99-2.4-1.99-1.09,0-2.39.54-2.39,1.99s1.15,2,2.39,2,2.4-.62,2.4-2ZM132.8,7.5v-.84c0-.52.33-.71.59-.71.3,0,.6.2.6.71v.84h-1.19ZM134.79,7.5v-.8l1.84-.72v-1.21l-2.05.87c-.19-.5-.68-.81-1.21-.81-.85,0-1.39.56-1.39,1.69v2.07h4.65v-1.09h-1.84ZM133.71,9.63c-1.12.12-1.8.72-1.8,1.89,0,1.4,1.1,2.1,2.39,2.1s2.4-.67,2.4-2.06c0-1.08-.63-1.81-1.7-1.93l-.06,1.06c.44.06.87.3.87.81,0,.82-.82.9-1.46.9-.56,0-1.57-.07-1.57-.85,0-.6.48-.78,1-.78l-.07-1.15ZM136.63,14.67h-4.65v1.09h4.65v-1.09ZM136.63,19.38v.75l-3.79,1.13v.03h3.79v.92h-4.65v-1.71l2.79-.82-2.79-.86v-1.71h4.65v1.09h-3.79v.03l3.79,1.16ZM40.76,22.2h-17.62c-1.37-5.08-4.26-15.82-4.26-15.82h-.05v15.82h-7.2V.34h12.5c1.32,5.04,4.08,15.41,4.08,15.41h.05V.34h7.22v3.32c-1.76,1.87-2.83,4.25-2.83,7.24,0,4.3,2.4,9.62,8.11,11.29ZM126.37.34v21.86h-7.55V5.08h-.1l-4.34,17.12h-6.97l-4.32-17.12h-.11v17.12h-13.2l-1.32-4.71h-7.09l-1.31,4.71h-12.62s-.42-3.22-.54-4.03c-.37-2.71-1.18-3.36-2.79-3.36h-2.21v7.39h-12.91c3.72-.85,7.08-2.55,9-3.72l-2.71-10.33-7.21,1.91,1.54,5.86c-.46.32-1.96.85-2.99.85-3.44,0-5.08-3.47-5.08-6.45,0-4.81,4.88-6.66,9.18-6.66,1,0,2.29.09,2.47.11l-.9-3.43h15.04c6.02,0,8.35,2.86,8.35,5.91,0,4.62-4.39,5.48-5.22,5.63-.01,0-.01.13,0,.13,1.75.33,3.04,1.19,3.86,2.67-.03-.05,4.6-13.14,5.02-14.34h11.56l4.88,13.71h.06V.34h12.43s2.88,11.97,2.9,11.97c.94-3.99,2.82-11.97,2.82-11.97h12.38ZM0,.34h8.37s-.01,14.53-.01,21.86c-.05,0-8.31,0-8.36,0V.34ZM84.85,5.03l-2.34,7.21h4.83l-2.37-7.21h-.12ZM61.9,9.88h2.49c2.04,0,2.89-1.05,2.89-2.35,0-1.65-1.4-2.3-2.89-2.3-.88,0-2.49,0-2.49,0v4.65Z"/>
</svg>