<?xml version="1.0" encoding="UTF-8"?>
<svg id="Layer_1" data-name="Layer 1" xmlns="http://www.w3.org/2000/svg" viewBox="0 0 103 20">
  <defs>
    <style>
      .cls-1 {
        fill: #121212;
      }
    </style>
  </defs>
  <path class="cls-1" d="M37.72,18.31l-3.5-5.08c-.27-.39-.17-.92.23-1.17h.01c1.6-1.05,2.61-2.94,2.61-5.1,0-3.72-3.18-6.65-7.1-6.65h-8.42c-.32,0-.57.25-.57.57v3.6c0,.15.12.27.27.28,2.85.15,5.14,2.55,5.14,5.29s-2.31,5.11-5.14,5.26c-.14.01-.27.13-.27.28v3.5c0,.32.25.57.57.57h4.89c.33,0,.58-.25.58-.57v-1.68c0-1.2,1.06-1.49,1.87-.55l2.05,2.51c.18.18.44.29.69.29h5.36c.48,0,.87-.37.87-.84.01-.18-.05-.34-.14-.49h0Z"/>
  <path class="cls-1" d="M40.41.27h4.24c.32,0,.58.25.58.57v18.21c0,.32-.26.57-.58.57h-4.24c-.33,0-.58-.25-.58-.57V.84c0-.31.25-.57.58-.57Z"/>
  <path class="cls-1" d="M52.11,5.05h-4.47c-.31,0-.58-.25-.58-.56V.85c0-.32.26-.57.58-.57h14.8c.33,0,.58.25.58.57v3.65c0,.32-.25.57-.58.57h-4.36c-.16,0-.28.12-.28.29v13.71c0,.32-.26.57-.58.57h-4.24c-.33,0-.58-.25-.58-.57V5.33c-.01-.15-.14-.28-.29-.28h0Z"/>
  <path class="cls-1" d="M65.52.27h13.44c.32,0,.58.25.58.57v3.62c0,.32-.26.57-.58.57h-8.33c-.17,0-.29.12-.29.29v2.1c0,.15.12.28.28.28h7.74c.33,0,.58.25.58.57v3.2c0,.32-.25.57-.58.57h-7.73c-.16,0-.29.12-.29.28v2.38c0,.15.13.28.29.28h8.56c.32,0,.57.25.57.57v3.53c0,.32-.25.57-.57.57h-13.67c-.33,0-.58-.25-.58-.57V.84c0-.31.25-.57.58-.57Z"/>
  <path class="cls-1" d="M92.07,0c-6.04,0-10.9,4.49-10.9,10.01s4.86,9.99,10.9,9.99,10.93-4.47,10.93-9.99c-.01-5.51-4.86-10.01-10.93-10.01ZM92.07,15.29c-2.97.01-5.38-2.34-5.39-5.24v-.03c0-2.86,2.41-5.3,5.39-5.3s5.43,2.47,5.43,5.3-2.46,5.26-5.43,5.26Z"/>
  <path class="cls-1" d="M10.79,0c3.07,0,5.83,1.28,7.8,3.33.21.23.2.58-.03.79,0,0-.01,0-.02.02l-2.8,2.28c-.22.18-.55.17-.77-.03-1.12-1.07-2.62-1.67-4.18-1.68-2.99,0-5.4,2.22-5.4,5.25s2.41,5.22,5.4,5.22c1.56-.01,3.05-.61,4.18-1.68.22-.2.55-.22.77-.04l2.8,2.29c.24.2.28.56.08.79-.01.01-.01.02-.02.02-1.97,2.05-4.73,3.33-7.81,3.33-5.96,0-10.79-4.19-10.79-9.93S4.82,0,10.79,0Z"/>
</svg>