<?xml version="1.0" encoding="UTF-8"?>
<svg id="Layer_1" data-name="Layer 1" xmlns="http://www.w3.org/2000/svg" viewBox="0 0 186.16 27.17">
  <defs>
    <style>
      .cls-1 {
        fill: #121212;
      }
    </style>
  </defs>
  <path class="cls-1" d="M22.62,8.99l.26-1.48h-7.92c-2.37,0-4,1.22-4.44,3.65l-1.74,9.77h1.58l1.39-7.83c.59-3.35,1.27-4.11,4.66-4.11h6.21Z"/>
  <path class="cls-1" d="M17.66,12.22c-1.83,0-2.15.51-2.48,2.36l-1.13,6.35h.35c3.54,0,6.56-2.54,7.17-6.01l.48-2.7h-4.38Z"/>
  <path class="cls-1" d="M5.96,9.95c.81-4.06,1.74-6.63,8.24-6.63h9.42l.49-2.79h-12.34C7.31.53,4.1,3.27,3.43,7.04L.98,20.93h3.01l1.97-10.98Z"/>
  <path class="cls-1" d="M183.76,2.11V.74h-.42v-.24h1.1v.24h-.42v1.37h-.26ZM184.68,2.11V.5h.35l.39,1.19h.03l.38-1.19h.34v1.6h-.24V.9h-.02l-.38,1.2h-.19l-.38-1.2h-.02v1.2h-.24Z"/>
  <path class="cls-1" d="M92.13,20.94h-1.65l3.61-20.44h7.55c1.42,0,2.48.4,3.16,1.22.68.81.9,1.93.65,3.35l-.6,3.38c-.2,1.15-.65,2.11-1.34,2.86-.69.75-1.55,1.25-2.58,1.5l-.06.02,2.47,8.11h-1.96c-.35,0-.58-.15-.7-.43l-2.15-7.48h-4.39s-1.29,7.3-1.29,7.3c-.06.34-.38.61-.72.61ZM99.46,11.14c1.47,0,2.87-1.19,3.13-2.65l.59-3.32c.31-1.79-.41-2.69-2.19-2.69h-4.98s-1.53,8.67-1.53,8.67h4.98Z"/>
  <path class="cls-1" d="M116.11,20.94h-7c-1.42,0-2.47-.4-3.14-1.21-.67-.8-.88-1.92-.63-3.37l1.17-6.62c.26-1.44.86-2.56,1.82-3.37.96-.81,2.15-1.21,3.57-1.21h2.6c1.42,0,2.46.4,3.13,1.21.66.8.87,1.92.61,3.37l-.78,4.39h-9.5s-.38,2.16-.38,2.16c-.32,1.79.39,2.69,2.12,2.69h6.13c.34,0,.57.28.51.62l-.23,1.33ZM108.25,12.51h7.3l.48-2.69c.31-1.77-.4-2.66-2.14-2.66h-2.1c-1.73,0-2.76.89-3.07,2.66l-.47,2.69Z"/>
  <path class="cls-1" d="M133.64,20.94h-2.26l2.78-15.76h1.64c.34,0,.57.27.51.61l-.18,1.02s.81-1.64,3.57-1.64h1.73c1.4,0,2.42.4,3.07,1.21.64.8.84,1.92.58,3.37l-1.98,11.19h-2.26l1.96-11.09c.32-1.79-.39-2.69-2.12-2.69h-1.73c-.93,0-1.69.25-2.27.74-.58.5-.96,1.19-1.11,2.1l-1.93,10.94Z"/>
  <path class="cls-1" d="M152.2,20.94h-2.66c-1.42,0-2.47-.4-3.15-1.21-.67-.8-.88-1.92-.63-3.37l1.17-6.62c.25-1.44.86-2.56,1.82-3.37.96-.81,2.15-1.21,3.57-1.21h2.66c1.42,0,2.47.4,3.15,1.21.67.8.88,1.92.63,3.37l-1.17,6.62c-.25,1.44-.87,2.56-1.82,3.37-.96.8-2.15,1.21-3.57,1.21ZM150.14,18.97h2.17c1.73,0,2.75-.89,3.07-2.66l1.15-6.49c.31-1.77-.4-2.66-2.13-2.66h-2.17c-1.73,0-2.75.89-3.07,2.66l-1.15,6.49c-.31,1.77.4,2.66,2.13,2.66Z"/>
  <path class="cls-1" d="M161.05,20.94h-2.26l2.78-15.76h1.64c.34,0,.57.27.51.61l-.16.94s.52-.6,1.48-1.06c.64-.3,1.35-.49,2.13-.49h1.61l-.35,1.97h-2.07c-.93,0-1.69.28-2.29.84-.59.56-.97,1.32-1.15,2.29l-1.88,10.66Z"/>
  <path class="cls-1" d="M179.91,1.12l-1.01,5.7s-.61-1.63-3.02-1.63h-1.83c-1.4,0-2.57.4-3.49,1.2-.93.8-1.52,1.92-1.77,3.37l-1.17,6.61c-.25,1.44-.06,2.56.58,3.36.64.81,1.66,1.21,3.06,1.21h1.83c2.07,0,3.6-1.64,3.6-1.64l-.18,1.02c-.06.34.17.61.51.61h1.62l3.61-20.44h-1.62c-.34,0-.67.28-.73.62ZM177.26,16.12c-.16.9-.53,1.61-1.11,2.1-.58.5-1.34.74-2.27.74h-1.88c-1.71,0-2.41-.9-2.1-2.69l1.14-6.42c.32-1.79,1.33-2.69,3.04-2.69h1.89c.93,0,1.6.25,2,.74.41.5.53,1.19.37,2.1l-1.08,6.12Z"/>
  <path class="cls-1" d="M127.89,11.16l4.4-5.97h-2.62l-2.52,3.77.74,2.2Z"/>
  <path class="cls-1" d="M125.88,12.95l-2.52-7.33c-.12-.29-.31-.43-.57-.43h-2.2l3.07,7.72-6,8.03h2.23c.21,0,.4-.08.55-.24l5.45-7.75Z"/>
  <path class="cls-1" d="M125.79,16.82l1.28,3.69c.12.29.29.43.51.43h2.28l-2.54-6.32-1.54,2.2Z"/>
  <path class="cls-1" d="M51.96,20.94h-7.49c-1.63,0-2.81-.43-3.55-1.3-.73-.86-.96-2.11-.67-3.74l1-5.68c.29-1.63.95-2.88,1.99-3.74,1.04-.87,2.38-1.3,4.01-1.3h2.44c1.63,0,2.81.43,3.55,1.3.73.86.96,2.11.67,3.74l-.67,3.75c-.08.45-.51.82-.96.82h-7.96s-.18,1.02-.18,1.02c-.11.64-.05,1.1.18,1.37.23.28.67.42,1.33.42h6.07c.45,0,.75.37.68.82l-.44,2.53ZM44.81,12.16h4.89l.32-1.82c.12-.66.06-1.12-.16-1.39-.22-.27-.66-.4-1.32-.4h-1.3c-.66,0-1.15.14-1.46.4-.32.27-.53.73-.65,1.39l-.32,1.82Z"/>
  <path class="cls-1" d="M59.44,20.93h-1.02c-1.59,0-2.72-.43-3.38-1.3-.66-.87-.85-2.11-.56-3.74l1-5.67c.29-1.63.95-2.88,1.99-3.74,1.04-.87,2.38-1.3,4-1.3h7.83l-2.92,16.58c-.29,1.61-.95,2.85-2,3.71-1.05.87-2.38,1.3-3.99,1.3h-6.59l.45-2.58c.08-.45.51-.82.96-.82h5.12c.66,0,1.15-.14,1.48-.42.33-.28.55-.74.66-1.38l.41-2.35s-.61.8-1.55,1.27c-.62.31-1.27.43-1.9.43ZM63.61,15.18l1.16-6.6h-3.28c-.66,0-1.15.14-1.46.42-.32.28-.54.75-.65,1.41l-.94,5.3c-.12.66-.06,1.12.16,1.39.22.27.66.4,1.33.4h1.14c1.42,0,2.27-.77,2.55-2.32Z"/>
  <path class="cls-1" d="M85.89,20.94h-3.11l3.47-19.62c.08-.45.51-.82.96-.82h3.11l-3.46,19.62c-.08.45-.52.82-.97.82Z"/>
  <path class="cls-1" d="M72.94,20.93h1.02c.64,0,1.28-.12,1.9-.43.94-.47,1.55-1.27,1.55-1.27l-.15.89c-.08.45.22.82.67.82h3.11l2.78-15.75h-7.83c-1.63,0-2.96.43-4,1.3-1.04.86-1.7,2.11-1.99,3.74l-1,5.67c-.29,1.63-.1,2.87.56,3.74.66.87,1.78,1.3,3.37,1.3ZM73.9,10.41c.12-.66.33-1.13.65-1.41.32-.28.81-.42,1.47-.42h3.28l-1.16,6.6c-.27,1.54-1.12,2.32-2.55,2.32h-1.14c-.66,0-1.1-.13-1.32-.4-.22-.27-.27-.73-.16-1.39l.94-5.3Z"/>
  <path class="cls-1" d="M39.6,1.84c-.75-.89-1.93-1.33-3.54-1.33h-8.02l-1.24,7h3.93l.64-3.6h3.37c.66,0,1.12.15,1.38.43.26.29.33.75.22,1.39l-.53,2.98c-.11.62-.34,1.06-.7,1.34-.36.28-.87.42-1.53.42h-7.31l-1.85,10.48h3.11c.45,0,.88-.37.96-.82l1.15-6.5h2.44s1.92,6.67,1.92,6.67c.06.27.16.44.31.52.15.08.41.12.79.12h3.4l-2.37-7.73.06-.02c1.97-.76,3.16-2.31,3.57-4.63l.52-2.98c.28-1.61.05-2.85-.7-3.74Z"/>
</svg>