<?xml version="1.0" encoding="UTF-8"?>
<svg id="Layer_1" data-name="Layer 1" xmlns="http://www.w3.org/2000/svg" xmlns:xlink="http://www.w3.org/1999/xlink" viewBox="0 0 169.92 22.62">
  <defs>
    <style>
      .cls-1 {
        mask: url(#mask);
      }

      .cls-2 {
        fill-rule: evenodd;
      }

      .cls-2, .cls-3 {
        fill: #121212;
      }

      .cls-4 {
        fill: #fff;
      }
    </style>
    <mask id="mask" x="0" y="0" width="169.92" height="22.62" maskUnits="userSpaceOnUse">
      <g id="mask2_2842_57608" data-name="mask2 2842 57608">
        <path class="cls-4" d="M0,0h169.92v22.62H0V0Z"/>
      </g>
    </mask>
  </defs>
  <g class="cls-1">
    <g>
      <path class="cls-3" d="M17.61,8.27C17.33,3.67,13.48,0,8.83,0,3.96,0,0,3.92,0,8.8c0,2.28.88,4.46,2.47,6.08l5.82-6.62h9.32,0ZM12.02,22.27h11.2v-7.33l-5.62-6.67-5.59,6.67v7.33h0Z"/>
      <path class="cls-3" d="M137.44,22.24h-4.36v-13.41h4.36v13.41h0ZM132.83,5.21c0-1.42,1-2.42,2.42-2.42s2.42,1,2.42,2.42-1,2.42-2.42,2.42-2.42-1-2.42-2.42ZM77.33,8.83v13.41h-4.36v-13.41h4.36ZM72.73,5.21c0-1.42,1-2.42,2.42-2.42s2.42,1,2.42,2.42-1,2.42-2.42,2.42-2.42-1-2.42-2.42ZM67.27,8.83v-3.29h-2.8l-.33,1.36c-.33,1.24-.74,1.93-2.07,2.17l-.97.15v2.66h1.88v6.77c0,3.02,1.97,3.96,4.15,3.96,1.76,0,2.91-.42,3.91-1.18v-2.77c-.82.36-1.51.54-2.18.54-1.03,0-1.57-.48-1.57-1.63v-5.69h3.57v-3.05h-3.57ZM30.92,22.24h4.36v-6.7c0-2.17.97-3.56,2.66-3.56,1.51,0,2.24,1,2.24,2.99v7.28h4.36v-8.51c0-3.41-1.78-5.26-4.72-5.26-2.45,0-4,1.3-4.54,3.29v-2.93h-4.36v13.41Z"/>
      <path class="cls-2" d="M86.43,8.47c-4.39,0-7.27,2.96-7.27,7.16s2.88,6.98,7.27,6.98,7.36-2.78,7.36-6.98-2.94-7.16-7.36-7.16ZM86.43,19.25c-1.85,0-3-1.33-3-3.62s1.15-3.81,3-3.81,3.09,1.51,3.09,3.81-1.24,3.62-3.09,3.62Z"/>
      <path class="cls-3" d="M99.7,22.24h-4.36v-13.41h4.36v2.93c.54-1.99,2.09-3.29,4.54-3.29,2.94,0,4.72,1.84,4.72,5.26v8.52h-4.36v-7.28c0-1.99-.73-2.99-2.24-2.99-1.7,0-2.67,1.39-2.67,3.56v6.7h0ZM125.31,17.59h-.12l-2.21-8.76h-4.12l-2.24,8.76h-.12l-2.33-8.76h-4.36l3.97,13.41h4.63l2.24-8.7h.12l2.24,8.7h4.63l3.99-13.41h-3.96l-2.36,8.76h0Z"/>
      <path class="cls-2" d="M145.43,8.47c-3.51,0-6.12,2.72-6.12,7.07s2.61,7.07,6.12,7.07c1.88,0,3.76-1.03,4.45-2.75v2.38h4.39V3.31h-4.39v7.94c-.67-1.72-2.55-2.78-4.45-2.78ZM146.82,11.91c1.85,0,3.06,1.36,3.06,3.47v.3c0,2.14-1.21,3.5-3.06,3.5s-3.09-1.42-3.09-3.66,1.21-3.62,3.09-3.62h0ZM169.58,18.66c-.93,2.51-3.19,3.96-6.37,3.96-4.28,0-7.31-2.6-7.31-6.87s3.09-7.3,7.22-7.3c4.46,0,6.8,3.06,6.8,6.72v1.33h-9.71c.12,1.79,1.46,2.82,3.15,2.82,1.41,0,2.32-.5,2.83-1.56l3.38.91h0s0,0,0,0ZM160.28,14.17h5.43c-.09-1.33-.94-2.54-2.61-2.54-1.76,0-2.58,1.12-2.82,2.54ZM51.03,14.66c-2.97.48-4.92,1.67-4.92,4.24,0,2.3,1.7,3.66,4.4,3.66,2.1,0,3.77-.82,4.52-2.36.39,1.51,1.58,2.36,3.19,2.36,1.34,0,2.19-.39,2.85-.88v-2.33c-.35.17-.73.25-1.12.24-.55,0-.85-.3-.85-1v-4.91c0-3.66-2.52-5.24-6.04-5.24s-5.72,1.75-6.35,4.33l3.96.82c.25-1.1.89-1.87,2.15-1.87,1.34,0,1.97.76,1.97,2.03v.3l-3.77.6h0ZM50.36,18.41c0-1.06.85-1.42,2.22-1.67l2.21-.39v.51c0,1.91-1.27,2.82-2.88,2.82-.94,0-1.55-.48-1.55-1.27Z"/>
    </g>
  </g>
</svg>