<?xml version="1.0" encoding="UTF-8"?>
<svg id="Layer_1" data-name="Layer 1" xmlns="http://www.w3.org/2000/svg" viewBox="0 0 34.71 35.44">
  <defs>
    <style>
      .cls-1 {
        fill: #121212;
      }
    </style>
  </defs>
  <path class="cls-1" d="M4.48,0C2,0,0,2.05,0,4.57v26.3c0,2.53,2,4.57,4.48,4.57h25.75c2.47,0,4.48-2.05,4.48-4.57V4.57c0-2.53-2.01-4.57-4.48-4.57H4.48ZM4.48,2.29h25.75c1.23,0,2.24,1.02,2.24,2.29v26.3c0,1.26-1.01,2.29-2.24,2.29H4.48c-1.24,0-2.24-1.02-2.24-2.29V4.57c0-1.26,1-2.29,2.24-2.29Z"/>
  <path class="cls-1" d="M15.68,24.01v2.29h12.31v-2.29h-12.31Z"/>
  <path class="cls-1" d="M15.68,9.15v12.29h2.52v-10h2.51v10h2.52v-10h1.68c.47,0,.84.38.84.86v9.15h2.52v-9.43c0-1.58-1.25-2.86-2.8-2.86h-9.79Z"/>
  <path class="cls-1" d="M9.24,9.15c-1.55,0-2.8,1.28-2.8,2.86v6.57c0,1.58,1.25,2.86,2.8,2.86h2.24v.57c0,1.11-1.01,2-2.24,2h-1.4v2.29h1.4c2.63,0,4.76-1.92,4.76-4.29v-12.86h-4.76ZM9.8,11.43h1.68v7.72h-1.68c-.47,0-.84-.38-.84-.86v-6c0-.47.37-.86.84-.86Z"/>
</svg>