<?xml version="1.0" encoding="UTF-8"?>
<svg id="Layer_1" data-name="Layer 1" xmlns="http://www.w3.org/2000/svg" viewBox="0 0 39.51 39.41">
  <defs>
    <style>
      .cls-1 {
        fill: #121212;
        fill-rule: evenodd;
      }
    </style>
  </defs>
  <path class="cls-1" d="M7.77,4.02C10.9,1.68,14.38.29,18.57.04h0c4.33-.26,8.21.88,11.68,3.02,1.26.77,2.39,1.72,3.43,2.77l1.7,1.95c2.31,3.14,3.75,6.56,3.99,10.77.66,11.24-8.01,20.24-18.5,20.84C9.62,40.03.62,31.35.03,20.88c-.18-3.04.35-5.93,1.35-8.46.77-1.94,1.55-3.16,2.69-4.72.15-.2.28-.36.43-.53h0s.08-.09.12-.14c.95-1.13,1.97-2.12,3.15-3ZM7.34,4.86C10.53,2.22,14.21.71,18.59.42c5.58-.38,10.95,1.82,14.8,5.65l1.16,1.28c4.49,5.37,5.75,12.88,3.11,19.49-.76,1.91-2.27,4.49-3.73,5.93-.11.11-.21.22-.31.33h0c-.09.1-.18.2-.28.3l-1.28,1.16c-3.1,2.58-6.99,4.19-11.24,4.45-6.19.37-12.1-2.27-15.97-6.93C2.25,28.93.68,25.15.41,20.85c-.27-4.13.86-8.15,2.96-11.47,1.05-1.68,2.45-3.25,3.97-4.51ZM15.29,15.21l.09-.06h0c.08,0,.14,0,.18,0h0c.17,0,.18,0,.31.21.25-.09.55-.26.82-.41h0c.05-.03.1-.05.15-.08.17-.09.38-.2.6-.32h0c.76-.4,1.73-.91,2.22-1.26-.2-.54-.4-1.1-.4-1.76.19-.07.44-.22.68-.37h0c.13-.08.25-.15.36-.21.35-.19.68-.38,1.01-.58.03-.02.06-.03.09-.05.14-.09.29-.18.45-.11.38.16.6.46.83.76.12.15.23.3.37.44.57-.4,1.09.67,1.09,1.15-.06.06-.1.08-.13.11-.04.02-.07.05-.13.1.03.22.11.49.2.79.12.39.25.82.29,1.28-.33.23-.65.44-1.06.64-.38.19-.78.4-1.11.61-.03.02-.06.04-.08.05h0c-.19.12-.21.13-.51-.01-.2-.1-.27-.18-.38-.29h0s-.05-.05-.08-.08c-.18-.18-.33-.39-.47-.59h0c-.1-.13-.19-.26-.29-.38-.23-.02-.3.02-.41.09h0s-.08.05-.13.08l-1.33.73c-.13.07-.26.15-.39.22-.16.09-.33.18-.49.28-.95.52-.94.53-.88.75.05.18.14.51-.29,1.44l-.26.41c-.16.28.54,1.62.7,1.93.29.57.67,1.18,1.1,1.63.08.09.16.17.22.24h0c.14.14.25.27.44.44.11.1.18.23.25.36.08.15.17.3.3.41.19-.18.3-.72.39-1.21h0c.05-.26.1-.51.15-.67.18-.52.45-.81.65-1.02.15-.16.27-.28.28-.44.01-.1-.05-.21-.11-.32-.15-.3-.34-.67.5-1.3.57-.43.61-.54.69-.72h0c.03-.07.06-.15.13-.26.05-.09.22-.17.38-.2-.03.03-.07.07-.11.11h0c-.07.06-.14.13-.17.19-.06.12-.06.28-.03.42.31.09.54.09.76.08h0c.33,0,.62-.02,1.07.31.7.51.91.41,1.06.33.1-.05.17-.09.36.09-.01,0-.02,0-.02.01h-.01s-.01,0-.01,0c0,0-.01,0-.02,0-.17.07-.19.09-.16.32.03.22.08.27.19.36h0s.03.03.05.04c.04.04.08.08.12.12.05.06.11.12.2.18.07.04.12.06.16.08.09.03.12.04.11.23-.15.09-.29.1-.41-.01.05.3.26.63.44.82l-.18-.48h0c.06.03.08.05.1.07,0,.02.02.04.04.08h0v.05s.02-.01.02-.02c.01,0,.01,0,.01-.01.02-.02.03-.03.03-.04.01-.01.02-.02.02-.02,0,0,0,0,.03,0h.02c.07.04.14.05.21.06.13.02.23.04.29.22-.17.2-.25.11-.34.02-.02-.02-.04-.04-.06-.06-.11.17-.15.28-.1.54.01,0,.02,0,.03.01-.02.02,0,.02.01.02.01,0,.01,0-.01-.02,0,0,.02-.02.04-.03.04-.02.03-.02.03-.02-.01,0-.01,0,.02-.01l.1.25h0s.01-.02.01-.03h0s0-.01.01-.02h0s.01-.05.02-.06c0-.01,0-.02.01-.04.04.05.04.06.04.07,0,.01,0,.02.02.07h0s.01.03.01.03l.05.08c.07-.06.07-.07.06-.07,0,0,0,0,.02-.07.03-.04.06-.08.09-.12.05-.07.11-.13.12-.22.01-.12,0-.1,0-.1h0s-.01,0-.01,0c0,0,.01,0,.01-.02v-.03s.15-.52.15-.52c.01,0,.01-.02.01-.02.02-.05.04-.07.06-.09.03-.03.06-.06.07-.18.02-.15-.01-.3-.03-.45h0c-.02-.08-.04-.16-.04-.23.11.22.17.71.19,1.01.01.22-.01.43-.02.63-.02.16-.03.32-.03.48.01-.08.07-.16.15-.23l-.04.29c.06,0,.07-.03.1-.07.01-.02.03-.05.07-.08l.07.16.15-.49c.05.17.02.27-.02.37-.03.1-.06.2,0,.36.01.02.01.02.02.02.01,0,.01,0,.01.09l-.27.24c0,.09.01.12.04.16h0s.02.04.03.07c-.17.08-.22.1-.42.14-.21.04-.32.13-.41.21-.15.12-.28.24-.74.22-.07.17-.24.34-.46.43-.26.11-.37.05-.5-.01-.05-.02-.1-.05-.15-.07-.09.05-.34.42-.53.7-.09.13-.16.24-.2.29-.37.49-.79.95-1.24,1.36-.76.68-1.53,1.28-2.42,1.82-.13.08-.27.19-.42.3h0c-.53.4-1.17.89-1.97.63-.49-.16-2.02-2.27-2.31-2.8-.45-.82-.69-1.45-.96-2.44-.07-.28-.15-.56-.22-.85h0c-.23-.84-.47-1.7-.65-2.55-.12-.54-.85-1.31-1.07-1.43-.07.03-.14.06-.22.09-.33.16-.63.3-.93-.42-.25-.59.05-.77.35-.95.11-.06.21-.12.29-.2.03-.54.19-.77.43-1.09.05-.06.09-.11.13-.16h0c.06-.08.12-.15.2-.27.01-.02.03-.04.04-.06h0c.1-.16.11-.17.37-.24.15-.04.19-.08.24-.13.04-.04.09-.09.24-.15.07-.03.13-.05.18-.07.12-.04.2-.06.32-.18.12-.11.29-.23.56-.15.13.04.15.1.16.14.02.06.04.11.29.11ZM19.82,11.37c.03.07.06.12.1.14.06.03.05.02.04.01-.03-.02-.1-.08.11-.02l.08.23h-.11c.05.18.13.35.21.48l.32.46c-.04-.14-.09-.22-.14-.3-.06-.09-.11-.18-.14-.35.15.09.2.23.25.35.05.15.11.3.37.34-.03-.09-.06-.15-.09-.21-.04-.08-.08-.15-.1-.29l.14.14s.05.09.08.14h0s.01.02.01.02v.02s.02.03.02.03c.07.13.13.24.22.34l-.12-.33c.21.21.52.81.74,1.24h0c.05.1.09.19.13.26.04.07.07.13.11.2h0c.09.19.19.39.3.56l.06.1c.14.23.26.41.4.63-.14-1.2-.25-1.37-.52-1.76h0c-.1-.14-.22-.31-.36-.56-.07-.12-.13-.21-.19-.29-.11-.17-.18-.28-.18-.45h0s.02.01.02.02l.17.23s.04.08.06.12h0c.04.06.07.11.1.18.12.23.22.37.35.55-.13-.57-.83-1.61-1.26-2.02-.11-.1-.19-.2-.26-.28h0c-.25-.3-.33-.39-.92.05h0ZM22.93,23.18h0s-.03.02,0,0h0s.02-.02.02-.02h.01s-.03.01-.03.01ZM19.94,27.37s-.02.03-.11.09h0c-.2.12-.18.18-.15.28.01.04.02.09.02.15-.2-.02-.2,0-.25.17h0s-.02.06-.03.1c-.09.35-.75.67-1.12.67-.1,0-.15-.01-.22-.03h0s-.05-.01-.07-.02c-.06-.01-.07-.01-.08-.01s-.02,0-.03,0c-.12-.02-.24-.12-.34-.22h0s-.05-.04-.06-.05c-.11-.09-.13-.18-.16-.29h0s-.01-.05-.02-.08c-.03-.12-.07-.16-.09-.19-.04-.04-.06-.06-.05-.25l-.15.16.02-.28s-.03,0-.04,0c0,0,0,0,0,0h0s-.01.03-.08.07l-.06-.23s-.03.09-.04.13h0s-.02.08-.04.12l-.02-.45s-.04-.03-.04-.03h0s0,0,0,0h0s-.02.03-.06.07l-.02-.28h-.02s-.01.01-.01.02h-.01s-.01.01-.03.03l-.06.05c-.01-.27-.05-.32-.23-.19l.04-.26h-.09s-.01,0-.01,0c-.01,0-.01-.01-.02-.13l-.07.07s-.03.02-.03.02c-.01,0-.01.01-.03.03-.01-.26-.03-.25-.05-.24-.02,0-.04.02-.03-.21,0,0-.01,0-.01.01-.01,0-.01,0-.02.01-.01,0-.01.01-.02.02h-.01s-.03.02-.04.02c-.01,0-.02,0-.05-.02h0s.04-.29.04-.29h-.01c-.06.06-.09.08-.12.18l.05-.32-.12.05.07-.33-.23-.08.08-.37s-.05.07-.07.1h0c-.04.06-.08.13-.15.19l.08-.44c-.01.05-.06.13-.11.22-.04.07-.08.15-.1.2,0-.1.02-.19.05-.28.03-.11.05-.21.02-.32l-.18.36.11-.56s-.04.05-.06.06c-.01.02-.02.02-.02.02-.01,0-.01,0-.01,0-.01,0-.02,0-.03,0l.08-.25c-.05-.02-.07,0-.1.04-.01.01-.02.02-.03.04.03-.17-.03-.19-.06-.19-.01,0-.02,0-.02,0,0,0-.01,0-.01,0-.01,0-.01,0-.02,0l.1-.21s-.01,0-.02,0h0s-.06,0-.06,0c-.05,0-.02.02-.02.02h0s-.01,0-.03-.02l.07-.21c-.05-.03-.07-.01-.09,0-.02,0-.04.02-.06,0l.11-.25s-.05,0-.06,0c-.02,0-.02,0-.03-.03,0,0-.01,0-.01,0,0,0,0,0-.01,0l.1-.26c-.11.05-.12.06-.16.12-.02.02-.03.05-.06.08l.1-.35c-.1.04-.11.07-.14.13-.01.03-.02.06-.05.1,0-.11.04-.19.08-.26.05-.09.09-.16.04-.26-.07.05-.09.11-.12.16-.02.05-.04.1-.09.15l.12-.38c-.07-.03-.08-.01-.08,0-.01.02-.01.03-.08,0l.11-.3-.13.11c0-.06.02-.09.04-.11.02-.03.04-.07.04-.18l-.15.11c.06-.17.03-.36,0-.52-.02-.08-.03-.16-.02-.21h0v-.03c0-.08-.01-.09-.02-.1-.01-.01-.01-.02,0-.11l-.17.08c.11-.21.07-.2.03-.19,0,0-.01,0-.01,0-.03-.05-.04-.08-.06-.1-.02-.03-.04-.05-.05-.16l-.15-.64c-.05-.17-.05-.18.04-.37v-.02l-.11-.02.02-.2s-.01-.06-.01-.08c0-.01,0-.02-.01-.03-.01,0-.03,0-.1.04l-.04.02s0-.04.02-.05h0s.03-.06.01-.11l-.17.09.09-.24h0s.32-.25.32-.25c.02.01.03.02.04.02.01,0,.02.01.06.05.02.02.05.05.06.07.02.04.03.1.04.15,0,.03.01.06.02.09.01.07.05.13.08.19.03.06.06.13.07.19.03.1.02.15.02.2,0,.07-.01.12.08.26l.09.16c.01.05.01.06-.01.1-.01.02-.02.04-.03.09.18-.06.19-.05.21-.03,0,0,0,.01.02.02l-.15.26c.09.04.09.07.09.08h0s.01,0,.03,0c.02,0,.04,0,.07-.02.12-.03.24-.18.33-.3.04-.05.07-.09.1-.12-.02-.01-.04-.02-.05-.03h0s-.04-.02-.05-.02c0,0-.01,0-.02.01-.01,0-.03.02-.06.04.01-.02.02-.04.03-.06h0s.05-.09.08-.15c-.13.03-.13.04-.14.06-.01.02-.02.04-.11.08.02-.09.04-.11.05-.13.01-.02.02-.04.03-.12,0-.04,0-.07,0-.08-.01-.03-.01-.04.07-.14-.19-.12-.15-.18-.11-.24.02-.03.04-.06.04-.1,0-.07-.05-.14-.09-.18h0s-.03-.03-.03-.04c-.03-.04-.03-.06-.03-.08-.01-.04-.01-.07-.13-.19.01-.01.02-.02.02-.03h0s.01-.02.02-.02c.01,0,.01-.01.03-.03h0s.02-.02.04-.03l-.16-.09.16-.09-.16-.04s-.01,0-.01,0c-.01,0-.02,0-.02,0,0,0-.01,0-.02,0h0s.14-.12.14-.12c-.06-.03-.13-.02-.15-.02,0,0-.01,0-.01,0,.03-.02.06-.04.08-.06.05-.04.1-.08.16-.11-.01,0-.01-.01-.01-.02,0-.03-.01-.08-.23.04.01-.01.02-.02.03-.03h0c.06-.06.08-.08.09-.16v-.04s.08-.07.13-.1c.04-.03.09-.06.11-.1l.02-.08h0s-.02-.1.11-.18c.06-.04.13-.06.2-.08h0c.14-.05.26-.09.27-.25.01-.04,0-.05-.01-.06-.01-.02-.01-.03.09-.23v-.03s.04-.05.04-.05c.05-.1.1-.17.14-.23.08-.12.13-.18.11-.37-.03-.23-.12-.27-.24-.32-.1-.05-.23-.11-.37-.29-.13-.18-.25-.61.01-.79.01.02.04.03.06.05h0s.05.03.07.05c.01.01.01.02.01.03,0,0-.01,0-.01.05-.01.11.04.17.14.26.05.05.17.13.25.17.05.02.08.04.1.05.01,0,.02.01.02.01,0,0,.01,0,.01,0,.01-.01.03-.04.11-.08-.01.1-.03.13-.04.15-.01,0-.01,0-.01.01,0,0,.01.02.04.06l.04.04.28.21c.11.09.11.18.1.32v.05l.04.45s.01.04.01.05h0v.02s0,0-.01.02l-.03.1c0,.08-.03.11-.09.17h0s-.03.03-.04.04c0,0,.01,0,.02,0h0s.18.05.18.05l-.23.09.07.09s-.04.02-.07.03h0c-.09.03-.2.07-.22.13-.03.09.03.1.1.11.05,0,.1.02.14.05l-.32.1s.02.03.02.04c.02.04.02.04.27-.02-.02.03-.03.05-.04.06h0s0,.01-.01.02c0,0,0,0-.01,0-.01,0-.04,0-.11.04l-.16.09s-.02.03-.03.05c-.01.02-.01.04-.12.09-.04.02-.05.02-.07.02-.02,0-.04,0-.1.03.1.1.15.09.28.08h0s.06,0,.11,0l-.16.27-.43.03c.05.1.07.11.09.11.02,0,.03,0,.06.06.02.04.01.06.01.08-.01.02-.01.05.01.12.01.08.04.12.06.15.03.06.06.1.03.33l.15.04s-.03.05-.04.07h0s-.03.05-.04.06c0,.03.01.06.03.09.03.05.07.11.02.28l.17-.04c-.13.16-.05.21.01.25.02.01.04.02.05.03l.21.34c.16.26.04.35-.08.44-.08.06-.16.12-.16.22.05-.03.1-.07.14-.11.06-.05.12-.11.21-.14.11.17.04.22-.06.28-.08.05-.18.11-.18.27.09-.04.13-.08.16-.13.04-.04.07-.08.16-.11-.02.05-.05.08-.07.12-.03.05-.06.09-.11.2l.3-.18c-.05.09-.09.12-.13.15-.05.04-.09.07-.12.21l.24-.14-.14.24c.07-.03.12-.07.17-.11.07-.06.15-.11.27-.14,0,.02.01.05.02.08h0c.03.07.06.16.09.22l.19.2s.01,0,.02.01h0c-.02.16-.08.22-.13.28-.05.05-.09.11-.1.24.05,0,.08,0,.1,0,.03,0,.03,0,.04,0h0s.01-.03.06-.07c.05-.03.05-.04.05-.05,0-.01,0-.02.11-.07-.04.1-.08.14-.12.17-.04.04-.08.08-.12.22.14-.03.15-.07.16-.11.02-.03.03-.07.13-.09-.01.05-.02.09-.03.11h0c-.02.06-.02.07.04.17,0,0,0,0,.01.01h0s.09.14.09.14c.02.03.07.08.11.13.1.11.23.24.24.32l.03.1c.03.06.05.14.07.21.04.11.07.23.14.33l.03.05s.03.03.04.03c.01,0,.02,0,.03.06v.02c-.09.13-.12.18-.26.19h-.09c-.06,0-.08-.02-.09-.04h0s-.01-.01-.02-.01c-.01,0-.03.03-.13.15h0v.02s0,.02,0,.02c0,0,0,.01,0,.01h0s.01,0,.04.03l.16.14s.01,0,.02.01h0c.06-.11.08-.12.12-.13.02,0,.04-.01.06-.03.06-.03.1-.07.14-.11h0s.03-.03.05-.05l-.13.36h.01s.01-.02.01-.02c.01,0,.01,0,.01-.01,0,0,0,0,0,0,0,0,.01-.01.02-.03.03-.02.04-.04.06-.06h0c.04-.06.07-.09.16-.13-.02.06-.04.09-.06.12-.02.05-.04.08-.06.17l.19-.08-.1.41.19-.17-.07.29c.06-.02.13-.12.17-.19h0s.04-.05.05-.07l-.09.42s.02-.02.03-.02l.14-.16c0,.09,0,.13-.02.18h0s-.01.04-.02.07c-.02.14-.02.15.04.22l.18-.52-.1.57c.02-.09.05-.12.08-.16.07-.08.16-.19.3-.75l.06-.79s-.01-.07-.01-.1h0s-.02-.06-.02-.13c.03.11.08.19.15.26.03-.07,0-.16-.03-.26-.02-.06-.04-.12-.05-.19l.02.02h0s.1.15.12.17c.04.04.07.04.1.04.02,0,.04,0,.08.01.04-.05.06-.13.08-.2,0-.02,0-.03.01-.04.04.09.07.12.12.16h0s.03.03.05.05l.23.18-.13-.23.19.08v-.02s-.02-.09-.02-.11c.01-.11.04-.1.07-.08.02,0,.04.02.05-.03.01,0,.01,0,.02,0t0,0c-.1-.11-.41-.53-.42-.65h0v-.02h0s-.05-.24-.05-.24c-.01-.14-.01-.15-.03-.19-.02-.02-.03-.05-.06-.12.03,0,.04,0,.04,0h.01s0,0,0,0c0,0,0,0,.01-.02,0,0,.01-.02.01-.03.03-.05.03-.05.02-.04-.01.01-.02.03.01-.02.05-.12.03-.18,0-.28h0s-.02-.08-.03-.12c0,0,.01.01.01.02h.01s.07.11.07.11c.04.04.04.06.05.06h0s.02,0,.06.02c-.01-.05-.03-.1-.04-.14-.03-.08-.06-.16-.03-.26.04-.1.05-.08.07-.04.02.04.05.1.12.14,0-.12-.03-.16-.05-.21-.03-.05-.06-.1-.08-.21l.19.18c.05-.06.07-.14.09-.22h0c.02-.08.04-.16.08-.21.03-.03,0,0,0,.02,0,.02,0,.02.04-.05v-.02s.01,0,.01,0h0c.04-.12.07-.12.09-.12h0s0,0,.01,0c.01,0,0-.04-.03-.18h0s.07.04.11.06h.03s-.05-.18-.05-.18l.14.02s-.03-.07-.04-.09c-.03-.05-.05-.08-.05-.19.02.03.04.05.05.07.05.06.07.08.16.12l-.11-.31.21.03h0s.01,0,.03-.01l.18-.18h.01s.01-.01.01-.01h0s.03,0,.04,0c.02.01.03.02,0-.16.13.08.14.07.15.03.02-.04.06-.11.3-.12.15,0,.4.03.6.05h.01c.05,0,.1.01.15.02.01,0,.02.02.04.03.04.05.11.14.44.2l-.07.03h-.04s-.02.02-.02.02c0,0-.01,0-.01,0-.03,0-.04,0-.05,0-.02,0-.03,0-.08.02.19.06.39.15.5.26-.08-.01-.14-.04-.2-.06-.08-.04-.15-.07-.29-.04l.61.33c-.09.04-.12.03-.13.03,0,0,0,0,0,0h0v.06c.06.05.1.09.15.12.08.05.15.1.23.24l-.32-.11c.06.12.16.19.26.26.11.07.22.14.26.27-.13-.02-.19-.07-.25-.11-.05-.04-.1-.08-.21-.12.08.12.16.18.23.24.08.06.15.12.2.22-.09-.04-.16-.09-.23-.14-.07-.05-.15-.11-.26-.16.05.11.31.38.38.42-.13.01-.19-.04-.24-.09-.05-.04-.09-.08-.17-.08.07.14.14.19.21.24.06.05.12.09.18.2-.15-.11-.18-.12-.29-.14-.04,0-.09-.02-.17-.04.04.07.08.11.12.15.05.04.1.08.14.18-.06-.02-.1-.05-.12-.07-.05-.04-.08-.06-.18-.01.04.04.06.06.08.08.03.02.05.04.09.09h-.25c.03.08.07.11.11.15h.01s.01.02.01.02l-.09.05s-.01,0-.01,0h-.02s-.05.03-.07.03l.17.17c-.08-.02-.11-.04-.13-.06-.04-.02-.05-.03-.18-.03.03.07.04.08.06.1.01.02.02.03.05.11l-.29-.08c.03.05.05.08.06.1.03.03.04.06.07.14l-.27-.08.1.18-.29-.06c.04.05.1.11.15.16h0s.07.07.09.1l-.27-.03.11.16-.32-.08h0c.03.06.03.07.04.07h0s.03.01.06.05c.03.03.05.04.05.04t.06.09l-.4-.11s.03.05.03.05h0s.01,0,.04.03l.16.1s.08.04.11.07c.02.02.05.03.07.05-.14.02-.21-.01-.29-.05-.05-.02-.1-.05-.17-.06v.02h.01s.02.02.02.02h0s.01,0,.04.03l.14.13s.01,0,.02.01h0s-.08,0-.12-.02h0s-.06-.01-.06-.01l-.13.02s-.01,0-.02,0h-.01s.03.02.04.02h.05c.13.06.24.1.28.23l-.45-.14.27.21-.31-.05.12.14s-.07.03-.11.03c-.02,0-.05,0-.08.02.06.07.12.11.19.15.01,0,.02.02.04.02-.08.04-.1.04-.14.02h0s-.05-.01-.09-.02c.06.13.04.14-.01.16-.03,0-.06.02-.09.05l.17.12h-.01s-.02.02-.07.05c-.01,0-.06.02-.06.01l.15.2-.27-.07c0,.06-.01.1-.02.12,0,.03,0,.04,0,.05,0,.01.01.02.02.04h0s.03.05.06.09c-.24,0-.24,0-.23.03.01.02.02.06-.12.12l.12.09-.18.06.02.23c-.06.07-.08.06-.11.06-.02,0-.05,0-.1.05l-.31.36h0s-.01.02-.02.02l-.23.19c-.05.03-.08.04-.11.05-.04.01-.07.02-.12.08-.02.03-.03.04-.04.06ZM22.35,18.56h0s0,0,0,0h0ZM25.02,21.63s.05,0,.07,0v.03c-.17.12.11,0,0-.03v-.06c-.01-.17-.01-.36.05-.49l.09-.16s.03-.03.04-.03c.01,0,.02-.02.04-.04.14.13.14.4.15.62v.15s.01.11.01.13l.05.15c.04-1.01-.09-1.06-.28-1.14h0s-.07-.03-.11-.05v-.66c-.08-.06-.08-.06-.09-.05,0,0-.02.02-.09,0-.34-.12-.35-.25-.37-.42h0s-.03.01-.04.02c-.04.02-.06.04-.07.03-.01,0-.02-.02-.04-.04h0s-.04-.05-.07-.09l-.16-.12c-.13-.05-.19-.12-.24-.18h0s-.05-.05-.08-.07l-.31-.15s-.09-.03-.13-.04c-.11-.01-.24-.03-.43-.24-.21-.22-.21-.21-.26-.18-.03.02-.07.05-.17.05-.02,0-.05,0-.09-.01-.04,0-.09-.02-.14-.02l.28.11c-.12.09-.21.06-.31.03-.09-.02-.19-.05-.34-.03-.13.02-.23.04-.33.05-.3.03-.47.05-.83.47-.11.12-.22.44-.22.64.05.02.08.04.12.06h0c.12.07.13.07.43.05.29-.02.41.03.52.19v-.04h0c0-.06,0-.07.01-.07h0s.02,0,.03-.03c.06,0,.1-.02.13-.03.07-.02.08-.02.21.05.02.01.03.02.04.02t.11.04c.11.03.17.05.23.07h0c.08.03.13.05.27.05.21,0,.22-.02.23-.05.01-.02.02-.04.08-.06.08.07.12.14.15.21.02.06.05.12.11.18l.15-.12h.02s.01-.02.01-.02h0s.01-.02.02-.02c.04.04.07.07.1.1h0s.04.04.06.06c.01.02.03.03.04.04.01.01.02.02.04.05.05.05.08.12.11.18.07.15.13.28.36.13.01.06.05.14.1.24h0c.08.15.17.33.21.51-.03-.13,0-.15.03-.18h0s.02-.01.02-.02c.08.36.12.41.16.47.02.03.04.05.07.12.05.12.04.25.04.38h0c0,.11-.01.23.03.34.06-.1.07-.34.08-.55v-.19c.01-.1.01-.2.04-.3.01-.02.01-.03.02-.04h0s.01-.04.01-.04t0,0h.01s.01,0,.02,0ZM23.09,24.06c-.02.23-.06.25-.12.29-.04.02-.09.05-.16.16l-.17.18s-.01,0-.01,0h-.01s-.11.19-.11.19c-.05.07-.08.09-.12.11-.04.02-.08.05-.13.15-.03.06-.05.12-.07.18-.06.15-.1.28-.26.36.07.06.21.14.29.12.02,0,.03-.02.04-.03.02-.03.05-.06.2-.06l-.15-.18c.17.01.17.01.27-.02h0s.06-.02.11-.03l.1-.03s-.07-.04-.11-.06c-.07-.04-.14-.08-.21-.1.04-.03.03-.04.03-.05h0s.01,0,.03,0c.02,0,.05,0,.1.02.02,0,.04,0,.06.02.03.01.07.03.14.04l-.22-.2.38.1c-.04-.06-.08-.09-.11-.12-.03-.03-.06-.06-.09-.11.08.01.09.02.12.03.02,0,.04.02.08.04.04-.04.06-.07.07-.09h0s.02-.05.17-.05l-.02-.02-.02-.02s-.05-.05-.09-.12c.1,0,.26-.12.27-.15.05-.06.05-.11.05-.14,0-.05,0-.07.17-.11,0,0,.01,0,.01,0h0s.01,0,.02,0c-.02-.07-.02-.09-.01-.12,0-.03.01-.06,0-.14h0s.02,0,.02,0h.02c.06.02.13.04.19,0l-.18-.08s.01,0,.01,0c.01,0,.02,0,.02,0l.23-.16s.03-.02.03-.01c0,0,0,0,.02-.02.12-.12.06-.3.03-.38,0-.02-.01-.03-.01-.04,0-.03.01-.06.02-.09.02-.05.04-.12.03-.23-.15.18-.18.17-.21.15-.03-.02-.06-.03-.31.32h-.01s-.01.02-.01.02l-.18.28c-.13.22-.15.22-.18.21-.01,0-.03,0-.05,0h0ZM13.46,16.14c-.13-.04-.24-.08-.31-.18,0-.02,0-.03.02-.05h0s.02-.07.03-.09c.02-.02.06-.02.13-.03.06,0,.15-.01.26-.03l-.04.14c.13-.02.23.03.34.08h0c.09.05.19.1.33.11-.1.11-.05.14.11.24l.05.03.05.03s.04.02.05.03l.07.1c.06.07.08.05.08.05t.04.08c-.24.07-.35.13-.4.38l.32-.05c.03-.05.02-.08.01-.1-.01-.02-.01-.03.07-.06.09.09.17.23.1.41-.1.04-.36.06-.45,0-.03-.01-.04-.02-.05-.03-.03-.01-.04-.02-.05-.03-.01-.01-.02-.03-.03-.07,0-.02-.01-.05-.01-.08-.17-.68-.47-.78-.72-.86ZM12.53,16.8h0s0,.06.07.05c.03-.35.07-.38.18-.49.04-.03.08-.07.13-.13h.03s.03.01.03.02h0s.01.01.05.04l.04.03c.1.06.11.07.13.07,0,0,.01,0,.01,0,.01,0,.02,0,.03,0,.01,0,.02,0,.03,0h0s.07-.02.09-.02l.02.15.17-.06c.07.14.09.13.11.12.02-.01.04-.02.1.11.03.06.01.12,0,.19-.02.06-.03.12-.03.19.12.02.16,0,.2-.02.04-.02.08-.04.19-.03.18.46-.22.37-.45.23-.07-.05-.14-.1-.21-.15h0c-.11-.08-.22-.16-.37-.23l-.11.06s-.05.02-.05.02,0,0-.04.02c-.09.07-.09.11-.09.14,0,.05.01.1-.39.27.02-.1.04-.15.06-.19.02-.06.03-.1.03-.28.02-.03.03-.06.03-.07.01-.01.01-.02.01-.02ZM8.09,5.78c3-2.49,6.47-3.91,10.59-4.18,5.25-.35,10.31,1.71,13.93,5.32l1.09,1.21c4.23,5.06,5.42,12.12,2.94,18.35-.72,1.79-2.14,4.23-3.52,5.58-.1.1-.19.21-.29.31h0c-.08.09-.17.19-.26.28l-1.21,1.09c-2.91,2.43-6.58,3.95-10.58,4.19-5.82.35-11.39-2.14-15.03-6.53-2.46-2.96-3.93-6.51-4.19-10.57-.25-3.89.82-7.67,2.79-10.8.99-1.58,2.3-3.06,3.74-4.25ZM31.08,24.49h0s0,0,0,0ZM31.08,24.49l.3-.77c.19,0,1.12.38,1.98.73.61.25,1.18.48,1.43.56l.44-1.1.81.29-1.2,3.09-.81-.34.42-1.12c-.32-.08-3.24-1.23-3.37-1.34ZM32.11,19.88l1.93.18-.16,1.8c-.22,0-.55-.04-.89-.08-.42-.05-.85-.11-1.06-.07l-.08.86,4.46.43c.07-.15.08-.39.09-.6,0-.1,0-.19.02-.27l-1.65-.17c-.03-.16.1-1.61.15-1.79l1.68.14.08-.87-4.47-.44-.1.89h0ZM32.52,18.1l-.41.21.08.43c.3-.01,2.26-.45,2.44-.56l-.34-1.59-.77.16.16.77c-.7.03-1.22-.25-1.19-.98.02-.59.58-.91,1.11-1.07.6-.19,1.39-.11,1.68.28.15.2.27.53.17.84-.04.12-.14.24-.21.31l-.29.22s-.01,0-.01.01c0,0-.01,0-.01.01l.21.92c1.93-.49,1.62-3.86-1.04-3.64-.98.08-2.01.51-2.34,1.2-.23.46-.22,1-.05,1.51.16.52.42.7.63.84.07.04.13.08.18.13h0ZM30.74,14c.05.17.27.67.38.8l4.06-1.89-.37-.8-4.07,1.9h0ZM28.29,10.59c.07.15.45.59.59.71l2.83-1.46c-.06.15-.56.76-1.05,1.35-.42.51-.82,1-.92,1.16.09.18.34.45.51.64l.05.06c.17-.04.54-.23.81-.37h0c.09-.05.17-.09.23-.12l3.1-1.56-.54-.68c-.15.04-.42.2-.61.31h0s-.08.04-.11.06l-2.18,1.17,2.06-2.53c-.06-.11-.13-.19-.21-.29h0s-.03-.03-.03-.03l-.02-.02c-.05-.07-.1-.13-.15-.18h0c-.04-.06-.09-.11-.13-.17l-2.9,1.52c.02-.08,1.81-2.27,2.06-2.51-.05-.1-.46-.61-.56-.68l-2.83,3.62h0ZM24.59,8.17c.22.18,1.85,1.16,2.14,1.24,1.02.27,1.75-.74,2.09-1.29.43-.71.84-1.77.17-2.47-.24-.25-.87-.61-1.33-.88h0c-.08-.05-.15-.09-.21-.13-.06-.03-.12-.07-.17-.1h0c-.13-.08-.27-.17-.39-.22-.08.07-.17.22-.24.34h0s-.04.07-.06.1l-2,3.41h0ZM25.79,7.86s.01,0,.01,0c.01,0,.02,0,.02.02,0,.01.01.02.02.02h0s.52.32.52.32c.69.41,1.04.42,1.67-.6.5-.8.56-1.3-.22-1.76-.03-.02-.08-.05-.12-.08h0c-.16-.1-.37-.23-.5-.26l-1.4,2.34h0ZM20.31,4.7h0c-.65-1.3.24-2,1.18-1.76,1.11.27,1.01,1.71.02,2,.05.15.13.26.2.37h0s.06.08.09.13l.04.06c.03.06.06.11.11.18l.15.2c.18-.19.27-.36.34-.49.05-.08.09-.15.13-.19.05.04.09.07.14.11h0c.11.08.23.17.3.27-.05.17-.15.36-.23.51-.05.07-.1.13-.14.19-.06.07-.11.14-.15.21.08.17.2.36.33.54.14.2.28.41.35.59-1.04,0-1.11-.14-1.21-.34-.03-.06-.06-.12-.12-.18-.07.02-.14.07-.22.12-.09.06-.2.13-.33.18-1.23.47-2.42-.57-1.85-1.94.16-.41.44-.59.87-.76h0s0,0,0,0ZM21.1,4.46c.49-.15.61-.78.21-.88-.25-.06-.42.08-.43.31-.03.27.09.43.22.57ZM21.46,6.48h0s0,0,0,0ZM21.46,6.48l-.72-1.15v-.02s-.03-.02-.03-.03h-.01s-.01-.02-.01-.02h-.02c-.37.17-.65.63-.39,1.13.21.4.83.43,1.18.08ZM15.07,3.5l.55,1.6-1.68.6c-.09-.13-.19-.45-.3-.77h0c-.11-.33-.21-.66-.31-.79l-.81.27,1.5,4.25.83-.29-.65-1.85,1.73-.59.63,1.82c.26-.03.65-.16.84-.3-.1-.38-.54-1.59-.92-2.63h0c-.19-.51-.36-.99-.47-1.3l-.11-.25s-.01-.02-.02-.03l-.81.28h0ZM12.9,7.3h0s0,0,0,0h0ZM12.9,7.3c-.14.06-.27.17-.39.28h0c-.13.11-.26.21-.39.27.17.44.46,1.21-.39,1.52-.97.35-2.33-1.49-1.8-2.32.12-.2.41-.4.72-.41.34,0,.58.18.77.34l.05.04c.12-.07.23-.16.34-.24h0c.14-.11.28-.23.41-.28-.08-.18-.35-.39-.54-.52-.83-.53-1.63-.24-2.26.31-.99.86-.59,2.06.09,2.93.56.72,1.5,1.62,2.77.87.36-.21.79-.65.94-1.13.18-.62-.01-1.02-.22-1.44-.03-.07-.07-.14-.1-.21ZM5.25,11.15s0,0,.01,0c0,0,.01,0,.01.02l3.61,2.6c.17-.18.37-.47.51-.68h0c-.07-.11-.34-.29-.63-.49h0c-.27-.19-.55-.38-.67-.51.1-.15.19-.29.29-.42h0c.04-.06.08-.11.12-.17.02-.03.04-.06.06-.09h0c.12-.18.25-.38.49-.37.24.01.44.16.66.32.21.16.43.32.7.35.05-.13.16-.27.26-.41.09-.11.18-.23.24-.34-.08-.05-.17-.08-.27-.12-.09-.04-.19-.07-.26-.12-.09-.06-.18-.12-.28-.18-.4-.28-.84-.58-1.3-.4.03-1-1.31-1.74-2.02-1.1-.12.11-.22.25-.33.4h0s-.05.07-.07.1l-1.13,1.6h0ZM6.48,10.93h0s0,0,0,0ZM6.77,11.17c-.11-.08-.21-.15-.29-.24.08-.16.22-.34.35-.52.06-.08.12-.17.17-.24.22-.32.44-.47.84-.18.32.24.35.49.08.84-.07.09-.13.18-.2.28h0c-.11.16-.22.33-.35.47l-.46-.31s-.09-.07-.14-.1h0ZM3.07,18.25l1.66.05c.05.19.02.86-.01,1.35h0c-.01.19-.01.36-.01.46l-1.7-.04-.02.89,4.51.13c0-.08.01-.17.01-.27.01-.22.03-.45-.02-.62l-1.92-.05.05-1.8,1.96.03.02-.88-4.5-.14-.03.89h0ZM5.82,21.65l.26.92h.02c.32,0,.64-.02.88.16.58.43.58,1.42-.83,1.85-2.05.62-2.23-1.35-1.09-1.67-.04-.27-.15-.74-.28-.93-.47.13-.95.54-1.14.9-.27.5-.19,1.19.02,1.7.46,1.09,1.45,1.3,2.79.9,2.61-.77,1.84-2.91,1.03-3.55-.37-.29-1.08-.43-1.66-.27h0ZM4.21,13.41h0s0,0,0,0ZM4.21,13.41c.4.12.81.26,1.21.41.27.09.53.19.79.27.05.02.1.03.16.05.63.2,1.41.45,1.14,1.25-.29.88-1.38.45-2.43.02-.51-.21-1.01-.41-1.41-.45l-.27.8c.19.13,1.36.51,2.11.75h0c.24.08.44.14.54.18,1.21.42,1.91.04,2.26-.98.6-1.72-.6-2.1-1.96-2.54h0c-.17-.05-.33-.11-.5-.16-.11-.04-.23-.08-.35-.13-.35-.13-.75-.27-1.02-.32l-.27.84ZM12,32.64h0s0,0,0,0ZM12,32.64c-.12-.07-.25-.17-.38-.27-.09-.07-.18-.14-.28-.21-.02.02-.06.04-.1.07-.28.19-.79.54-1.26-.07-.45-.59.32-1.6.78-1.91.59-.4,1.14-.16,1.3.31.09.27.03.45-.05.64h0c-.02.07-.05.13-.07.21.13.12.52.45.67.51.03-.07.06-.14.1-.21h0c.18-.35.37-.72.2-1.27-.15-.46-.51-.79-.86-1-1.55-.94-2.91,1.1-3.06,2.02-.17,1.07.95,1.91,1.79,1.87.52-.02,1.03-.37,1.22-.69ZM12.4,33.44c.08-.84.68-2.14,1.7-2.31h0c.59-.1,1.16.17,1.53.44,1.28.9.24,3.53-1.09,3.77-.58.1-1.24-.17-1.58-.45-.37-.31-.62-.71-.56-1.44ZM13.45,34.22c-.5-.66.08-2.05.84-2.27h0c.71-.2,1.17.45,1.03,1.19-.11.6-.49,1.22-.97,1.36-.38.12-.75-.08-.9-.28ZM25.16,34.28l-.75-2.65h0l.73-.19,1.11,3.84-.83.22c-.12-.11-.44-.42-.8-.78h0c-.61-.6-1.34-1.33-1.46-1.39l.75,2.63-.73.2-1.11-3.84.85-.25c.14.1.69.66,1.21,1.19h0c.46.46.9.9,1.03,1.02ZM28.71,32.17l.73-.43h0c.03.07.05.14.07.21h0c.15.43.28.81.04,1.33-.18.38-.56.72-.97.89-1.21.51-1.92-.41-2.33-1.09-1.31-2.13.68-3.15,1.64-2.93.41.09.89.51,1.01.78-.1.11-.58.4-.71.43-.03-.03-.07-.06-.1-.09-.14-.14-.28-.28-.55-.31-.31-.03-.6.14-.71.3-.52.72.52,2.47,1.42,2.2.23-.07.45-.27.52-.48.09-.24.04-.4-.01-.58-.02-.07-.04-.15-.05-.23ZM21.35,36.34l-.39-3.95h0s.1-.04.1-.04h.04s.01-.01.04-.02l.57-.04c.07.16.42,3.6.42,3.98l-.78.07ZM21.11,32.34s-.01,0-.01,0c.02,0,.02,0,.01,0ZM17.89,36.24l.35.06c-.03.33-.14.49-.42.57l-.04.4c.82-.08,1.02-1.04.98-1.89l-.78-.09-.09.93ZM16.9,36.1l-.76-.16.22-.93.76.15-.22.95ZM30.42,31.85h0c.05.06.11.11.16.18.03.04.06.07.08.1.07.09.12.14.25.25.17-.11.43-.34.57-.5l-.63-.71c-.06.07-.15.14-.24.22-.12.1-.24.2-.33.32h0c.04.05.09.1.14.16h0ZM30.9,19.71c0,6.12-4.96,11.07-11.08,11.07s-11.07-4.96-11.07-11.07,4.96-11.07,11.07-11.07,11.08,4.96,11.08,11.07Z"/>
</svg>