<svg xmlns="http://www.w3.org/2000/svg" fill="none" viewBox="0 0 256 256">
	<path d="m211.13 256-29.983-10.258 5.209-14.76c12.038-34.213 23.599-90.88 11.593-109.738-2.065-3.252-4.574-4.785-8.639-5.254-11.371-1.188-24.68 31.68-33.478 53.54-13.912 34.494-28.269 70.114-58.602 70.114H95.8c-11.593-.438-21.788-5.316-29.538-14.167-5.082-5.816-9.148-13.353-12.102-22.641a83.308 83.308 0 0 1-14.674 2.595l-15.818 1.314L21 175.597l15.818-1.314a47.469 47.469 0 0 0 11.752-2.502 285.572 285.572 0 0 1-.35-5.66c-.825-17.482.604-32.305.858-34.807.794-11.227 8.036-97.384 44.595-123.247 10.767-7.631 23.313-9.914 36.209-6.568 10.354 2.69 18.359 9.507 22.52 19.17 7.114 16.576 3.271 42.157-11.721 78.184-9.243 22.203-19.661 40.999-21.852 44.876-2.287 5.004-13.722 28.209-35.829 44.752 1.684 7.006 4.066 12.885 7.274 16.544 2.001 2.251 3.907 3.221 6.67 3.315h.127c8.894 0 22.107-32.743 29.222-50.381 14.579-36.183 31.159-77.245 66.733-73.054 13.626 1.595 24.616 8.412 31.826 19.702 11.276 17.732 12.959 45.69 5.145 85.501-5.367 27.364-13.34 50.13-13.689 51.1l-5.209 14.761.031.031ZM118.447 31.271c-2.223 0-4.16.72-6.257 2.19-17.787 12.571-29.094 66.205-31.477 100.261 0 .219-.031.438-.063.657-.445 3.94-.73 8.35-.89 13.009 6.734-8.912 10.196-16.606 10.26-16.793.222-.501.508-1.063.762-1.533 20.328-35.526 38.179-82.655 32.366-96.227-.317-.782-.381-.844-1.334-1.095-1.207-.312-2.318-.469-3.367-.469Z"/>
	<style>
        path { fill: #181516; }
        @media (prefers-color-scheme: dark) {
            path { fill: #FCF8EC; }
        }
    </style>
</svg>