<svg width="523" height="372" viewBox="0 0 523 372" fill="none" xmlns="http://www.w3.org/2000/svg">
<path d="M522.205 69.5091C486.634 41.1335 445.174 19.9731 401.28 7.86536C386.546 3.99881 371.396 1.28035 355.98 0.953739C340.474 0.696409 324.325 2.83752 310.812 11.2469C288.645 25.1857 283.33 51.3443 291.38 75.0351C306.665 121.19 360.664 168.073 406.809 181.801C420.471 185.565 443.733 188.851 454.102 176.941C460.805 168.881 455.919 158.008 449.796 151.538C434.488 135.155 409.32 125.528 388.321 118.86C366.062 112.391 340.088 109.29 318.043 119.246C304.906 125.125 295.072 137.022 292.729 151.36C291.179 159.726 292.036 168.426 293.986 176.641C302.521 206.584 316.74 248.914 306.374 278.999C302.567 289.721 294.725 297.527 284.366 302.301C283.812 302.601 282.822 303.049 282.225 303.267C280.912 303.795 279.035 304.61 277.685 305.016C275.993 305.567 272.077 306.982 270.388 307.358C267.996 307.883 265.409 308.806 263.008 309.163L258.059 310.119C253.275 310.717 247.901 311.324 243.101 311.188C194.825 310.684 158.33 274.162 121.413 246.912C108.402 237.443 93.3412 227.668 76.4597 227.117C57.1566 226.147 40.9547 238.242 36.1644 256.958C28.4412 286.076 47.3319 323.088 65.533 345.166C74.6418 355.918 89.9695 371.057 104.829 371.928C109.626 372.143 114.267 369.586 116.056 364.997C120.635 352.82 108.576 339.01 100.398 331.22C88.993 320.818 75.1499 311.957 59.5683 310.047C36.1083 306.936 13.5854 320.795 0.603394 339.587C0.464783 339.782 0.510986 340.049 0.705627 340.187C0.893677 340.319 1.1543 340.28 1.2962 340.098C5.87201 334.13 11.2496 328.782 17.3167 324.428C29.2561 315.761 44.4319 311.06 59.0635 313.587C66.2951 314.692 73.1408 317.622 79.3827 321.412C90.2005 328.109 100.071 336.944 106.712 347.841C109.174 352.186 111.938 358.319 109.612 362.701C105.508 369.18 91.3716 358.854 87.4226 355.373C70.9271 341.095 59.1921 321.551 51.8055 301.139C47.1966 288.217 44.3066 273.796 48.2853 260.435C55.0485 238.869 76.6444 237.341 93.9647 247.588C106.33 254.797 117.461 264.852 128.417 274.443C151.534 294.897 176.06 316.744 205.824 327.727C229.749 336.776 255.499 337.476 279.955 329.848C281.077 329.505 286.332 327.697 287.329 327.384C289.067 326.75 291.667 325.559 293.389 324.866C295.698 323.629 298.625 322.369 300.799 320.898L303.689 319.1L306.477 317.054C328.887 300.258 333.47 273.984 329.709 247.839C326.034 221.76 316.027 197.336 307.575 172.966C305.965 167.387 304.87 161.561 305.249 155.748C306.952 126.574 340.517 120.536 364.32 123.357C375.164 124.479 386.084 127.23 396.437 130.777C406.891 134.333 417.284 138.586 426.835 144.016C434.911 148.592 452.409 160.383 448.978 170.528C447.546 173.688 444.257 175.272 440.414 176.387C437.213 177.255 433.71 177.604 430.173 177.621C395.328 177.377 358.543 151.343 334.417 127.653C314.771 107.61 294.323 80.9537 294.326 51.8127C294.481 37.5903 302.006 23.8924 313.975 16.222C338.808 0.848167 372.963 5.77703 400.184 12.1146C429.385 19.2671 457.411 31.0581 483.718 45.6005C496.891 52.9245 509.606 61.1063 521.661 70.1954C521.849 70.3405 522.119 70.3009 522.264 70.1129C522.406 69.9281 522.37 69.6642 522.192 69.519L522.205 69.5091Z" fill="#FF6D39"/>
</svg>
