<svg width="90" height="90" viewBox="0 0 90 90" fill="none" xmlns="http://www.w3.org/2000/svg">
<path fill-rule="evenodd" clip-rule="evenodd" d="M46.1354 12.4747H6.48597C4.33671 12.4747 2.59439 14.5059 2.59439 17.0116V35.1871C2.59439 37.6928 4.33671 39.724 6.48597 39.724H46.1354C48.2847 39.724 50.027 37.6928 50.027 35.1871V17.0116C50.027 14.5059 48.2847 12.4747 46.1354 12.4747ZM6.48597 9.45004C2.90387 9.45004 0 12.8355 0 17.0116V35.1871C0 39.3632 2.90386 42.7487 6.48597 42.7487H46.1354C49.7175 42.7487 52.6214 39.3632 52.6214 35.1871V17.0116C52.6214 12.8355 49.7175 9.45004 46.1354 9.45004H6.48597ZM83.3011 50.491H44.0308C41.9021 50.491 40.1765 52.5078 40.1765 54.9957V73.0421C40.1765 73.2219 40.1855 73.3992 40.203 73.5735L45.6182 67.3067L45.6734 67.2548C46.6481 66.3386 47.9788 65.6619 49.6501 65.9291C51.2196 66.1801 52.7997 67.2244 54.4541 68.997C55.1101 69.6999 55.6471 70.0044 56.0431 70.127C56.4212 70.244 56.7623 70.2245 57.1055 70.1095C57.8822 69.8493 58.6529 69.1069 59.3433 68.2445L59.3543 68.2307L67.4331 58.6198C68.0046 57.8728 69.0618 56.9535 70.4803 56.6718C72.0517 56.3597 73.7358 56.8929 75.2492 58.5439C76.3501 59.7449 78.9228 62.8787 81.6535 66.2048L82.0918 66.7386L82.8669 67.6823C84.6342 69.833 85.7434 71.4939 86.5912 72.7634C86.7825 73.0499 86.9606 73.3165 87.1298 73.5642C87.1468 73.3929 87.1554 73.2187 87.1554 73.0421V54.9957C87.1554 52.5078 85.4298 50.491 83.3011 50.491ZM85.9774 76.2838C85.3942 75.5803 84.7215 74.7264 83.9445 73.7398C82.9928 72.5316 81.8845 71.1244 80.592 69.5516C80.1867 69.0583 79.7827 68.5663 79.3838 68.0804C76.6308 64.7275 74.12 61.6694 73.0787 60.5335C72.1369 59.5061 71.4494 59.4812 71.0538 59.5598C70.5279 59.6642 70.0338 60.0591 69.7616 60.4221L69.7371 60.4547L61.6306 70.0986C60.8961 71.0143 59.676 72.3535 58.0409 72.9014C57.1739 73.1919 56.1986 73.2574 55.1723 72.9396C54.1637 72.6274 53.2081 71.9772 52.3016 71.006C50.8312 69.4306 49.8095 68.9364 49.1852 68.8366C48.6801 68.7558 48.238 68.9031 47.7411 69.353L41.557 76.4967C42.2264 77.1522 43.0892 77.5468 44.0308 77.5468H83.3011C84.3407 77.5468 85.2841 77.0658 85.9774 76.2838ZM39.7246 78.6134C40.8639 79.817 42.3741 80.55 44.0308 80.55H83.3011C86.8489 80.55 89.725 77.1886 89.725 73.0421V54.9957C89.725 50.8493 86.8489 47.4879 83.3011 47.4879H44.0308C40.483 47.4879 37.6069 50.8492 37.6069 54.9957V73.0421C37.6069 75.2088 38.3922 77.1611 39.6483 78.5315L39.7035 78.6378L39.7246 78.6134ZM56.5995 60.5266C57.7166 60.5266 58.6221 59.6211 58.6221 58.5041C58.6221 57.387 57.7166 56.4815 56.5995 56.4815C55.4825 56.4815 54.577 57.387 54.577 58.5041C54.577 59.6211 55.4825 60.5266 56.5995 60.5266ZM56.5995 63.471C59.3427 63.471 61.5665 61.2472 61.5665 58.5041C61.5665 55.7609 59.3427 53.5371 56.5995 53.5371C53.8564 53.5371 51.6326 55.7609 51.6326 58.5041C51.6326 61.2472 53.8564 63.471 56.5995 63.471ZM64.6709 12.4747H82.364C84.8033 12.4747 86.7806 14.506 86.7806 17.0116V35.1871C86.7806 37.6928 84.8033 39.724 82.3641 39.724H64.6709C62.2317 39.724 60.2543 37.6928 60.2543 35.1871V17.0116C60.2543 14.5059 62.2317 12.4747 64.6709 12.4747ZM57.31 17.0116C57.31 12.8355 60.6056 9.45004 64.6709 9.45004H82.364C86.4294 9.45004 89.725 12.8355 89.725 17.0116V35.1871C89.725 39.3632 86.4294 42.7487 82.3641 42.7487H64.6709C60.6056 42.7487 57.31 39.3632 57.31 35.1871V17.0116ZM25.0541 50.491H7.36097C4.92175 50.491 2.94439 52.5078 2.94439 54.9957V73.0421C2.94439 75.53 4.92176 77.5468 7.36098 77.5468H25.0541C27.4933 77.5468 29.4707 75.53 29.4707 73.0421V54.9957C29.4707 52.5079 27.4933 50.491 25.0541 50.491ZM7.36097 47.4879C3.29562 47.4879 0 50.8492 0 54.9957V73.0421C0 77.1886 3.29563 80.55 7.36098 80.55H25.0541C29.1195 80.55 32.4151 77.1886 32.4151 73.0421V54.9957C32.4151 50.8493 29.1194 47.4879 25.0541 47.4879H7.36097ZM65.672 17.4638C64.8589 17.4638 64.1998 18.1229 64.1998 18.936C64.1998 19.749 64.8589 20.4081 65.672 20.4081H80.7893C81.6023 20.4081 82.2615 19.749 82.2615 18.936C82.2615 18.1229 81.6023 17.4638 80.7893 17.4638H65.672ZM64.1998 25.2576C64.1998 24.4445 64.8589 23.7854 65.672 23.7854H80.7893C81.6023 23.7854 82.2615 24.4445 82.2615 25.2576C82.2615 26.0706 81.6023 26.7298 80.7893 26.7298H65.672C64.8589 26.7298 64.1998 26.0706 64.1998 25.2576ZM65.672 30.6724C64.8589 30.6724 64.1998 31.3315 64.1998 32.1446C64.1998 32.9577 64.8589 33.6168 65.672 33.6168H80.7893C81.6023 33.6168 82.2615 32.9577 82.2615 32.1446C82.2615 31.3315 81.6023 30.6724 80.7893 30.6724H65.672ZM7.51349 25.0936C7.51349 24.2805 8.09451 23.6214 8.81124 23.6214H28.2105C28.9273 23.6214 29.5083 24.2805 29.5083 25.0936C29.5083 25.9066 28.9273 26.5658 28.2105 26.5658H8.81124C8.09451 26.5658 7.51349 25.9066 7.51349 25.0936ZM39.7191 21.3366C39.7191 22.7035 38.6111 23.8116 37.2442 23.8116C35.8773 23.8116 34.7693 22.7035 34.7693 21.3366C34.7693 19.9698 35.8773 18.8617 37.2442 18.8617C38.6111 18.8617 39.7191 19.9698 39.7191 21.3366ZM42.6635 21.3366C42.6635 22.4668 42.3176 23.5161 41.7258 24.3845L44.9914 28.4073C45.5038 29.0386 45.4075 29.9657 44.7763 30.4782C44.145 30.9906 43.2178 30.8943 42.7054 30.263L39.4711 26.2788C38.7918 26.5853 38.0379 26.756 37.2442 26.756C34.2512 26.756 31.8249 24.3296 31.8249 21.3366C31.8249 18.3436 34.2512 15.9173 37.2442 15.9173C40.2372 15.9173 42.6635 18.3436 42.6635 21.3366ZM12.2089 56.4503C11.7767 56.2234 11.2574 56.2391 10.8397 56.4915C10.422 56.744 10.1668 57.1965 10.1668 57.6846V69.7807C10.1668 70.283 10.4369 70.7464 10.874 70.9939C11.311 71.2413 11.8474 71.2345 12.2781 70.9761L23.0302 64.5249C23.4622 64.2656 23.7208 63.7934 23.7065 63.2898C23.6921 62.7861 23.4071 62.3294 22.9609 62.0951L12.2089 56.4503ZM12.9549 67.3185V59.9911L19.4682 63.4105L12.9549 67.3185Z" fill="url(#paint0_linear_2953_3180)"/>
<defs>
<linearGradient id="paint0_linear_2953_3180" x1="61.8688" y1="24.4178" x2="68.4444" y2="94.5587" gradientUnits="userSpaceOnUse">
<stop stop-color="#FF784A"/>
<stop offset="1" stop-color="#5F61C6"/>
</linearGradient>
</defs>
</svg>
