<svg xmlns="http://www.w3.org/2000/svg" fill="none" viewBox="0 0 327 306"><g clip-path="url(#a)"><path fill="#000" stroke="#000" stroke-linecap="round" stroke-linejoin="round" d="M.508 120.148v27.7c0 4.265 3.648 7.622 7.898 7.255l41.964-3.592a7.202 7.202 0 0 0 6.584-7.176v-22.538c0-3.86-3.04-7.033-6.898-7.197l-41.97-1.74a7.28 7.28 0 0 0-7.578 7.275v.013Z"/><path stroke="#000" stroke-miterlimit="10" d="M244.451 54.063V230.09a15.48 15.48 0 0 1-10.141 14.531L72.68 303.978c-3.244 1.19-6.552 1.066-9.436-.04l-.058-.026-.811-.346-.085-.04a13.695 13.695 0 0 1-5.48-4.684 13.357 13.357 0 0 1-1.81-3.938 13.655 13.655 0 0 1-.484-3.618V21.215l176.106 30.46 13.835 2.389h-.006Z"/><path fill="#000" stroke="#000" stroke-linecap="round" stroke-linejoin="round" d="M49.388 298.084c-4.858-1.963-8.474-6.699-8.474-12.548V18.802c0-4.26 2.25-7.89 5.545-9.931l.032-.02c.641-.393 1.315-.733 2.02-1.001l12.077-5.954a11.677 11.677 0 0 0-5.106 5.581 11.582 11.582 0 0 0-.968 4.665V291.28c0 1.269.17 2.48.484 3.618a13.346 13.346 0 0 0 1.811 3.938 13.698 13.698 0 0 0 5.48 4.685l-12.895-5.45-.006.013ZM104.149 218.968v.013a9.007 9.007 0 0 0-2.413-.556c-.105-.013-.222-.013-.333-.013-1.432-.092-2.838.151-4.205.707-6.747 2.662-12.377 12.397-13.482 24.442-.909 10.061 1.596 19.109 6.035 24.068a14.832 14.832 0 0 0 1.818 1.715 10.82 10.82 0 0 0 2.543 1.491l-4.76-1.877-1.451-.583-.092-.032h-.013c-6.689-3.337-10.893-14.374-9.755-26.987 1.32-14.668 9.389-25.921 18.013-25.142a9.152 9.152 0 0 1 2.374.53l.104.046.458.176 5.152 1.996.007.006Z"/><path fill="#FFDD4F" stroke="#000" stroke-linecap="round" stroke-linejoin="round" d="M114.948 246.406c-1.321 14.668-9.389 25.92-18.013 25.142a9.828 9.828 0 0 1-2.459-.569v-.013s-.059-.014-.085-.027l-.275-.104c-.889-.367-1.739-.864-2.543-1.492a13.93 13.93 0 0 1-1.818-1.714c-4.44-4.953-6.944-14.007-6.035-24.069 1.099-12.044 6.735-21.786 13.483-24.442 1.373-.556 2.778-.805 4.204-.706.104 0 .222 0 .333.013a9.022 9.022 0 0 1 2.413.556c7.277 2.649 11.991 14.157 10.795 27.425Z"/><path fill="#FFFDF6" stroke="#000" stroke-linecap="round" stroke-linejoin="round" d="M244.451 47.313v6.745l-13.836-2.388-176.1-30.455v-9.067c0-1.668.347-3.245.968-4.665a11.71 11.71 0 0 1 5.107-5.58l.804-.4a11.516 11.516 0 0 1 7.199-.778L235.238 35.95a11.622 11.622 0 0 1 9.219 11.37l-.006-.007Z"/><path fill="#FF6D39" d="M45.878 94.01c19.112-15.256 41.388-26.633 64.979-33.143 7.918-2.08 16.058-3.539 24.343-3.716 8.33-.137 17.006 1.014 24.27 5.535 11.913 7.497 14.764 21.557 10.442 34.295-8.212 24.814-37.23 50.022-62.023 57.401-7.343 2.022-19.838 3.788-25.409-2.61-3.603-4.331-.974-10.18 2.315-13.66 8.225-8.806 21.747-13.981 33.032-17.566 11.959-3.481 25.918-5.142 37.759.209 7.062 3.16 12.345 9.558 13.6 17.265.831 4.501.373 9.179-.673 13.595-4.584 16.1-12.227 38.854-6.656 55.027 2.046 5.764 6.257 9.964 11.821 12.528.301.164.831.399 1.151.517.706.281 1.713.72 2.439.942.909.295 3.014 1.06 3.923 1.263 1.282.281 2.674.778 3.962.968l2.661.517c2.57.321 5.46.648 8.036.576 25.938-.269 45.547-19.908 65.385-34.557 6.989-5.089 15.084-10.349 24.153-10.644 10.369-.523 19.079 5.98 21.648 16.042 4.152 15.655-6.002 35.55-15.777 47.425-4.897 5.783-13.129 13.922-21.113 14.386-2.576.118-5.073-1.256-6.035-3.729-2.458-6.549 4.022-13.968 8.415-18.161 6.127-5.594 13.568-10.357 21.937-11.384 12.606-1.675 24.709 5.777 31.685 15.878a.236.236 0 0 1-.052.321.226.226 0 0 1-.314-.046c-2.458-3.212-5.348-6.084-8.605-8.426-6.414-4.659-14.567-7.19-22.433-5.83-3.884.596-7.565 2.172-10.919 4.207-5.813 3.598-11.116 8.348-14.686 14.21-1.32 2.335-2.804 5.633-1.556 7.988 2.204 3.48 9.801-2.067 11.92-3.938 8.866-7.675 15.169-18.181 19.138-29.159 2.478-6.948 4.028-14.701 1.89-21.884-3.636-11.593-15.242-12.417-24.546-6.909-6.643 3.873-12.625 9.284-18.51 14.439-12.423 10.998-25.598 22.741-41.591 28.649-12.855 4.867-26.69 5.24-39.832 1.138-.602-.183-3.426-1.158-3.963-1.328-.935-.34-2.327-.982-3.256-1.354-1.242-.668-2.811-1.342-3.982-2.133l-1.556-.968-1.497-1.1c-12.044-9.028-14.502-23.153-12.482-37.212 1.975-14.02 7.349-27.15 11.893-40.254.864-3.003 1.452-6.131 1.249-9.258-.915-15.688-18.948-18.933-31.737-17.415-5.826.602-11.691 2.08-17.255 3.991-5.617 1.91-11.201 4.2-16.333 7.118-4.342 2.459-13.744 8.799-11.9 14.255.771 1.701 2.537 2.552 4.603 3.147 1.72.464 3.603.654 5.499.661 18.719-.131 38.485-14.125 51.451-26.863 10.553-10.775 21.544-25.109 21.537-40.771-.085-7.648-4.125-15.008-10.559-19.136-13.345-8.263-31.699-5.614-46.319-2.205-15.692 3.847-30.75 10.186-44.886 18.004-7.081 3.939-13.907 8.335-20.387 13.222a.231.231 0 0 1-.327-.046.229.229 0 0 1 .04-.32l-.007.006Z"/><path fill="#E0A07C" stroke="#000" stroke-linecap="round" stroke-linejoin="round" d="M80.418 166.434H73.61a2.61 2.61 0 0 0-2.589 2.944 5.246 5.246 0 0 0 5.211 4.58c6.14-.013 16.726-.105 21.074-.628l-16.89-6.902v.006Z"/><path fill="#fff" stroke="#000" stroke-linecap="round" stroke-linejoin="round" d="M107.326 93.33c-.85-1.23-2.465-2.538-4.662-2.185-3.746.596-7.61 4.816-8.899 9.382-1.177 4.174-3.51 9.277-6.094 14.131-2.157 4.056-4.256 12.849-.013 15.231-2.471-1.008-5.681-3.226-5.681-9.212 0-6.902 6.898-13.503 8.846-22.204 1.432-6.386 5.774-8.734 7.984-9.526a4.056 4.056 0 0 1 2.778.007c1.184.431 2.962 1.34 4.839 3.219.307.307.608.7.896 1.17l.006-.013Z"/><path fill="#fff" stroke="#000" stroke-linecap="round" stroke-linejoin="round" d="m113.774 113.677-15.902 13.542s-5.407 4.285-9.147 3.055c-.32-.104-.68-.228-1.053-.386 0 0-.006 0-.013-.006-4.243-2.375-2.144-11.174.013-15.23 2.583-4.855 4.917-9.951 6.094-14.132 1.288-4.566 5.146-8.78 8.899-9.381 2.197-.354 3.805.955 4.662 2.185 0 .013.013.026.019.032.151.243.301.51.445.792 2.55 4.92 4.322 15.106 5.989 19.522l-.006.007Z"/><path stroke="#000" stroke-linecap="round" stroke-linejoin="round" d="M98.429 119.015s-1.184-3.65-1.929-4.619"/><path fill="#000" stroke="#000" stroke-linecap="round" stroke-linejoin="round" d="M110.051 110.727c-4.74 1.347-11.043 4.507-12.528 5.789l.347.923 7.63-2.264 4.551-4.448Z"/><path fill="#fff" stroke="#000" stroke-linecap="round" stroke-linejoin="round" d="m147.94 112.663-9.454 1.76-.889-5.247a7.005 7.005 0 0 0-4.342-5.345l-.811-.314c-1.935-.759-3.452-2.368-3.969-4.383-.241-.942-.248-1.852.327-2.349-.928.968 3.224 2.872 6.173 3.167 3.151.314 7.342 1.177 9.487.935 2.23-.255 2.655-.674 1.988-1.557 1.137 1.348.778 3.572.568 6.026-.209 2.453.929 7.314.929 7.314l-.007-.007Z"/><path fill="#FF6D39" stroke="#000" stroke-miterlimit="10" d="M146.445 99.316c.053.066.092.125.131.19-.046-.059-.078-.13-.131-.19Z"/><path fill="#fff" d="M147.202 101.403c-.314.308-1.23.942-2.694 1.158-2.066.308-5.937-.523-8.468-.811-2.295-.262-5.91-1.047-7.565-2.63-.071-.183.053.19 0 0-.241-.942-.248-1.851.327-2.349-.928.969 3.224 2.873 6.173 3.167 3.151.314 7.342 1.178 9.487.935 2.066-.235 2.583-.614 2.118-1.367.373.53.563 1.165.628 1.897h-.006Z"/><path stroke="#000" stroke-miterlimit="10" d="M128.475 99.12c1.655 1.583 5.27 2.368 7.565 2.63 2.531.288 6.402 1.119 8.468.811 1.464-.216 2.38-.85 2.694-1.158h.006c-.065-.732-.255-1.367-.628-1.897.465.753-.052 1.132-2.118 1.367-2.145.243-6.336-.621-9.487-.935-2.949-.294-7.101-2.198-6.173-3.166-.575.497-.568 1.406-.327 2.348Zm0 0c-.071-.183.053.19 0 0Z"/><path fill="#000" stroke="#000" stroke-miterlimit="10" d="M144.456 100.873c-2.373.249-6.329-.621-9.487-.935-2.943-.294-7.101-2.198-6.173-3.166a.407.407 0 0 1 .092-.086c.052-.039.118-.078.183-.11 2.171-1.14 7.133 1.19 9.716 1.707 2.583.51 6.512-.308 7.65 1.033.608.642.15 1.329-1.988 1.557h.007Z"/><path fill="url(#b)" stroke="#000" stroke-miterlimit="10" d="M193.919 139.041s-4.374 4.586-7.937 8.734l-41.036-3.939-.241-.229a10.65 10.65 0 0 1-3.021-5.174l-5.813-23.396s1.406-2.63 5.904-4.749c4.499-2.12 9.847 0 9.847 0l4.178 18.809a8.526 8.526 0 0 0 7.415 6.634l30.691 3.303.013.007Z"/><path fill="url(#c)" stroke="#000" stroke-miterlimit="10" d="M185.988 147.769c-1.164 1.361-2.243 2.669-3.047 3.755-3.269 4.397-11.011 26.843-11.011 26.843l-50.895-12.469a16.477 16.477 0 0 1-10.546-8.126l-18.02-33.097s3.217-7.694 12.612-12.11c9.403-4.409 16.248-2.283 16.248-2.283l10.802 28.243a7.323 7.323 0 0 0 6.126 4.665l6.702.641 41.036 3.938h-.007Z"/><path fill="#FF6D39" stroke="#000" stroke-miterlimit="10" d="M169.523 163.87c.262-15.106.942-31.508 28.299-35.983 27.357-4.475 25.918 17.462 25.918 17.462l-30.985 19.698-23.232-1.184v.007Z"/><path fill="#E0A07C" stroke="#000" stroke-linecap="round" stroke-linejoin="round" d="M192.039 153.813c-12.011 1.865-20.812 3.553-29.443 5.077s-34.516 9.31-41.964 9.99c-7.447.68-26.735-2.879-34.353-5.587-4.511-1.603-8.01-2.499-10.114-2.957a2.299 2.299 0 0 0-2.734 1.734 4.56 4.56 0 0 0 2.727 5.24c4.171 1.688 11.154 4.416 16.379 5.973 7.95 2.368 11.952 5.09 11.677 7.785-.281 2.761-6.466 2.473-11.141 3.356-2.158.406-3.511 2.513-3.014 4.652.601 2.604 3.197 4.246 5.8 3.657 2.098-.478 4.498-.929 6.322-1.001 4.06-.17 9.304.68 15.228-.844 3.289-.844 6.427-2.375 8.565-3.565a16.4 16.4 0 0 1 6.552-2.015c7.905-.714 25.957-2.421 31.966-3.749 8.16-1.806 14.882-4.017 20.642-5.319 4.989-1.125 10.959-2.368 10.959-2.368l-4.061-20.065.007.006ZM266.078 131.504c8.225-3.67 17.144-7.236 21.505-9.12 2.955-1.276 6.682-3.009 8.775-3.991a5.636 5.636 0 0 0 2.51-2.322l2.635-4.658a8.672 8.672 0 0 1 4.113-3.69l1.085-.465 4.832-6.372a2.11 2.11 0 0 1 2.348-.726 1.469 1.469 0 0 1 .876 1.982c-.778 1.747-2.047 4.678-2.701 6.732-.464 1.466-.98 3.213-1.386 4.652-.287 1.007.818 1.832 1.707 1.276l3.772-2.369a2.138 2.138 0 0 1 2.309.026 1.83 1.83 0 0 1 .294 2.807c-1.766 1.786-4.714 4.632-6.983 6.124-3.466 2.283-7.036 3.271-7.036 3.271s-14.07 9.218-18.928 12.391c-4.858 3.173-15.653 6.693-15.653 6.693l-4.061-12.248-.013.007Z"/><path fill="#FF6D39" stroke="#000" stroke-linecap="round" stroke-linejoin="round" d="M277.01 147.037s-8.055 3.702-12.416 7.432c-.013 3.912-.733 7.32-2.406 10.107-3.917 6.497-13.901 10.664-20.185 14.347-6.283 3.677-12.514 8.211-23.433 8.211-9.991 0-16.686-1.537-22.918-6.595a78.03 78.03 0 0 1-4.825.916c-10.213 1.571-12.515.805-12.515.805 2.354-.098 5.787-1.812 8.206-6.326 1.661-3.114 2.851-7.55 2.877-13.706.013-3.304-.314-5.869-.85-7.864-2.158-8.047-7.735-6.667-8.16-6.549.046-.026.098-.052.151-.072.013-.006.032-.02.045-.026 3.976-2.015 20.675-9.741 35.118-13.968l42.448-6.542s9.435-1.282 11.396-1.459c0 0 4.008 3.899 6.048 9.872 1.929 5.653 1.426 11.41 1.426 11.41l-.007.007Z"/><path fill="#000" stroke="#000" stroke-linecap="round" stroke-linejoin="round" d="M188.538 154.363a800.884 800.884 0 0 0-14.058 2.388c.635-3.186 2.74-7.582 6.049-9.015-.053.026-.105.052-.151.072.419-.118 6.002-1.498 8.16 6.549v.006Z"/><path stroke="#000" stroke-linecap="round" stroke-linejoin="round" d="M180.527 147.743s.034-.02.047-.026"/><path fill="#000" stroke="#000" stroke-linecap="round" stroke-linejoin="round" d="M186.51 175.934c-2.419 4.514-5.858 6.228-8.205 6.326-2.04.006-3.243-1.492-3.95-3.18 3.963-1.073 7.526-2.106 10.789-2.839.451-.105.909-.203 1.373-.307h-.007Z"/><path fill="#E0A07C" stroke="#000" stroke-linecap="round" stroke-linejoin="round" d="M256.604 137.21c-2.419 2.852-5.583 4.102-8.709 4.475-.765 3.448-3.269 9.303-11.344 8.086-11.312-1.707-11.553-14.609-11.553-14.609s-2.341-3.487-4.486-5.207c-3.177-2.532-2.295-8.054 1.426-8.558 3.713-.497 8.284-1.334 9.258-9.492.974-8.159 8.271-14.243 14.502-14.223 11.979.039 13.228 11.619 14.3 16.094 1.072 4.475 4.139 14.537-3.4 23.427l.006.007Z"/><path stroke="#000" stroke-linecap="round" stroke-linejoin="round" d="M261.535 136.365c1.844 6.739 3.08 12.869 3.06 18.103M200.883 136.646c12.658 1.571 16.418 6.7 17.686 13.281 1.602 8.302-1.713 18.325-8.343 26.621M241.996 125.754c3.779 2.826 6.748 3.212 10.553 2.748"/><path fill="#E0A07C" d="M247.894 141.677c-3.564.445-9.22-1.093-12.554-3.435l12.554 3.435Z"/><path stroke="#000" stroke-linecap="round" stroke-linejoin="round" d="M247.894 141.677c-3.564.445-9.22-1.093-12.554-3.435"/><path fill="url(#d)" stroke="#000" stroke-miterlimit="10" d="M259.428 111.152c-1.177-5.26-3.674-13.438-13.724-13.464-6.231-.026-13.528 6.064-14.502 14.223-.968 8.158-5.545 8.989-9.259 9.492-2.72.367-3.923 3.415-3.132 6.019 2.276 4.783 6.539 4.364 8.736 3.762.726-.196 1.458.301 1.517 1.047a3.974 3.974 0 0 1-2.923 4.174c-.314.085-.654.17-1.007.262-3.648.896-9.389 1.884-16.013 1.504-11.422-.654-31.77-8.832-29.71-28.393 2.099-19.934 22.119-15.42 30.613-19.876 5.649-2.957 3.759-14.53 16.673-13.581 10.213.752 8.127 6.974 15.359 10.507 5.381 2.63 13.122 2.361 17.451 10.866 3.184 6.248 1.307 11.122-.085 13.464l.006-.006Z"/><path stroke="#000" stroke-linecap="round" stroke-miterlimit="10" d="M221.695 124.682c3.217-.02 4.035 2.538 4.106 3.205"/><path fill="#000" stroke="#000" stroke-miterlimit="10" d="M244.587 118.252c.404-.028.671-.904.597-1.957-.073-1.052-.46-1.882-.864-1.854-.403.028-.67.904-.597 1.957.074 1.052.461 1.883.864 1.854ZM256.702 116.008c.342-.024.569-.768.506-1.662-.063-.894-.391-1.599-.733-1.575-.342.024-.569.768-.506 1.662.062.894.391 1.599.733 1.575Z"/><path stroke="#000" stroke-linecap="round" stroke-linejoin="round" d="M253.562 113.678c.674 2.218 3.074 3.696 3.446 5.973.373 2.277-1.412 3.506-1.412 3.506M238.062 111.708c3.198-3.075 6.46-3.323 9.167-2.277M253.562 108.442c2.027-1.478 4.551-1.295 6.212-.431M195.645 180.539c8.905-1.989 15.777-5.07 21.701-5.07"/><path fill="#FF6D39" d="m154.642 122.411-2.792 3.166c-3.361 3.598-7.238 7.223-11.063 10.376l-1.053-4.266a136.5 136.5 0 0 0 7.029-6.418c.373-.379.739-.758 1.112-1.144l4.295-4.691a120.78 120.78 0 0 0 1.413-1.649l.451 1.145.615 3.487-.007-.006ZM126.686 123.504c-4.394.752-9.043 2.002-13.234 3.441-5.492 1.865-11.187 4.227-16.221 7.053l-2.125-3.925c7.087-4.142 15.476-7.236 22.707-9.533a97.294 97.294 0 0 1 7.016-1.753l1.857 4.717Z"/><path fill="#FFDD4F" stroke="#000" stroke-linecap="round" stroke-linejoin="round" d="M75.484 16.125c-.477 2.343-2.281 3.278-4.053 2.068-1.798-1.224-2.877-4.18-2.387-6.582.49-2.4 2.347-3.297 4.133-2.015 1.758 1.27 2.785 4.18 2.307 6.523v.006ZM88.821 18.284c-.425 2.08-2.027 2.912-3.603 1.839-1.595-1.086-2.55-3.71-2.118-5.843.431-2.132 2.086-2.924 3.668-1.786 1.582 1.139 2.472 3.716 2.046 5.797l.007-.007Z"/><path fill="#000" stroke="#000" stroke-linecap="round" stroke-linejoin="round" d="M49.388 298.084c-4.858-1.963-8.474-6.699-8.474-12.548V18.802c0-4.26 2.25-7.89 5.545-9.931l.032-.02c.641-.393 1.315-.733 2.02-1.001l12.077-5.954a11.677 11.677 0 0 0-5.106 5.581 11.582 11.582 0 0 0-.968 4.665V291.28c0 1.269.17 2.48.484 3.618a13.346 13.346 0 0 0 1.811 3.938 13.698 13.698 0 0 0 5.48 4.685l-12.895-5.45-.006.013Z"/><path fill="#FFDD4F" stroke="#000" stroke-linecap="round" stroke-linejoin="round" d="M101.243 20.724c-.425 2.08-2.027 2.911-3.603 1.838-1.595-1.086-2.55-3.71-2.118-5.842.431-2.133 2.085-2.924 3.668-1.786 1.582 1.138 2.471 3.716 2.046 5.796l.007-.006Z"/><path fill="#000" stroke="#000" stroke-linecap="round" stroke-linejoin="round" d="M208.728 176.947c-2.923.838-7.212 2.925-11.488 4.711l-1.595-1.119 13.083-3.592ZM235.301 138.242c2.674 1.754 4.904 3.402 7.735 4.128 2.19.563 4.498.386 4.498.386l.353-1.079s-3.007.327-6.754-.635c-2.857-.732-5.832-2.8-5.832-2.8Z"/><path fill="#FFFDF6" stroke="#000" stroke-linecap="round" stroke-linejoin="round" d="M7.098 111.394v32.881c0 4.266 3.648 7.622 7.898 7.256l41.964-3.592a7.204 7.204 0 0 0 6.584-7.177v-27.719c0-3.86-3.04-7.033-6.898-7.197l-41.97-1.74a7.28 7.28 0 0 0-7.578 7.275v.013ZM215.367 26.16v24.796A6.114 6.114 0 0 0 220.559 57l44.285 6.725a3.905 3.905 0 0 0 4.491-3.866V38.898a6.108 6.108 0 0 0-4.694-5.947L220.179 22.36a3.906 3.906 0 0 0-4.812 3.801Z"/><path fill="#FFDD4F" stroke="#000" stroke-linecap="round" stroke-linejoin="round" d="M32.258 167.056v7.039a4.794 4.794 0 0 1-4.035 4.737l-17.921 2.892a2.767 2.767 0 0 1-3.204-2.735v-7.726a4.534 4.534 0 0 1 3.923-4.495l18.098-2.46a2.769 2.769 0 0 1 3.139 2.741v.007ZM32.258 190.77v6.673a4.801 4.801 0 0 1-3.584 4.645l-18.111 4.724a2.766 2.766 0 0 1-3.465-2.676v-7.89c0-2.152 1.51-4.01 3.622-4.442l18.216-3.742a2.767 2.767 0 0 1 3.322 2.708Z"/><path fill="#FFFDF6" stroke="#000" stroke-linecap="round" stroke-linejoin="round" d="M143.605 239.576v49.957c0 4.01 4.094 6.719 7.781 5.148l57.872-24.599a10.043 10.043 0 0 0 6.113-9.244v-40.549c0-3.663-3.465-6.339-7.009-5.41l-57.257 14.975a10.045 10.045 0 0 0-7.5 9.722Z"/></g><defs><linearGradient id="b" x1="193.919" x2="135.878" y1="128.56" y2="128.56" gradientUnits="userSpaceOnUse"><stop stop-color="#FF6D39"/><stop offset=".44" stop-color="#FFA644"/><stop offset=".79" stop-color="#FFCD4C"/><stop offset=".98" stop-color="#FFDD4F"/></linearGradient><linearGradient id="c" x1="185.988" x2="92.469" y1="144.073" y2="144.073" gradientUnits="userSpaceOnUse"><stop stop-color="#FF6D39"/><stop offset=".44" stop-color="#FFA644"/><stop offset=".79" stop-color="#FFCD4C"/><stop offset=".98" stop-color="#FFDD4F"/></linearGradient><linearGradient id="d" x1="206.238" x2="233.449" y1="85.231" y2="132.335" gradientUnits="userSpaceOnUse"><stop stop-color="#C15E3D"/><stop offset=".06" stop-color="#B05637"/><stop offset=".31" stop-color="#723724"/><stop offset=".54" stop-color="#411F14"/><stop offset=".73" stop-color="#1D0E09"/><stop offset=".89" stop-color="#070302"/><stop offset="1"/></linearGradient><clipPath id="a"><path fill="#fff" d="M.18.143h326v305H.18z"/></clipPath></defs></svg>