<svg xmlns="http://www.w3.org/2000/svg" fill="none" viewBox="0 0 28 33"><path fill="#fff" d="m24.383 32.535-3.793-1.297.659-1.867c1.523-4.328 2.985-11.496 1.466-13.882-.26-.411-.578-.605-1.092-.664-1.439-.15-3.122 4.007-4.235 6.772-1.76 4.364-3.576 8.87-7.413 8.87h-.18c-1.467-.056-2.757-.673-3.738-1.793-.642-.735-1.157-1.689-1.53-2.864-.587.159-1.206.273-1.857.329l-2 .166-.338-3.94 2-.166a6.013 6.013 0 0 0 1.488-.317 36.23 36.23 0 0 1-.045-.716 31.667 31.667 0 0 1 .109-4.403c.1-1.42 1.016-12.319 5.64-15.59 1.363-.965 2.95-1.254 4.581-.831 1.31.34 2.323 1.203 2.849 2.425.9 2.097.414 5.333-1.483 9.89a57.052 57.052 0 0 1-2.764 5.677c-.29.633-1.736 3.568-4.532 5.66.213.887.514 1.63.92 2.093.253.285.494.408.844.42h.016c1.125 0 2.796-4.142 3.696-6.373 1.844-4.577 3.942-9.772 8.442-9.242 1.723.202 3.114 1.065 4.026 2.493 1.426 2.243 1.639 5.78.65 10.815a50.995 50.995 0 0 1-1.731 6.464l-.66 1.868.005.004ZM12.659 4.108c-.281 0-.527.091-.792.277-2.25 1.59-3.68 8.375-3.981 12.683 0 .027-.004.055-.008.083a21.428 21.428 0 0 0-.113 1.646c.852-1.128 1.29-2.101 1.298-2.125a2.93 2.93 0 0 1 .096-.194c2.572-4.494 4.83-10.455 4.095-12.172-.04-.099-.049-.107-.17-.139a1.697 1.697 0 0 0-.425-.059Z"/></svg>