<?xml version="1.0" encoding="UTF-8"?>
<svg id="Layer_1" xmlns="http://www.w3.org/2000/svg" xmlns:xlink="http://www.w3.org/1999/xlink" version="1.1" viewBox="0 0 908.8 597">
  <!-- Generator: Adobe Illustrator 29.2.1, SVG Export Plug-In . SVG Version: 2.1.0 Build 116)  -->
  <defs>
    <style>
      .st0 {
        fill: none;
      }

      .st1 {
        fill: #e0a07c;
      }

      .st2 {
        fill: url(#linear-gradient2);
      }

      .st3 {
        fill: url(#linear-gradient1);
      }

      .st4 {
        fill: url(#linear-gradient3);
      }

      .st5 {
        fill: url(#linear-gradient4);
      }

      .st6 {
        fill: #ffdd4f;
      }

      .st7 {
        fill: url(#linear-gradient);
      }

      .st8 {
        fill: #021247;
      }

      .st9 {
        fill: #fff;
      }

      .st10 {
        fill: #ffccb3;
      }

      .st11 {
        fill: #a5694a;
      }
    </style>
    <linearGradient id="linear-gradient" x1="138.8" y1="346" x2="138.8" y2="75.8" gradientUnits="userSpaceOnUse">
      <stop offset="0" stop-color="#ff6d39"/>
      <stop offset="0" stop-color="#ff753a"/>
      <stop offset=".2" stop-color="#ff9a41"/>
      <stop offset=".4" stop-color="#ffb747"/>
      <stop offset=".6" stop-color="#ffcc4b"/>
      <stop offset=".8" stop-color="#ffd84e"/>
      <stop offset="1" stop-color="#ffdd4f"/>
    </linearGradient>
    <linearGradient id="linear-gradient1" x1="182.4" y1="203.3" x2="201.7" y2="203.3" gradientUnits="userSpaceOnUse">
      <stop offset="0" stop-color="#000"/>
      <stop offset="0" stop-color="#020204"/>
      <stop offset=".3" stop-color="#080910"/>
      <stop offset=".4" stop-color="#131524"/>
      <stop offset=".6" stop-color="#212640"/>
      <stop offset=".7" stop-color="#343c65"/>
      <stop offset=".8" stop-color="#4c5791"/>
      <stop offset="1" stop-color="#6777c5"/>
      <stop offset="1" stop-color="#7182d8"/>
    </linearGradient>
    <linearGradient id="linear-gradient2" x1="411.2" y1="238.9" x2="508.1" y2="335.8" gradientUnits="userSpaceOnUse">
      <stop offset="0" stop-color="#c15e3d"/>
      <stop offset="0" stop-color="#af5537"/>
      <stop offset=".2" stop-color="#813e28"/>
      <stop offset=".3" stop-color="#592b1c"/>
      <stop offset=".4" stop-color="#381b12"/>
      <stop offset=".6" stop-color="#1f0f0a"/>
      <stop offset=".7" stop-color="#0e0604"/>
      <stop offset=".8" stop-color="#030101"/>
      <stop offset="1" stop-color="#000"/>
    </linearGradient>
    <linearGradient id="linear-gradient3" x1="71" y1="235.5" x2="191.1" y2="235.5" gradientUnits="userSpaceOnUse">
      <stop offset="0" stop-color="#000"/>
      <stop offset=".2" stop-color="#010102"/>
      <stop offset=".3" stop-color="#06070b"/>
      <stop offset=".5" stop-color="#0e101b"/>
      <stop offset=".6" stop-color="#191d31"/>
      <stop offset=".7" stop-color="#282e4d"/>
      <stop offset=".8" stop-color="#3a4370"/>
      <stop offset=".9" stop-color="#505c9a"/>
      <stop offset="1" stop-color="#6978c8"/>
      <stop offset="1" stop-color="#7182d8"/>
    </linearGradient>
    <linearGradient id="linear-gradient4" x1="521.7" y1="357.1" x2="766.6" y2="588.9" gradientUnits="userSpaceOnUse">
      <stop offset="0" stop-color="#8388d2"/>
      <stop offset="0" stop-color="#8488d1"/>
      <stop offset="0" stop-color="#a796d0"/>
      <stop offset=".3" stop-color="#c4a1cf"/>
      <stop offset=".4" stop-color="#daaace"/>
      <stop offset=".6" stop-color="#eab1ce"/>
      <stop offset=".8" stop-color="#f4b4ce"/>
      <stop offset="1" stop-color="#f7b6ce"/>
    </linearGradient>
  </defs>
  <path class="st9" d="M902.6,379.3c-.3-.2-.8-.2-1,0-8.4,10.8-26,20.5-42.3,22.9-.8-4.5-2.2-8.8-4.6-12.9-3.4-5.5-8.7-10.1-15.3-11.3-8.4-1.5-14.5,3.9-12.3,12.7,2.3,12.8,15.2,16.2,26.6,15.2v1.5c0,11.1-3.4,22-8,32.1-9.3,20.7-24.8,37.8-42.1,52.3-55.8,45.5-150,79.4-220.4,55-30.8-10.6-53-28.8-66.4-51.7,35.9-34.3,66.6-76,91-114.4,20.6-33.5,44-83,33.4-123.2-3.1-11.5-11.5-22.9-23.6-26.4-43.6-12-87.6,55.4-105.4,87.8-28.9,51.4-47.7,117.7-21,173.8-11.5,10.2-23.6,19.7-36.4,28.3-30,19.9-71.8,35.4-104.1,12.7-12.7-8.5-23.2-21.2-26-36.3-10.1-58.5,64-131.8,68.3-191.8.7-9.5-.9-19.9-5.4-28.6-6.1-11.3-15.7-20.6-26.9-26.7-24.7-13.1-54.1-9.1-80.4-5-45.3,7.8-90.9,18.4-136.8,12-31.8-4.2-70.8-15.4-81-49.6-3.6-13.1-2.6-27.3,1.9-40.4,10.4-1.8,20.3-6.1,27.8-13.8,4.1-4.5,7.9-9.3,9.4-15.5,1.9-9.5-7-11.3-14.2-7.8-11.1,5.4-18.4,15.8-23.7,26.5-1.5,3-2.8,6-3.9,9.2-15.3,2.1-32.1-.7-46-5.9v.9c9.2,3.7,19,6.1,28.9,7.1,5.4.5,10.9.5,16.4,0-6.3,19.1-6.1,40.8,5.3,57.9,10,15.3,26.6,24.9,43.5,30.9,57.1,19.9,116.4,8.3,174-1.1,31.6-4.6,69.8-8.4,90.6,20.6,20,25.9-3,65.5-16,90.6-22.1,42.6-66.2,103.6-41.2,152.3,6,11.6,15.3,21,25.8,28.4,26.9,19.6,61.9,17.9,91.2,5.7,24.3-10.3,47.2-25.5,68.4-43.6,31.8,47.1,93.9,68,149.2,61.2,71.3-8.2,156.8-49.6,194.7-112.3,8.3-14.7,17-35.2,15.1-53.5,10.9-2,21.2-6.5,30.3-12.8,4.8-3.4,9.3-7.3,12.8-12.1.2-.3.2-.8-.2-1h0ZM76.5,144.3c3.5-4.3,7.6-8.3,12.5-10.6,2.1-1.1,5-1.8,7.1-1.3,5,1.7.9,9.4-1,12.5-7,11.2-17.8,17.5-29.9,20.2,2.8-7.5,6.7-14.5,11.4-20.7h-.1ZM507.4,391.8c11-41.4,42.2-99.5,74.6-127.3,7.9-6.5,23.4-17.4,32.6-10.1,11.9,11.6,7.1,39.6,2.8,54.9-5.9,21.3-15.8,41.6-27.3,60.6-23.5,37.8-50.2,74.9-81.9,106.7-9-25.2-9.2-54.4-.8-84.8h0ZM840.7,401.2c-5-1.8-8.7-5.8-9.4-11.1-2.1-9.9,8.5-8.6,13.9-3.8,4.9,4.2,7.4,10.2,8.3,16.6-4.5.2-8.9-.3-12.8-1.7Z"/>
  <g>
    <path d="M181,24.4v28.4c0,7,4.1,13.4,10.4,16.4l72.6,34.1c5.4,2.5,11.6-1.4,11.6-7.4v-23.7c0-6.7-3.7-12.8-9.6-16l-73.1-39c-5.5-2.9-12,1-12,7.2h.1Z"/>
    <path d="M267.5,104.5c-1.2,0-2.5-.3-3.7-.8l-72.6-34.1c-6.5-3-10.7-9.6-10.7-16.8v-28.4c0-3.1,1.6-5.9,4.2-7.4,2.6-1.6,5.8-1.7,8.5-.2l73.1,39c6.1,3.2,9.8,9.5,9.8,16.4v23.7c0,3-1.5,5.7-4,7.3-1.4.9-3,1.4-4.6,1.4h0ZM189.2,16.7c-1.4,0-2.7.4-4,1.1-2.3,1.4-3.7,3.9-3.7,6.6v28.4c0,6.8,4,13,10.1,15.9l72.6,34.1c2.4,1.1,5.1,1,7.4-.5s3.6-3.8,3.6-6.5v-23.7c0-6.5-3.6-12.5-9.3-15.5l-73.1-39c-1.1-.6-2.4-.9-3.6-.9h0Z"/>
  </g>
  <g>
    <path d="M77,388.8h0c-.7-.2-1.3-.4-2-.5h-.3c-1.2,0-2.4,0-3.6.6-5.7,2.2-10.5,10.5-11.4,20.7-.8,8.5,1.4,16.2,5.1,20.4l1.5,1.5c.7.5,1.4,1,2.1,1.3l-4-1.6-1.2-.5h0c-5.7-2.9-9.2-12.2-8.3-22.9,1.1-12.4,7.9-21.9,15.2-21.3.7,0,1.4.2,2,.5h0l.4.2,4.4,1.7h.1Z"/>
    <path d="M68.5,433.2h-.2l-5.3-2.1h-.1c-6-3-9.5-12.6-8.5-23.3.6-6.1,2.5-11.7,5.4-15.8,3-4.2,6.7-6.3,10.4-5.9.7,0,1.4.2,2.1.5h.1l4.7,1.8c.2,0,.3.3.3.5h0c0,.2,0,.3-.2.4-.1,0-.3,0-.5,0-.6-.2-1.3-.4-1.9-.4h-.2c-1.1,0-2.3,0-3.4.6-5.6,2.2-10.2,10.6-11.1,20.3-.7,8.1,1.2,15.7,5,20,.5.5,1,1,1.5,1.4.6.5,1.3.9,2,1.2.2,0,.4.4.3.7,0,.2-.3.3-.5.3h0v-.2ZM63.3,430.1h0l1.5.6c-.1,0-.2-.2-.4-.4-4-4.4-6-12.4-5.2-20.7.9-10.2,5.6-18.7,11.7-21.1.8-.3,1.5-.5,2.3-.6l-1.1-.4h-.1c-.6-.3-1.2-.4-1.9-.5-3.4-.3-6.7,1.7-9.5,5.5-2.8,4-4.7,9.4-5.2,15.3-.9,10.2,2.4,19.5,7.9,22.3h0Z"/>
  </g>
  <g>
    <path d="M63.2,430.6l1.2.5c-.4,0-.8-.3-1.2-.5Z"/>
    <path d="M64.5,431.6h-.1c-.5,0-.9-.3-1.3-.5-.2,0-.3-.4-.2-.7.1-.2.4-.3.6-.3l1.2.5c.2,0,.4.4.3.6,0,.2-.3.3-.5.3h0Z"/>
  </g>
  <path class="st7" d="M240.3,161.5v122.6c0,6.6-4.4,12.3-10.8,14.1l-173.9,47.2c-3.2.9-6.5.6-9.3-.5h0l-2-1h0c-4.2-2.6-7.1-7.1-7.1-12.5V90.3c0-1.1.1-2.1.3-3.1,1.1-5,4.7-9,9.2-10.6h.2c3.2-1.2,6.8-1.2,10.4.2l174,71.3c5.5,2.2,9,7.6,9,13.5h0Z"/>
  <path d="M51.7,346.4c-1.9,0-3.8-.4-5.6-1.1l-2.1-1h-.1c-4.5-2.7-7.3-7.6-7.3-12.9V90.3c0-1.1.1-2.1.3-3.2,1.1-5.1,4.6-9.2,9.6-11h.2c3.4-1.3,7.2-1.2,10.7.2l174,71.3c5.7,2.3,9.4,7.8,9.4,14v122.6c0,6.8-4.6,12.8-11.1,14.6l-173.9,47.2c-1.3.4-2.7.5-4,.5h0ZM51.7,76.1c-1.6,0-3.1.3-4.6.8h-.2c-4.5,1.7-7.9,5.7-8.9,10.3-.2,1-.3,2-.3,3v241.1c0,5,2.6,9.5,6.8,12.1h0l1.9.9c2.9,1.2,6,1.3,9,.5l173.9-47.2c6.1-1.7,10.4-7.3,10.4-13.6v-122.6c0-5.7-3.4-10.9-8.7-13L57.1,77.1c-1.7-.7-3.6-1.1-5.4-1.1h0Z"/>
  <g>
    <path d="M44.2,343.8l-23.8-11.9c-4.6-2.1-7.8-6.7-7.8-12.2V97c0-5.8,3.5-10.4,8.3-12.4l2.6-.8h0l23.3-7.3c-4.6,1.7-8.2,5.6-9.2,10.6-.2,1-.3,2-.3,3.1v241.1c0,5.4,2.9,10,7.1,12.5h-.2Z"/>
    <path d="M44.2,344.3h-.2l-23.8-11.9c-4.9-2.3-8.1-7.3-8.1-12.7V97c0-5.6,3.4-10.7,8.6-12.9l2.6-.8h0l23.3-7.3c.3,0,.5,0,.6.3s0,.5-.3.6c-4.5,1.7-7.9,5.6-8.9,10.3-.2,1-.3,2-.3,3v241.1c0,5,2.6,9.5,6.8,12.1.2,0,.3.4.2.7,0,.2-.3.3-.4.3h-.1ZM23.5,84.2l-2.5.8c-4.8,2-7.9,6.7-7.9,12v222.7c0,5,3,9.7,7.5,11.8l19.9,9.9c-2.5-2.7-3.9-6.3-3.9-10.1V90.2c0-1.1.1-2.1.3-3.2.7-3.5,2.6-6.5,5.4-8.6l-18.8,5.9h0Z"/>
  </g>
  <g>
    <path class="st9" d="M203.8,304.4c0,.3-.5.6-1.1,1l-135.1,36.7c4.3-45.3,17-82.8,38.1-87.5,19.5-4.4,49.1.3,49.1.3,0,0,14,3.7,25.5,13,11.6,9.4,15.4,16,15.4,16,0,0,9.9,14.9,8.1,20.6h0Z"/>
    <path d="M67.6,342.6c-.1,0-.2,0-.3,0s-.2-.3-.2-.4c2.2-23.6,6.7-44,12.8-59.1,6.8-16.9,15.5-26.6,25.7-28.9,19.4-4.4,49,.2,49.3.2s14.2,3.8,25.8,13.1c11.5,9.3,15.4,15.9,15.6,16.1.4.6,10,15.1,8.1,21h0c-.1.4-.5.8-1.3,1.2h-.1l-135.1,36.7h-.1l-.2.2ZM126.2,253.2c-7,0-14.2.5-20.4,1.9-18.7,4.2-32.7,36.5-37.6,86.4l134.4-36.5c.7-.4.8-.7.8-.7,1.7-5.4-7.9-20-8-20.2,0,0-4-6.7-15.3-15.9-11.4-9.2-25.2-12.9-25.4-13-.2,0-13.7-2.1-28.4-2.1h-.1ZM203.8,304.4h0Z"/>
  </g>
  <g>
    <path class="st11" d="M154.3,252.6s2,1.6,5.1,3.3l-3.4,6c-1.1,2-3.3,3-5.5,2.7-2.2-.4-5.1-1.2-7.7-2.9-5.1-3.4-7.9-9.3-7.9-9.3,0,0,4-11,4.6-12.5s-16.1-25.7,5.3-42.7c17.5-14,36.8-2.5,36.8-2.5,11.9,6.9,16.8,14.4,16,25.8-.8,11.5-5.9,25.4-10.8,32s-12.1,9.4-19.2,7.1c-3-1-5.9-2.4-8.2-3.8"/>
    <path d="M151.3,265.3h-1c-2.1-.4-5.2-1.2-7.9-3-5.2-3.4-8-9.2-8.1-9.5v-.4c.2-.5,4-11,4.6-12.5,0-.2-.5-1.3-1-2.4-3.1-7.2-11.5-26.3,6.4-40.6,17.6-14,37.1-2.6,37.3-2.5,12.4,7.1,17.1,14.8,16.3,26.3-.9,12.1-6.2,25.9-10.9,32.2-5,6.8-12.6,9.6-19.7,7.3-3-1-5.9-2.4-7.9-3.5l-3.1,5.6c-1,1.9-3,3-5.1,3h.1ZM135.4,252.5c.5,1,3.2,6,7.6,8.9,2.6,1.7,5.5,2.5,7.5,2.8s4-.6,5-2.4l3.2-5.6c-2.8-1.7-4.6-3.1-4.7-3.1-.2-.2-.3-.5,0-.7s.5-.3.7,0c0,0,2,1.6,5,3.3h0c1.9,1.1,4.9,2.7,8.1,3.7,6.7,2.2,13.8-.5,18.6-7,4.5-6,9.9-19.9,10.7-31.7.8-11.1-3.8-18.4-15.8-25.4-.2-.1-19.1-11.1-36.2,2.4-17.3,13.8-9.1,32.4-6.1,39.4.9,2.1,1.1,2.7,1,3.1-.6,1.4-4,10.8-4.5,12.3h-.1Z"/>
  </g>
  <path class="st3" d="M197.6,217.2c-.3-7.7-3.6-13.6-10.6-18.8l-1.7-3.5-2.9-5.5c12.3,2.7,18.7,9.4,19.3,18.4.5,7.2-2.8,9-4.1,9.4h0Z"/>
  <path d="M197.6,217.7h-.3c-.1,0-.2-.2-.2-.4-.3-7.5-3.5-13.2-10.4-18.4,0,0-.1-.1-.1-.2l-1.7-3.5-2.9-5.5v-.5c0-.1.3-.2.5-.2,12,2.6,19,9.3,19.7,18.9.5,7.5-2.9,9.5-4.5,9.9h-.1ZM187.4,198.1c6.9,5.2,10.2,10.9,10.7,18.4,1.4-.7,3.6-2.8,3.2-8.7-.7-8.8-7-15.1-17.9-17.7l2.4,4.6,1.7,3.4h-.1Z"/>
  <g>
    <path class="st1" d="M423.1,279.7c-1.2,3.4-.3,11.6-3.9,14.8-4,3.5-7.1,4.5-6.3,8.5s5.5,3.6,6.7,6.6,0,7.7,2.4,13.5c2.5,6,8.8,10.7,15.1,12.1,6.1,1.3,13.7-2.7,13.7-2.7,0,0,22.4-7.3,17.4-35.6-5.1-28.2-16.2-27.9-23.5-28s-19.6,5.5-21.5,10.9h-.1Z"/>
    <path d="M439.6,335.8c-.9,0-1.8,0-2.7-.3-6.7-1.4-13-6.4-15.5-12.4-1.5-3.5-1.6-6.6-1.8-9.2,0-1.7-.2-3.2-.6-4.3-.5-1.1-1.6-1.8-2.8-2.4-1.6-.9-3.5-1.8-3.9-4.3-.6-3.4,1.3-4.8,3.9-6.9.8-.6,1.7-1.3,2.6-2.1,2.2-2,2.6-6,2.9-9.6.2-1.9.4-3.7.8-5h0c2-5.6,14.3-11.2,21.8-11.2h.6c7.4.1,18.5.3,23.6,28.4,5.1,28.3-17.5,36-17.7,36.1s-5.8,3-11.3,3h0v.2ZM423.5,279.8h0c-.4,1.1-.6,2.9-.8,4.7-.4,3.8-.8,8-3.3,10.2-1,.8-1.8,1.5-2.7,2.2-2.5,2-4,3.1-3.5,5.9.3,2,1.8,2.8,3.4,3.6,1.3.7,2.7,1.4,3.3,2.9.5,1.3.6,2.8.7,4.7,0,2.6.3,5.5,1.7,8.8,2.4,5.7,8.3,10.4,14.8,11.8,5.8,1.2,13.3-2.7,13.3-2.7,1-.3,22-7.6,17.1-35-4.9-27.3-15.6-27.5-22.6-27.6h-.6c-7.1,0-19,5.4-20.8,10.5h0Z"/>
  </g>
  <path class="st2" d="M423.1,279.7c-8-4.2-9.4-10.1-3.3-14.1,6.1-4,4.2-5.4,3.3-12.7-.9-7.3,7.5-10.4,13.2-8.7,8.1,2.4,11.9,7.7,18.7,10.3,7.5,3,26.8,2.6,33.6,22.2,7.9,22.7-4.2,36.7-13.2,42.6s-23.7,6-26.1,1.2c-.5-1.1-.8-2.2-.9-3.1-.2-1.5.6-2.9,2-3.5,2.8-1.3,7.6-4.4,6.7-9.9-1.2-7.8-9-9.2-13.9-5.2h-.2c-2.4,2.1-5.9-.2-5.1-3.2.5-1.7,1-3.5,1.7-5.5,2.8-8.2,2.3-14.6-4.9-16-7.3-1.4-11.5,5.6-11.5,5.6h0Z"/>
  <path d="M458.9,324.3c-2,0-3.8-.2-5.4-.6-2.4-.6-4-1.7-4.8-3.1-.5-1-.8-2.1-1-3.3-.2-1.7.7-3.3,2.3-4,2.7-1.3,7.2-4.2,6.5-9.3-.5-3.2-2.1-5.4-4.7-6.4-2.7-1-5.9-.5-8.4,1.6h-.2c-1.3,1.1-3,1.2-4.3.3-1.4-.9-2-2.5-1.5-4.1.5-1.8,1.1-3.7,1.7-5.5,1.9-5.5,2.1-9.5.6-12.1-1-1.7-2.7-2.8-5.2-3.2-6.9-1.3-11,5.4-11,5.4,0,.2-.4.3-.7.2-4.6-2.4-7.2-5.5-7.3-8.6,0-2.4,1.3-4.6,4-6.4,4.7-3,4.4-4.3,3.7-8.6-.2-1-.4-2.2-.6-3.6-.4-2.8.6-5.3,2.7-7.1,2.8-2.4,7.4-3.3,11.2-2.2,4.6,1.4,7.9,3.6,11,5.8,2.5,1.7,4.8,3.4,7.7,4.5,1.5.6,3.6,1.1,6,1.6,9,2,22.5,5.1,27.9,20.9,9,26-8,39.6-13.4,43.2-4.9,3.2-11.4,4.7-16.7,4.7h0ZM449,296c1.1,0,2.1.2,3.1.6,2.9,1.1,4.8,3.7,5.3,7.2.9,5.8-4,9-7,10.4-1.2.5-1.8,1.7-1.7,3,0,1.1.4,2.1.9,3,.6,1.1,2,2,4.1,2.6,5.4,1.4,14.8.3,21.3-3.9,5.3-3.5,21.8-16.7,13-42-5.3-15.2-18.5-18.2-27.2-20.2-2.4-.5-4.5-1-6.1-1.6-3-1.2-5.4-2.9-7.9-4.6-3.1-2.1-6.2-4.4-10.7-5.7-3.5-1-7.7-.2-10.2,2-1.3,1.1-2.7,3.1-2.3,6.2.2,1.4.4,2.6.6,3.6.8,4.4,1.1,6.2-4.1,9.6-2.4,1.6-3.7,3.5-3.6,5.5,0,2.6,2.4,5.3,6.4,7.5,1.1-1.5,5.3-6.8,11.8-5.5,2.8.5,4.7,1.8,5.8,3.7,1.7,2.9,1.5,7.1-.5,13-.6,1.8-1.2,3.7-1.7,5.5-.4,1.4.3,2.5,1.1,3s2,.7,3.2-.2h.2c1.8-1.6,4.1-2.4,6.3-2.4h0v-.3Z"/>
  <g>
    <ellipse cx="177.4" cy="224.9" rx="2.5" ry=".8" transform="translate(-91.7 323.1) rotate(-71.8)"/>
    <path d="M176.6,227.6h-.2c-.3-.1-.7-.4-.7-1.4s.1-1.2.4-1.9c.4-1.3,1.3-2.7,2.2-2.4.9.3.7,1.9.3,3.2h0c-.4,1.2-1.1,2.5-1.9,2.5h0ZM177.8,223c-.2.2-.6.8-.9,1.7-.3.9-.3,1.5-.3,1.9.2-.2.6-.8.9-1.7h0c.3-.9.3-1.5.3-1.9Z"/>
  </g>
  <g>
    <ellipse cx="192.4" cy="230.5" rx="1.8" ry=".6" transform="translate(-86.7 341.3) rotate(-71.8)"/>
    <path d="M191.8,232.6h-.2c-.3,0-.6-.4-.6-1.1s.1-.9.3-1.5c.2-.5.4-1,.6-1.3.5-.6.9-.6,1.1-.6s.6.4.6,1.1-.1.9-.3,1.5c-.1.4-.5,1.5-1.2,1.8h-.4.1ZM192.6,229.5c-.1.2-.3.5-.4.9s-.2.7-.2.9c.1-.2.3-.5.4-.9h0c.1-.4.2-.7.2-.9Z"/>
  </g>
  <path d="M183.3,241.3c-.2,0-.5-.2-.5-.4,0-.3.2-.5.4-.6,0,0,3.4-.5,4.7-2.9.7-1.3.5-3.4.3-5.5-.1-1.4-.3-2.8-.2-4.2,0-.3.3-.5.5-.5.3,0,.5.2.5.5,0,1.3,0,2.7.2,4.1.2,2.3.4,4.5-.4,6.1-1.5,2.9-5.3,3.4-5.4,3.4h-.1Z"/>
  <path d="M186.6,217.8c-.2,0-.4-.1-.4-.3-1.8-3.5-7.1-4.8-12-3.1-.3.1-.5,0-.6-.3,0-.3,0-.5.3-.6,5.4-1.9,11.2-.4,13.2,3.5.1.2,0,.5-.2.7h-.3Z"/>
  <path d="M199.2,226.3c-.2,0-.4-.1-.5-.4-.4-1.7-2.7-2.9-4.5-2.9s-.5-.2-.5-.5.2-.5.5-.5c2.1,0,4.8,1.4,5.4,3.6,0,.3,0,.5-.4.6h-.1.1Z"/>
  <path d="M171.6,247.5h-.2c-8.4-3.5-8.9-9.8-8.9-10.1s.2-.5.5-.5.5.2.5.5.6,6,8.3,9.2c.2.1.4.4.3.7,0,.2-.3.3-.5.3h0Z"/>
  <path d="M151.1,230.2c-.2,0-.3,0-.4-.2,0,0-1.1-1.7-.3-3.5.3-.9.3-1.8,0-2.4-.4-.6-1-.9-1.9-1-.3,0-.5-.3-.5-.5,0-.3.3-.5.5-.4,1.5.2,2.2.9,2.6,1.5.5.9.6,2.1.1,3.3-.5,1.4.2,2.5.2,2.6.1.2,0,.5-.1.7h-.3,0Z"/>
  <path d="M186.1,298.4c-.2,0-.4-.2-.5-.4-2.8-12.8-12-27.9-12.1-28-.1-.2,0-.5.2-.7.2-.1.5,0,.7.2,0,.1,9.5,15.4,12.3,28.3,0,.3-.1.5-.4.6h-.2Z"/>
  <path class="st4" d="M161.2,180.2c-20,.2-31.6,11.4-38.9,21.5-7.8,10.8-22.6,9.6-29.8,19.6-6.4,8.9-4,18.4-7.5,23s-14.8,8.6-14,24.2c.7,15.5,6.6,22.4,6.6,22.4,0,0,11.5-32.2,29.8-35.2,17.9-2.9,28.9,8,37.4-.6,8.5-8.5,4.5-14-.2-20.6s-2.5-12.3,0-15,7.8-4.6,12.2,2.5h0c1,1.6,3.3,1.1,3.6-.8.6-3.9,1.8-8.9,4.5-12.4,5-6.6,17.5-13.8,24.2-7,0,0,5.5-2.3-1.9-10.2-7.4-8-17.1-11.6-26-11.5h0Z"/>
  <path d="M77.5,291.5c-.1,0-.3,0-.4-.2-.2-.3-5.9-7.2-6.7-22.7-.6-12,5.8-17.2,10.5-21.1,1.5-1.2,2.8-2.3,3.7-3.4,1.4-1.9,1.8-4.7,2.3-7.9.6-4.4,1.5-9.9,5.2-15.1,3.6-5,9.2-7.4,14.6-9.6,5.6-2.3,11.3-4.7,15.2-10,10.5-14.4,23.3-21.5,39.3-21.7h0c9.8-.1,19.4,4.1,26.4,11.6,3.1,3.3,4.4,6.1,3.9,8.3-.4,2-2.1,2.7-2.1,2.7-.2,0-.4,0-.5-.1-1.9-1.9-4.4-2.8-7.3-2.6-6.1.4-12.9,5.2-16.1,9.5-2.7,3.5-3.9,8.6-4.5,12.2-.2,1-.9,1.8-1.9,2s-2-.2-2.6-1.1c-1.8-2.9-3.8-4.5-6.1-4.7-1.9-.2-3.9.6-5.4,2.2-2.8,3-4.2,8.3,0,14.4l.3.4c4.6,6.6,8.5,12.2-.1,20.9-4.9,4.9-10.5,3.7-17.6,2.1-5.7-1.3-12.2-2.7-20.1-1.4-17.8,2.9-29.3,34.5-29.4,34.9,0,.2-.2.3-.4.3h-.2ZM161.2,180.7h0c-15.6.2-28.2,7.1-38.5,21.3-4.1,5.6-9.9,8-15.6,10.4-5.5,2.3-10.7,4.4-14.2,9.2-3.6,5-4.4,10.1-5,14.7-.5,3.4-.9,6.3-2.5,8.4-.9,1.2-2.3,2.3-3.8,3.6-4.5,3.7-10.6,8.8-10.1,20.3.6,12.4,4.5,19.3,5.9,21.4.9-2.3,3.6-8.9,7.8-15.7,4.8-7.8,12.5-17.4,22.1-18.9,8.1-1.3,14.7.1,20.5,1.4,6.8,1.5,12.2,2.7,16.7-1.8,8.1-8.1,4.5-13.2,0-19.6l-.3-.4c-4.6-6.6-2.8-12.5,0-15.6,1.7-1.8,4-2.8,6.2-2.6,1.8.2,4.4,1.2,6.8,5.1.4.6,1,.8,1.5.7.5-.1,1-.5,1.1-1.2.6-3.7,1.8-9,4.6-12.7,3.5-4.6,10.4-9.5,16.9-9.9,3.1-.2,5.8.7,7.9,2.6.4-.2,1.1-.8,1.3-1.9.3-1.3-.1-3.6-3.7-7.4-6.7-7.2-15.9-11.3-25.3-11.3h-.4.1Z"/>
  <g>
    <g>
      <path class="st11" d="M290.9,352.6c-.2.4-.6.7-.9.9h0c.3.8.3,1.7.1,2.6h0c-.8,3.4-4.5,5.1-7.6,3.5l-3.5-1.9-3.2,1.5c-2.4.8-5.1.5-7.3-.8l-24.2-14.3c-3.5-2.1-7.8-2.5-11.7-1.2l-56.2,19.1c-7.6,2.6-16,.7-21.6-5l-41.4-40.8,38.6-31.7,24.5,37.4c.8,1.2,2.1,1.8,3.5,1.6l55.6-8.5c1.1-.2,2.1-.9,2.7-1.9,1.4-2.3,4.5-6.5,10.3-8,5.5-1.4,8.9-3.9,11.8-7.4,1.4-1.8,3.8-2.4,5.9-1.5h0c2.3,1.1,3.5,3.7,2.8,6.1-.9,2.8-2.6,6.5-6,9.9-.8.7-1.4,1.5-2,2.2-2.8,3.3-1.6,8.4,2.4,10.1,4.1,1.7,9.6,4.6,15.3,9.2,5.5,4.4,9.1,7.9,11.3,10.3,2.1,2.4,2.5,5.8,1,8.6h-.2Z"/>
      <path d="M169.5,363.6c-5.6,0-11-2.2-15.1-6.2l-41.4-40.8c-.1,0-.2-.2-.1-.4,0,0,0-.3.2-.4l38.6-31.7c.1,0,.2,0,.4,0s.3,0,.3.2l24.5,37.4c.7,1,1.9,1.5,3,1.4l55.6-8.5c1-.2,1.9-.8,2.4-1.6,1.4-2.4,4.7-6.7,10.6-8.2,5-1.3,8.4-3.4,11.5-7.3,1.6-2,4.2-2.6,6.5-1.6,2.6,1.2,3.9,4,3.1,6.7s-2.6,6.6-6.1,10.1-1.4,1.4-2,2.2c-1.2,1.5-1.7,3.4-1.3,5.2.4,1.8,1.7,3.3,3.5,4.1,5.5,2.3,10.7,5.4,15.4,9.2,4.6,3.7,8.4,7.2,11.4,10.4,2.3,2.5,2.7,6.2,1,9.2-.2.3-.5.6-.8.9.2.8.2,1.7,0,2.5h0c-.4,1.8-1.6,3.3-3.2,4s-3.5.7-5.1-.2l-3.3-1.8-3,1.4c-2.6.8-5.4.5-7.8-.8l-24.2-14.3c-3.4-2-7.5-2.5-11.3-1.2l-56.2,19.1c-2.3.8-4.7,1.2-7,1.2h0ZM114.1,316.2l41,40.4c5.6,5.5,13.7,7.4,21.1,4.8l56.2-19.1c4-1.4,8.4-.9,12.1,1.3l24.2,14.3c2.1,1.2,4.6,1.5,6.9.8l3.1-1.5h.5l3.5,1.9c1.3.7,2.8.8,4.2.2,1.4-.6,2.3-1.8,2.6-3.2h0c.2-.8.1-1.6,0-2.3h0c0-.2,0-.4.2-.6.3-.2.6-.5.8-.8q0-.1,0,0c1.5-2.6,1.1-5.8-.9-8-2.9-3.2-6.7-6.7-11.3-10.3-4.7-3.8-9.8-6.8-15.2-9.1-2-.9-3.5-2.6-4-4.8s0-4.4,1.5-6.1c.6-.7,1.3-1.5,2.1-2.2,3.4-3.3,5.1-7.1,5.9-9.7.7-2.2-.4-4.5-2.5-5.5-1.9-.8-4-.3-5.3,1.3-3.2,4-6.8,6.3-12,7.6-5.5,1.4-8.6,5.5-10,7.8-.7,1.1-1.8,1.9-3.1,2.1l-55.6,8.5c-1.6.2-3.1-.5-4-1.8l-24.2-36.9-37.7,30.9h-.1Z"/>
    </g>
    <g>
      <g>
        <polyline class="st11" points="279 357.7 279 357.7 279 357.7"/>
        <path d="M279,358.2c-.1,0-.2,0-.4,0-.2-.2-.2-.5,0-.7.3-.3.9,0,.9.3s-.2.5-.4.5h-.1Z"/>
      </g>
      <g>
        <path class="st11" d="M290.1,353.5h0c-.8.5-1.9.5-2.7,0-6.3-3.9-23.8-14.7-29-16.7"/>
        <path d="M288.6,354.5c-.6,0-1.1-.2-1.6-.5-7-4.4-23.9-14.8-28.9-16.7-.3,0-.4-.4-.3-.6s.4-.4.6-.3c4.9,1.8,20.3,11.3,29.1,16.7.7.4,1.5.4,2.2,0h0c.2-.2.5,0,.6,0,.2.2.2.5,0,.7,0,0-.1,0-.2,0h0c-.5.3-1,.5-1.6.5h0Z"/>
      </g>
      <g>
        <polyline class="st11" points="252.2 343 275.8 355.9 279 357.7 279 357.7"/>
        <path d="M279,358.2h-.2l-26.8-14.7c-.2,0-.3-.4-.2-.7.1-.2.4-.3.7-.2l26.8,14.7c.2,0,.3.2.3.5s-.2.5-.5.5h0Z"/>
      </g>
      <g>
        <line class="st0" x1="279" y1="357.7" x2="279" y2="357.7"/>
        <path d="M279,358.2c-.1,0-.3,0-.4-.2-.2-.2-.2-.5,0-.7s.5-.2.7,0,.2.5,0,.7h0c-.1,0-.2.2-.4.2h0Z"/>
      </g>
    </g>
    <g>
      <path class="st11" d="M290,353.6c.3.8.3,1.7.1,2.6h0c-.8,3.4-4.5,5.1-7.6,3.5l-6.8-3.7-23.6-12.9"/>
      <path d="M285,360.8c-.9,0-1.9-.2-2.7-.7l-30.3-16.6c-.2,0-.3-.4-.2-.7.1-.2.4-.3.7-.2l30.3,16.6c1.3.7,2.8.8,4.2.2,1.4-.6,2.3-1.8,2.6-3.2h0c.2-.8.1-1.6-.1-2.4,0-.3,0-.5.3-.6.3,0,.5,0,.6.3.3.9.3,1.9.1,2.8h0c-.4,1.8-1.6,3.3-3.2,4-.8.3-1.6.5-2.4.5h.1ZM290.1,356.2h0Z"/>
    </g>
  </g>
  <g>
    <g>
      <path class="st11" d="M225.5,299.2l-17.3,4.7c-7.9-3.9-23.6-13.7-23.6-13.7,0,0,7-8.6,20.6-6.3s19.6,10,20.2,14.5v.8h0Z"/>
      <path d="M208.2,304.4h-.2c-7.8-3.9-23.5-13.6-23.6-13.7-.1,0-.2-.2-.2-.3s0-.3.1-.4c0,0,1.9-2.2,5.3-4.1,3.2-1.7,8.6-3.5,15.8-2.3,13.9,2.3,20,10.2,20.7,14.9v.9c0,.2-.2.4-.4.4l-17.3,4.7h-.2ZM185.4,290.1c2.8,1.7,15.8,9.8,22.9,13.2l16.8-4.6v-.3c-.7-4.4-6.5-11.8-19.8-14.1-11.4-1.9-18.1,4-19.8,5.7h-.1ZM225.5,299.2h0Z"/>
    </g>
    <g>
      <path class="st11" d="M191.9,290.3c-8.7-4.4-13.8-1.5-17.6,5.9-1.9,3.6-2.6,7.5-2.8,10.5-.2,3,1.8,5.8,4.8,6.5h0c2.7.6,5.2-1.2,5.6-3.9.5-3.4,1.4-7.8,2.9-10.8,2.9-5.6,7.1-8,7.1-8h0v-.2Z"/>
      <path d="M177.3,313.7c-.4,0-.7,0-1.1,0-3.2-.7-5.4-3.7-5.2-7,.3-4,1.3-7.6,2.9-10.7,4.3-8.4,9.9-10.3,18.2-6.1.2,0,.3.2.3.4s0,.3-.2.5c0,0-4.1,2.5-6.9,7.8-1.6,3-2.4,7.5-2.9,10.7-.2,1.4-1,2.7-2.2,3.5-.9.6-1.9.9-2.9.9h0ZM184.6,288.7c-4,0-7.1,2.5-9.8,7.7-1.5,2.9-2.4,6.5-2.8,10.3-.2,2.8,1.7,5.3,4.4,5.9,1.1.2,2.3,0,3.3-.7s1.6-1.7,1.8-2.9c.5-3.3,1.3-7.9,3-11,2.2-4.3,5.2-6.7,6.5-7.7-2.4-1.1-4.5-1.7-6.4-1.7h0Z"/>
    </g>
    <g>
      <path class="st11" d="M184.4,299.2c-1.8,4.1-1.9,7.8-1.7,10.4.2,2.1,1.8,3.8,3.9,4.2h.4c3.3.7,6.3-1.8,6.4-5.1,0-2.8.6-6,1.9-8.3,3-5,6.8-5.9,6.8-5.9,0,0-3.6-5.2-8.6-4.4-3.9.6-6.5,2.8-9.2,9.2h.1Z"/>
      <path d="M188,314.4h-1.4c-2.3-.5-4-2.4-4.3-4.7-.2-2.5-.2-6.3,1.7-10.6,2.6-6.1,5.3-8.8,9.6-9.5,5.2-.8,8.9,4.4,9.1,4.6,0,0,.1.3,0,.5s-.2.3-.4.3c0,0-3.6.9-6.5,5.7-1.1,1.8-1.7,4.5-1.9,8,0,1.7-.9,3.3-2.2,4.4-1.1.9-2.4,1.3-3.8,1.3h0ZM194.7,290.5h-1c-3.3.5-6,2.2-8.8,8.9h0c-1.8,4.1-1.9,7.8-1.6,10.1.2,1.9,1.6,3.4,3.4,3.7h.4c1.4.3,2.9,0,4-1,1.1-.9,1.8-2.2,1.8-3.6.1-3.7.8-6.5,2-8.5,2.4-3.9,5.1-5.4,6.4-5.9-1-1.2-3.5-3.8-6.7-3.8h.1ZM184.4,299.2h0Z"/>
    </g>
    <g>
      <path class="st11" d="M204.8,294.4c-5.2-.9-9.4,1.9-10.3,8.1-.5,3.1-.2,6.2.1,8.5.3,2.1,2.2,3.6,4.4,3.5h0c2.1,0,3.8-1.9,3.9-4,0-2.4.4-5.4,1.5-7.7,2-4.4,5.9-4.2,5.9-4.2,0,0-2.9-3.7-5.4-4.1h-.1Z"/>
      <path d="M198.7,314.9c-2.3,0-4.2-1.6-4.6-3.9-.3-2.1-.6-5.3-.1-8.6.5-3.2,1.9-5.6,3.9-7.1,1.9-1.4,4.3-1.8,7-1.4h0c2.7.5,5.6,4.1,5.7,4.3s.1.4,0,.5-.3.3-.5.3-3.5-.2-5.4,3.9c-1.1,2.3-1.4,5.4-1.4,7.5s-1.9,4.3-4.4,4.5h-.3,0ZM203,294.8c-1.7,0-3.2.5-4.5,1.4-1.8,1.3-3,3.5-3.5,6.4-.5,3.1-.2,6.2.1,8.3.3,1.8,1.9,3.2,3.8,3.1,1.9,0,3.4-1.6,3.4-3.5s.4-5.5,1.5-7.9c1.5-3.3,4-4.1,5.3-4.4-1-1.1-2.8-2.9-4.5-3.2h0c-.6,0-1.2-.2-1.8-.2h.2Z"/>
    </g>
    <g>
      <path class="st11" d="M212,299.5c-3.2-2.3-6.6-1-8.1,2.7-.9,2.2-.9,4.8-.7,6.6.1,1.3,1,2.4,2.3,2.7h0c2.2.5,4.5-.7,5.3-2.8.3-.7.6-2.6.9-3.3.9-2.4,3.4-3.3,3.4-3.3,0,0-.9-.9-3.1-2.5h0Z"/>
      <path d="M206.5,312.1c-.4,0-.7,0-1.1,0-1.5-.3-2.6-1.6-2.7-3.1-.1-1.9-.1-4.5.8-6.8.8-2.1,2.2-3.5,3.9-4,1.6-.5,3.3,0,4.9,1,2.2,1.6,3.1,2.5,3.1,2.5.1,0,.2.3.1.5,0,.2-.1.3-.3.4,0,0-2.3.9-3.1,3-.1.3-.3,1-.4,1.7-.2.7-.3,1.3-.5,1.7-.8,2-2.7,3.3-4.8,3.3h.1ZM208.8,298.8c-.4,0-.7,0-1.1.2-1.4.4-2.6,1.6-3.3,3.4-.8,2.1-.8,4.6-.7,6.3,0,1.1.9,2,1.9,2.2,2,.5,4-.6,4.7-2.5.1-.3.3-.9.4-1.5.2-.7.3-1.4.5-1.8.7-1.7,2.1-2.8,3-3.3-.5-.4-1.3-1.1-2.5-1.9h0c-1-.7-2-1.1-3-1.1h.1Z"/>
    </g>
  </g>
  <g>
    <path class="st9" d="M125.8,256.8c9.9,1.7,27.3,29.8,27.3,29.8l-40.2,33.4s-18-20.5-21.8-26.2"/>
    <path d="M112.9,320.4c-.1,0-.3,0-.4-.2-.7-.8-18.1-20.6-21.9-26.2-.1-.2,0-.5.1-.7s.5,0,.7,0c3.5,5.2,19,23,21.5,25.8l39.5-32.8c-2.1-3.3-17.8-27.6-26.8-29.1-.3,0-.4-.3-.4-.6s.3-.5.6-.4c10,1.8,27,28.8,27.7,30,.1.2,0,.5-.1.7l-40.2,33.4s-.2,0-.3,0h0Z"/>
  </g>
  <g>
    <path class="st10" d="M46.2,344.8c-.7-.3-1.3-.6-2-1l2,1Z"/>
    <path d="M46.2,345.3h-.2c-.7-.3-1.4-.6-2-1-.2,0-.3-.4-.2-.7s.4-.3.7-.2l2,1c.2,0,.3.4.2.7,0,.2-.3.3-.5.3h0Z"/>
  </g>
  <g>
    <path class="st9" d="M215.7,435.2l-65.4,41.7c-10.1,6.4-18.7,2.5-18.7-9h0c0-11.6,8.4-25.6,18.5-31.2l65.5-35.9c7.1-3.9,12.6.5,12.6,9.7h0c0,9.2-5.5,20.2-12.6,24.7h.1Z"/>
    <path d="M141.2,480.5c-1.7,0-3.3-.4-4.6-1.1-3.5-1.9-5.4-6-5.4-11.5,0-11.7,8.4-25.9,18.8-31.6l65.5-35.9c3.2-1.8,6.3-1.9,8.8-.5,2.9,1.7,4.6,5.6,4.6,10.7,0,9.5-5.6,20.5-12.8,25.1l-65.4,41.7c-3.3,2.1-6.5,3.2-9.4,3.2h-.1ZM220.6,399.9c-1.5,0-3,.5-4.7,1.3l-65.5,35.9c-10,5.5-18.3,19.5-18.3,30.7s1.8,8.9,4.9,10.6c3.4,1.8,8.1,1.1,13-2l65.4-41.7c6.8-4.3,12.4-15.2,12.4-24.2s-1.5-8.3-4.1-9.8c-.9-.5-2-.8-3.1-.8h0Z"/>
  </g>
  <g>
    <ellipse class="st6" cx="293.6" cy="157.4" rx="8.5" ry="16.8"/>
    <path d="M293.6,174.6c-5,0-9-7.6-9-17.3s3.9-17.3,9-17.3,9,7.6,9,17.3-3.9,17.3-9,17.3ZM293.6,141.1c-4.4,0-8,7.3-8,16.3s3.6,16.3,8,16.3,8-7.3,8-16.3-3.6-16.3-8-16.3Z"/>
  </g>
  <g>
    <path class="st1" d="M333.9,359.7s-3.8.9-5.2-.7h0c-1.3-1.4-1.2-3.6.2-4.9l-.9-.9c-1.6-1.8-1.6-4.6.2-6.3,3.4-3.4,8.9-7.2,17.4-9.9,5.5-1.7,10.1-3.3,13.5-4.5,2.4-.8,2.6-4.1.5-5.3-.4-.2-.9-.5-1.3-.7-1.3-.7-3-1.8-4.4-2.7-1.1-.8-1.8-2-1.8-3.3s.2-1.5.7-2.2c1.2-1.8,3.5-2.5,5.5-1.8,2.7.9,6.5,2.2,10,3.3,6.3,1.9,11.7,9.6,11.7,9.6,0,0,12.9,4.3,25.4,6,12.6,1.6,31,1.7,31,1.7l-8.2,27.3-47.4-10.2c-6.2,2.5-22.9,6.3-22.9,6.3l-13.2,8.5c-2.2,1.4-5,1.3-7.1-.2-.7-.8-.7-1.6-.2-2.5,1.2-2.3,5.4-4.8,8.4-6.8,4.2-2.8,9.1-6.4,9.1-6.4-.4-1.4-1.1-3.2-1.8-5-5.6,1.9-14.7,7.7-17,9.6-2.6,2.1-3.9,5.1-2.4,6.9"/>
    <path d="M341.3,370.3c-1.4,0-2.8-.4-3.9-1.3-.7-.7-1.2-1.7-.4-3.2,1.1-2.1,4.4-4.3,7.4-6.2l1.1-.8c3.5-2.4,7.7-5.4,8.8-6.2-.3-1.1-.8-2.5-1.5-4.1-5.5,2-14.1,7.5-16.4,9.4-1.6,1.3-2.7,3-2.8,4.4,0,.7.1,1.3.5,1.8.2.2.1.5,0,.7-.2.2-.5.2-.7,0-.6-.7-.8-1.5-.7-2.5,0-.7.3-1.3.6-2-1.3.2-3.7.3-4.9-1h0c-1.3-1.5-1.3-3.7,0-5.2l-.5-.6c-1.8-2-1.8-5,.2-7,4.4-4.4,10.4-7.7,17.6-10,5.8-1.8,10.5-3.4,13.5-4.5.9-.3,1.5-1.1,1.6-2.1s-.4-1.8-1.2-2.3l-1.3-.7c-1.1-.6-2.5-1.5-4.4-2.7-1.3-.8-2-2.2-2-3.7s.3-1.7.8-2.5c1.4-2,3.9-2.8,6.1-2,2.8,1,6.5,2.2,10,3.3,6,1.8,11,8.5,11.8,9.6,1.5.5,13.5,4.4,25.2,5.9,12.4,1.6,30.7,1.7,30.9,1.7s.3,0,.4.2c0,0,0,.3,0,.4l-8.2,27.3c0,.2-.3.4-.6.3l-47.2-10.2c-6.1,2.4-21.4,6-22.8,6.3l-13.1,8.4c-1.1.7-2.4,1.1-3.7,1.1h-.2ZM353.1,347.4c.2,0,.4,0,.5.3.9,2,1.5,3.7,1.9,5,0,.2,0,.4-.2.5,0,0-5,3.6-9.1,6.4l-1.2.8c-2.7,1.8-6,4-7,5.9-.6,1-.2,1.6.1,2,1.9,1.3,4.5,1.4,6.5,0l13.2-8.5h.2c.2,0,16.8-3.9,22.9-6.3h.3l46.9,10.1,7.9-26.2c-3.4,0-19.2-.2-30.4-1.7-12.5-1.6-25.4-6-25.5-6s-.2,0-.2-.2c0,0-5.4-7.5-11.4-9.4-3.5-1.1-7.2-2.3-10-3.3-1.8-.6-3.9,0-5,1.6-.4.6-.6,1.2-.6,1.9,0,1.2.6,2.2,1.5,2.8,1.9,1.2,3.3,2.1,4.4,2.7l1.3.7c1.2.7,1.9,1.9,1.7,3.3-.1,1.4-1,2.5-2.3,2.9-3,1-7.8,2.7-13.5,4.5-7.1,2.2-12.9,5.5-17.2,9.8-1.6,1.5-1.6,4-.2,5.6l.9.9c.2.2.2.5,0,.7-1.2,1.1-1.3,3-.2,4.2h0c1,1,3.7.7,4.7.5h0c.5-.7,1.1-1.4,1.9-2,2.5-2,11.5-7.8,17.2-9.7h.2l-.2.2Z"/>
  </g>
  <g>
    <path class="st1" d="M464.2,370.2c-1.7,12.2-10,40.7-14.2,54.4-1.5,4.8-5.1,8.7-9.8,10.5l-67.8,26s-10.5,4.5-14.5,6.4-11,8.7-14.6,13.5c-2.1,2.7-5.6,8.1-8.3,12.2-1.4,2.1-3.6,3.2-5.9,3.2s-2.3-.3-3.4-.8c-2.4-1.3-3.4-4.3-2.2-6.8,1.6-3.4,4-8,6.8-12,2.2-3,5.1-6.9,7.7-10.3,1.5-2-.7-4.6-2.9-3.4-5.1,2.7-11.2,6.1-15.1,8.9-4.6,3.3-10.4,9-14.3,13.1-2.7,2.8-7.1,3.2-10.3,1.1h0c-1.7-1.1-2.3-3.2-1.7-5-1.1,1-2.6,1.5-4,1.5s-2.5-.4-3.5-1.1c-2.7-1.9-3.5-5.5-1.8-8.3,2.9-5.1,8-13.2,14.1-20.3,4.8-5.4,10.3-10,14.7-13.3-3.6.4-7.5,1-10.7,2-4.4,1.4-10.5,4.2-14.8,6.3-.7.3-1.4.5-2.1.5-2.1,0-4.1-1.4-4.6-3.7-.6-2.5.3-5.1,2.3-6.7,8.8-6.7,24.7-13.3,35.3-15.2,13.7-2.4,36.6,3.1,36.6,3.1l52.4-19c1.9-.7,3.3-2.2,4-4l10.6-28.8,42-4h0Z"/>
    <path d="M329,496.9c-1.2,0-2.5-.3-3.6-.9-2.7-1.4-3.7-4.7-2.5-7.4,1.5-3.2,4-8,6.9-12.1,2.4-3.3,5.5-7.5,7.7-10.3.7-.8.4-1.7,0-2.2s-1.3-.9-2.2-.4c-6.7,3.5-11.9,6.6-15,8.9-4.5,3.3-10.2,8.9-14.3,13-2.9,3-7.5,3.5-11,1.1-1.5-1-2.3-2.6-2.2-4.3-2.2,1.2-5,1.1-7.1-.3-2.9-2-3.7-5.9-2-9,3.1-5.4,8.1-13.4,14.2-20.3,4.4-5,9.4-9.3,13.3-12.2-3.5.4-6.5,1-8.8,1.7-4.4,1.4-10.5,4.2-14.7,6.3-.7.3-1.5.5-2.3.5-2.4,0-4.5-1.7-5.1-4-.7-2.7.3-5.5,2.5-7.2,8.6-6.5,24.5-13.3,35.5-15.3,13.1-2.3,34.6,2.6,36.6,3l52.2-19c1.7-.6,3.1-2,3.7-3.7l10.6-28.8c0-.2.2-.3.4-.3l42-4c.2,0,.3,0,.4.2,0,0,.2.3,0,.4-1.6,11.9-9.6,39.3-14.2,54.5-1.5,5-5.2,9-10.1,10.8l-67.8,26s-10.5,4.5-14.5,6.4c-3.9,1.8-10.7,8.5-14.4,13.4-2.2,2.9-6.1,8.9-8.3,12.2-1.4,2.2-3.8,3.4-6.4,3.4h.4ZM336.2,462.3c.9,0,1.6.4,2.1,1,.7.9,1,2.3,0,3.5-2.2,2.8-5.4,7-7.7,10.2-2.9,4-5.3,8.7-6.8,11.9-1.1,2.2-.2,4.9,2,6.1,1,.5,2,.8,3.1.8,2.2,0,4.3-1.1,5.5-3,2.6-4,6.2-9.5,8.4-12.2,3.7-4.9,10.7-11.8,14.8-13.7,4-1.9,14.4-6.4,14.5-6.4l67.8-26c4.6-1.8,8.1-5.5,9.5-10.2,4.5-15,12.3-41.6,14.1-53.7l-41.1,3.9-10.5,28.5c-.7,2-2.3,3.6-4.3,4.3l-52.4,19h-.3c-.2,0-22.9-5.4-36.4-3.1-10.9,1.9-26.7,8.7-35.1,15.1-1.9,1.4-2.7,3.8-2.1,6.1.5,1.9,2.2,3.3,4.2,3.3s1.3-.2,1.9-.4c4.3-2.1,10.4-4.9,14.9-6.3,3.4-1.1,7.8-1.7,10.8-2,.2,0,.4,0,.5.3s0,.5-.2.6c-4,2.9-9.7,7.6-14.6,13.2-6,6.9-11,14.8-14.1,20.2-1.5,2.6-.8,5.9,1.7,7.7,2.1,1.5,5,1.3,6.9-.4.2-.2.4-.2.6,0,.2,0,.3.4.2.6-.6,1.6,0,3.5,1.5,4.5,3.1,2.1,7.1,1.6,9.7-1,4-4.2,9.8-9.8,14.4-13.1,3.3-2.3,8.4-5.4,15.2-9,.5-.2.9-.3,1.3-.3h0Z"/>
  </g>
  <g>
    <path class="st9" d="M793.2,463.3c-11,6.1-23.2,5.2-37,1.8-12.2-3-23-7.3-31-9.9l-1.7,4c-.7,1.6-2,2.8-3.7,3.3-6.8,2.1-26,6.6-45.9-2.1-19.8-8.7-34.2-33.4-34.2-33.4,6.8-22.6,9.4-37.4,9.4-58s0-5,.2-7.2c3.8,15.2,20,23.2,37,37.9,16.9,14.7,29.8,28.7,41.6,42.4s43.3,27.2,65.3,21v.2Z"/>
    <path d="M774.7,468.3c-6.4,0-12.8-1.2-18.6-2.7-8.6-2.1-16.4-4.8-23.3-7.2-2.6-.9-5.1-1.8-7.3-2.5l-1.5,3.6c-.7,1.7-2.2,3.1-4,3.6-7.3,2.3-26.3,6.6-46.2-2.1-19.8-8.6-34.3-33.4-34.5-33.6v-.4c7-23.2,9.4-37.8,9.4-57.8s0-5.1.2-7.2c0-.2.2-.5.5-.5s.5,0,.5.4c2.7,10.9,11.8,18,23.4,26.9,4.3,3.3,8.8,6.8,13.4,10.8,18,15.7,31.2,30.3,41.7,42.5,12.3,14.3,43.9,26.8,64.8,20.9.2,0,.5,0,.6.3s0,.5-.2.6c-6.1,3.3-12.4,4.5-18.8,4.5h-.1ZM725.2,454.8h.2c2.4.8,5,1.7,7.8,2.7,6.9,2.4,14.6,5.1,23.2,7.2,10.2,2.5,21.8,4.3,32.7,0-21,3.3-49.8-8.6-61.5-22.1-10.5-12.2-23.6-26.7-41.6-42.4-4.6-4-9-7.4-13.3-10.7-10.7-8.2-19.3-14.9-22.9-24.6v4.2c0,20.1-2.4,34.7-9.3,57.9,1.4,2.3,15.3,24.9,33.9,33,19.6,8.6,38.4,4.3,45.5,2,1.5-.5,2.7-1.6,3.3-3l1.7-4c0-.2.3-.3.5-.3h-.2Z"/>
  </g>
  <path d="M725.2,455.8h-.2c-3.7-1.2-7.8-2.4-10.5-2.1-.3,0-.5-.2-.5-.5s.2-.5.5-.5c2.2-.2,5.5.5,10.9,2.2.3,0,.4.4.3.6,0,.2-.3.3-.5.3h0Z"/>
  <g>
    <path class="st9" d="M808.6,448.2c-.8,1.7-1.9,3.3-3.3,4.9-3.9,4.6-7.9,7.9-12.1,10.2h0c-22,6.2-53.5-7.3-65.3-21s-24.7-27.7-41.6-42.4c-16.9-14.7-33.2-22.7-37-37.9h0c.7-13.4,3.5-20.3,10.9-25.3-7.4,5.9-9.6,18,1.2,27s30.3,18.1,43.5,31.3,26.7,40.1,50.4,51.9,43.9,16.8,53.2,1.3h0Z"/>
    <path d="M781.4,465.3c-19.9,0-43.6-10.7-53.9-22.7-10.5-12.2-23.6-26.7-41.6-42.4-4.6-4-9-7.4-13.3-10.7-11.7-9-21-16.2-23.8-27.4h0c.7-13.8,3.7-20.7,11.2-25.8.2-.2.5,0,.7,0s0,.5,0,.7c-3.8,3-6,7.5-6.1,12.2,0,3.6,1.2,9,7.3,14,4.3,3.6,10.1,7.2,16.2,11.1,9.1,5.8,19.4,12.3,27.4,20.2,4.2,4.2,8.5,9.9,13.1,15.9,9.9,13.1,21.1,27.9,37.2,35.9,28.5,14.1,44.7,14.6,52.6,1.5,0-.2.4-.3.7-.2.2,0,.3.4.2.7-.9,1.7-2,3.4-3.3,5-3.8,4.5-7.8,7.9-12.2,10.3h0c-3.7,1-7.7,1.5-11.9,1.5h-.5ZM649.8,361.9c2.7,10.9,11.8,17.9,23.4,26.8,4.3,3.3,8.8,6.8,13.4,10.8,18,15.7,31.2,30.3,41.7,42.5,12.3,14.3,43.9,26.8,64.8,20.9,3.6-2,6.9-4.6,10.1-8-12,8.2-31.5.6-48-7.6-16.2-8.1-27.5-23-37.5-36.2-4.5-6-8.8-11.6-13-15.8-7.9-7.9-18.2-14.4-27.2-20.1-6.1-3.9-11.9-7.5-16.3-11.2-6.4-5.3-7.7-11-7.6-14.8,0-2.5.7-5,1.8-7.2-3.4,4.5-5,10.6-5.4,19.9h-.2Z"/>
  </g>
  <g>
    <path d="M808.6,448.2c-9.3,15.4-29.6,10.4-53.2-1.3s-37.1-38.6-50.4-51.9-32.7-22.3-43.5-31.3-8.6-21.1-1.2-27c1.1-.7,2.2-1.4,3.5-2.1,11.4-6,28.5-2.3,50.5,15.7s56,33.4,73.4,49.1c15.7,14.2,28.9,33,21,48.8h0Z"/>
    <path d="M790.3,458.4c-10.8,0-23.8-5.4-35.2-11.1-16.2-8.1-27.5-23-37.5-36.2-4.5-6-8.8-11.6-13-15.8-7.9-7.9-18.2-14.4-27.2-20.1-6.1-3.9-11.9-7.5-16.3-11.2-6.4-5.3-7.7-11-7.6-14.8,0-5,2.4-9.7,6.4-12.9,1-.7,2.2-1.4,3.5-2.1,8.8-4.6,24.9-5.7,51.1,15.8,10.7,8.8,24.3,16.9,37.4,24.8,13.9,8.4,27.1,16.3,36,24.3,27.5,24.8,25,41.5,21.1,49.3h0c-4.4,7.2-11,9.9-18.7,9.9h0ZM674.9,332.5c-4,0-7.7.8-11,2.6-1.3.7-2.4,1.4-3.4,2-3.7,3-6,7.5-6,12.1s1.2,9,7.3,14c4.3,3.6,10.1,7.2,16.2,11.1,9.1,5.8,19.4,12.3,27.4,20.2,4.2,4.2,8.5,9.9,13.1,15.9,9.9,13.1,21.1,27.9,37.2,35.9,28.5,14.1,44.7,14.6,52.6,1.6,3.8-7.5,6.1-23.8-20.9-48.1-8.9-8-22-15.9-35.8-24.2-13.2-7.9-26.7-16.1-37.5-24.9-14.7-12-28.1-18.2-39-18.2h-.2ZM808.6,448.2h0Z"/>
  </g>
  <path class="st5" d="M737.1,465.4c-1.2,4.1-13.3,47.7-20,73.8-3,11.7-8.2,22.8-13.2,31.8-7.4,13.2-24.3,17.8-37.3,10.1-13.2-7.8-30.8-21.8-60.5-48.8-50.8-46.3-101-119.5-101-119.5,0,0-5.8-1.2,8.8-29.4s42.9-39.7,42.9-39.7c0,0,13.5,8.4,21.5,12.2s24.9,3.3,42.7,17.1c11.7,9,17.4,14,23,18.4,1.1-1.1,2.4-2.3,4-3.4-.2,1.6-.3,3.1-.6,4.7-.2.3-.5.5-.7.8-4.6,5.7-6.8,15.5-5.3,26.9.7,5,2,10.3,4.2,15.7.5,1.4,1.1,2.7,1.8,4.1,11,23,26.7,39.5,50,45.8,23,6.2,35-5.8,39.4-20.6h.3Z"/>
  <path class="st8" d="M680.2,585.3c-4.8,0-9.6-1.3-13.8-3.8-13.8-8.1-31.9-22.8-60.5-48.9-49.2-44.9-98.6-116-101-119.5-.2,0-.6-.4-.9-1-1-2.1-1-8.6,9.6-29,14.5-28,42.9-39.8,43.2-39.9h.5c0,0,13.6,8.5,21.5,12.2,2.4,1.1,5.8,1.9,9.6,2.8,8.8,2,20.8,4.8,33.2,14.3,7.1,5.5,12.1,9.5,16,12.8,2.4,2,4.6,3.7,6.7,5.4,1.1-1.1,2.3-2.1,3.7-3.2.2,0,.4,0,.5,0s.3.3.2.5c-.2,1.8-.4,3.3-.6,4.7,0,0,0,.2,0,.3-.2.2-.5.5-.7.8-4.7,5.8-6.6,15.7-5.2,26.5.7,5.2,2.1,10.4,4.2,15.6.5,1.3,1.1,2.6,1.8,4,11.8,24.8,28.1,39.7,49.7,45.5,27.4,7.4,36.3-11.7,38.8-20.2,0-.3.4-.4.6-.3.3,0,.4.3.3.6,0,.5-13,46.4-20,73.8-2.5,10-7,20.8-13.2,31.9-3.7,6.5-9.7,11.2-17,13.2-2.4.6-4.8,1-7.2,1h.1ZM556.9,344.3c-2.7,1.2-28.8,13-42.4,39.3-10.6,20.5-10.3,26.4-9.6,28,.2.5.5.6.5.6,0,0,.2,0,.3.2.5.7,50.8,73.8,100.9,119.4,28.6,26.1,46.7,40.7,60.4,48.8,6.1,3.6,13.3,4.6,20.2,2.8,7-1.9,12.8-6.4,16.3-12.7,6.2-11,10.6-21.7,13.2-31.6,5.2-20.5,13.7-51.3,17.7-65.8-4.9,9-15.3,19-36.8,13.2-21.9-5.9-38.4-21-50.3-46-.7-1.5-1.3-2.8-1.8-4.1-2.1-5.3-3.5-10.6-4.2-15.8-1.5-11.1.5-21.3,5.4-27.3.2-.2.4-.5.6-.7,0-1,.3-2.2.4-3.4-1.1.9-2.1,1.8-3,2.7s-.5.2-.7,0c-2.2-1.7-4.5-3.5-7-5.7-4-3.2-8.9-7.3-16-12.8-12.2-9.4-24.1-12.2-32.8-14.2-3.9-.9-7.3-1.7-9.8-2.9-7.4-3.5-19.6-11-21.4-12.1h-.1Z"/>
  <path d="M627.7,528.9c-.2,0-.5-.2-.5-.4-2.5-21.6,6.1-103.4,8.4-116.8,1.7-9.4,2.7-15,8.3-20.6s.5-.2.7,0,.2.5,0,.7c-5.4,5.4-6.4,10.9-8,20-2.4,13.4-10.9,95.1-8.4,116.6,0,.3-.2.5-.4.5h0Z"/>
  <g>
    <path d="M647.7,392.7c0,.4,0,.8-.2,1.2-1.2,8.4-3.1,16.8-5.8,26.5-1.5-11.4.7-21.3,5.3-26.9.2-.3.5-.5.7-.8h0Z"/>
    <path d="M641.7,420.9h0c-.2,0-.4-.2-.5-.4-1.5-11.1.5-21.3,5.4-27.3.2-.3.5-.5.7-.8.2-.2.4-.2.6,0,.2,0,.3.3.3.5,0,.4,0,.8-.2,1.2-1.1,8-3,16.5-5.8,26.6,0,.2-.3.4-.5.4h0ZM646.9,394.4c-4,5.3-5.8,13.9-5,23.4,2.4-8.8,4-16.3,5-23.4Z"/>
  </g>
  <g>
    <path d="M738,459.7c0,1.7-.4,3.8-.9,5.8-4.4,14.8-16.4,26.8-39.4,20.6-23.3-6.3-39-22.7-50-45.8-.7-1.4-1.2-2.7-1.8-4.1,6,8,16,19.1,28.1,24.4,19.9,8.7,39.1,4.2,45.9,2.1,1.7-.5,3-1.7,3.7-3.3l1.7-4c3.7,1.2,8.1,2.8,12.9,4.4h-.2Z"/>
    <path d="M709.5,488.2c-3.5,0-7.5-.5-11.9-1.7-21.9-5.9-38.4-21-50.3-46-.7-1.5-1.3-2.8-1.8-4.1,0-.2,0-.5.2-.6s.5,0,.6,0c6.2,8.2,16.1,19,27.9,24.2,19.6,8.6,38.4,4.3,45.5,2,1.5-.5,2.7-1.6,3.3-3l1.7-4c0-.2.4-.4.6-.3,2.4.8,5,1.7,7.8,2.7,1.6.6,3.3,1.2,5.1,1.8.2,0,.3.3.3.5-.2,2.2-.5,4.2-.9,5.9-2.2,7.5-9,22.6-28.1,22.6h0ZM647.9,439.6c0,.2,0,.3.2.5,11.8,24.8,28.1,39.7,49.7,45.5,27.4,7.4,36.3-11.7,38.8-20.2.4-1.5.7-3.2.9-5.3-1.6-.6-3.2-1.1-4.7-1.6-2.6-.9-5.1-1.8-7.4-2.5l-1.5,3.6c-.7,1.7-2.2,3.1-4,3.6-7.3,2.3-26.3,6.6-46.2-2.1-10.5-4.6-19.5-13.7-25.8-21.4h0Z"/>
  </g>
  <path d="M634.1,427.3c0,0-.2,0-.3,0l-20.8-20.2h0c-11.3-19-16.4-23.6-33.3-35.1-.2-.2-.3-.5,0-.7s.5-.3.7,0c17,11.7,22.2,16.3,33.5,35.4l20.7,20.1c.2.2.2.5,0,.7s-.2.2-.4.2h0v-.2Z"/>
  <g>
    <ellipse cx="425" cy="293.1" rx="2.2" ry=".7" transform="translate(72.9 670.7) rotate(-81.6)"/>
    <path d="M424.5,295.7h0c-1.1-.2-.8-2.4-.8-2.9s.5-2.7,1.6-2.5.8,2.4.8,2.9-.4,2.6-1.5,2.6h0ZM425,291.5c0,.3-.3.8-.4,1.4v1.5c0-.3.3-.8.4-1.4h0v-1.5Z"/>
  </g>
  <path d="M424.8,318.1c-.2,0-.4,0-.5-.3s0-.5.2-.7c0,0,3.6-1.7,5.1-5.8,0-.3.4-.4.7-.3.3,0,.4.4.3.7-1.7,4.4-5.5,6.3-5.6,6.3h-.2Z"/>
  <path d="M445.3,308.4h-.3c-.2-.2-.3-.5,0-.7,0,0,.4-.7,1.2-2.9,1-2.7,2.9-4.1,5.2-3.6.3,0,.4.3.4.6s-.3.4-.6.4c-1.7-.4-3.2.7-4,2.9-.9,2.5-1.3,3.1-1.4,3.2,0,0-.2.2-.4.2h0Z"/>
  <g>
    <path class="st6" d="M598,344.2c-5.7-8.5-22-7.1-36.4,2.3-2.3,1.5-4.6,3.2-6.7,5.1-24.4,21.6-39.6,41.6-43.1,70.4v.3c-1.1,9.3,0,13.1,2.2,13.9-27.6-10.3-41.3-27.2-46.8-35.8,5.5-3.2,8.3-7.4,8.6-10.7,1.8-9.5,5.3-29.9,7.2-39.3.4-1.9.7-3.5,1.1-4.9h0c0-.2-2.7-7.9-11.4-15.1-8.9-7.3-18.4-7.7-27.2-5.5,8.6-7.1,32.5-14.2,52.1-10.5s31.5,12.6,42.7,14.4c11.2,1.8,40-4.3,54.9,11.4,1.2,1.3,2.2,2.6,3,3.9h-.2Z"/>
    <path d="M513.9,436.8h-.2c-27.4-10.3-41.2-27-47-36v-.4c0,0,0-.2.2-.3,5.7-3.3,8.1-7.6,8.3-10.3.7-3.5,1.5-8.5,2.5-13.8,1.6-9.2,3.5-19.6,4.7-25.5.3-1.7.7-3.2,1-4.8-.5-1.3-3.2-8.1-11.2-14.8-7.6-6.2-16.4-8-26.8-5.4-.2,0-.5,0-.6-.3s0-.5,0-.6c8.5-7,32.5-14.4,52.5-10.6,10.9,2.1,19.3,5.7,26.8,8.9,5.9,2.5,11,4.7,15.9,5.5,2.9.5,7,.4,11.7.3,13.6-.2,32.3-.6,43.5,11.2,1.2,1.2,2.2,2.6,3.1,4,.2.2,0,.5-.2.7s-.5,0-.7,0c-5.5-8.1-21.2-7-35.7,2.4-2.4,1.6-4.6,3.3-6.7,5.1-23.2,20.5-39.3,40.2-42.9,70.1v.3c-1.2,10,.4,12.8,1.9,13.4.3,0,.4.4.3.6,0,.2-.3.3-.5.3h0ZM467.8,400.7c5.7,8.8,18.8,24.2,44,34.3-1.2-2.3-1.4-6.4-.7-12.7v-.3c3.6-30.2,19.9-50.1,43.2-70.7,2.1-1.8,4.4-3.6,6.8-5.2,12.1-7.9,25.1-10,32.7-6.1-10.9-10.8-28.9-10.5-42.1-10.2-4.8,0-8.9.2-11.9-.3-5.1-.8-10.2-3-16.1-5.6-7.4-3.2-15.8-6.8-26.6-8.8-18.3-3.5-40.2,2.6-49.8,9,9.8-1.9,18.1,0,25.4,6.1,8.6,7.1,11.3,14.5,11.6,15.3v.2c0,.1,0,0,0,0-.4,1.6-.7,3.2-1,4.9-1.2,6-3,16.4-4.7,25.5-1,5.3-1.8,10.3-2.5,13.7-.3,2.9-2.7,7.3-8.4,10.7h0Z"/>
  </g>
  <g>
    <path d="M601.1,362.2c-9.6-3.3-17.8-4-22.6-6.3-5-2.4-12.2-6.6-16.9-9.4,14.4-9.4,30.7-10.8,36.4-2.3h0c3.8,6,4.1,12.4,3.1,18Z"/>
    <path d="M601.1,362.7h-.2c-4.7-1.6-9-2.6-12.8-3.5-3.9-.9-7.3-1.7-9.8-2.9-4.9-2.3-11.9-6.4-16.9-9.4-.2,0-.2-.2-.2-.4s0-.3.2-.4c15-9.8,31.3-10.7,37.1-2.2,3.3,5.3,4.4,11.5,3.2,18.4,0,0,0,.3-.2.3h-.4ZM562.5,346.5c4.9,3,11.5,6.8,16.2,9,2.4,1.2,5.8,1.9,9.7,2.8,3.7.8,7.8,1.8,12.4,3.3,1-6.4,0-12.2-3.1-17.1h0c-5.5-7.9-20.8-7-35,2h-.2Z"/>
  </g>
  <g>
    <path class="st6" d="M484,345.7h0c-.3,1.4-.7,3-1.1,4.9-1.8,9.4-5.4,29.8-7.2,39.3.4-4-2.8-9-13.1-11.5-5.3-1.3-12.4-1.9-21.9-1.4-10.3.5-17.1,2.8-21.7,5.5-9.5,5.8-9,14.1-9,14.7h0s-2.5-3.3-.3-11.2c2.2-7.8,22.8-50.3,35.5-60.9,8.9-2.2,18.3-1.8,27.2,5.5,8.8,7.2,11.3,14.9,11.4,15.1h.2Z"/>
    <path d="M410.1,397.6c-.2,0-.3,0-.4-.2,0-.2-2.7-3.7-.4-11.6,2.2-7.8,22.7-50.4,35.7-61.1h.2c10.8-2.7,19.8-.9,27.7,5.6,8.6,7.1,11.3,14.5,11.6,15.3v.2h0c-.4,1.7-.7,3.3-1,5-1.2,6-3,16.4-4.7,25.5-1,5.3-1.8,10.3-2.5,13.7,0,.3-.3.4-.6.4s-.5-.3-.4-.5c.4-3.7-2.8-8.5-12.7-11-5.7-1.4-13-1.9-21.7-1.4-9.1.5-16.3,2.3-21.5,5.5-9.3,5.7-8.7,13.9-8.7,14.2s0,.4-.3.5h-.3ZM445.5,325.5c-12.5,10.5-33.1,53-35.2,60.5-1.2,4.2-1,7.1-.5,8.8.4-3.1,2.2-8.6,9.1-12.9,5.3-3.2,12.7-5.1,21.9-5.6,8.8-.5,16.2,0,22,1.5,8.9,2.2,12,6,13,8.8.6-3.1,1.2-6.8,1.9-10.7,1.6-9.2,3.5-19.6,4.7-25.5.3-1.7.7-3.2,1-4.8-.5-1.2-3.2-8.1-11.2-14.7-7.6-6.2-16.3-8-26.7-5.4h0Z"/>
  </g>
  <g>
    <path d="M475.7,389.8c-.3,3.2-3.1,7.5-8.6,10.7-3,1.7-6.7,3.2-11.2,3.9,2.5-9,5.1-18.6,6.8-26.1,10.3,2.5,13.5,7.6,13.1,11.5h0Z"/>
    <path d="M455.9,404.9c0,0-.3,0-.4-.2,0,0-.2-.3,0-.5,3.1-10.9,5.3-19.6,6.8-26.1,0,0,0-.2.2-.3s.2,0,.4,0c13.3,3.2,13.7,10,13.5,12h0c-.3,3-2.8,7.5-8.8,11-3.3,1.9-7.1,3.3-11.4,4h-.2ZM463,378.9c-1.4,6.3-3.5,14.6-6.4,24.9,3.9-.7,7.3-2,10.3-3.7,5.7-3.3,8.1-7.6,8.3-10.3.4-3.7-2.7-8.4-12.2-10.8h0ZM475.7,389.8h0Z"/>
  </g>
  <path d="M484,346.1h0c-.3,0-.4-.3-.4-.6,1.3-5.4,2.2-7,2.2-7.1,0-.2.4-.3.7-.2.2,0,.3.4.2.7,0,0-.9,1.6-2.1,6.8,0,.2-.3.4-.5.4h0Z"/>
  <path d="M514,436.8h0c-.2,0-.4-.4-.3-.7s.3-.4.6-.3h0c.2,0,.4.4.3.7,0,.2-.2.3-.5.3Z"/>
  <g>
    <path d="M419.1,382.4l-6.4,17.4c-1.1-.7-2.1-1.6-2.5-2.8,0-.6-.5-8.9,9-14.7h0Z"/>
    <path d="M412.7,400.3h-.3c-1.4-.9-2.3-1.9-2.8-3v-.2c0-.4-.7-9.1,9.2-15.2.2,0,.4,0,.6,0,.2,0,.2.4.2.6l-6.4,17.4c0,0-.2.2-.3.3h-.2ZM410.6,397c.3.7.9,1.4,1.8,2.1l5.7-15.4c-7.7,5.4-7.5,12.5-7.5,13.3h0Z"/>
  </g>
  <g>
    <path d="M520.3,433.7c-2.2,1.9-4.5,3.2-6.2,2.7h0c-2.1-.8-3.3-4.6-2.2-13.9v-.3c2.3,3.2,5.2,7.1,8.5,11.6h0Z"/>
    <path d="M514.9,436.9c-.4,0-.7,0-1-.2h0c-2.7-1-3.5-5.8-2.5-14.4v-.3c0-.2.2-.3.4-.4.2,0,.4,0,.5.2,2.9,4.1,5.7,7.9,8.5,11.6.2.2,0,.5,0,.7-2.3,1.9-4.2,2.9-5.7,2.9h-.1ZM512.1,423.4c-1,9.2.5,11.8,2,12.4,1.3.4,3.2-.3,5.5-2.2-2.4-3.3-4.9-6.6-7.4-10.2h0Z"/>
  </g>
  <path d="M313.1,440.1c-.1,0-.3,0-.4-.2-.2-.2-.1-.5.1-.7,4.7-3.5,8.3-5.5,8.4-5.6.2,0,.5,0,.7.2.1.2,0,.5-.2.7,0,0-3.6,2-8.2,5.5h-.4Z"/>
  <path d="M293.6,481.6h-.2c-.3,0-.4-.4-.3-.6,0-.2.2-.4.3-.6,1.9-3.6,5.9-10.6,11.9-16.5,8.8-8.6,19.9-16.8,20-16.8.2-.2.5,0,.7,0s.1.5-.1.7-11.2,8.2-19.9,16.7c-5.8,5.8-9.8,12.6-11.7,16.2,0,.2-.1.3-.2.5,0,.2-.3.3-.5.3h0Z"/>
  <path d="M328.9,354.5c-.1,0-.3,0-.4-.2-.2-.2-.2-.5,0-.7,0,0,9.5-8.4,21.9-11.5.3,0,.5,0,.6.4,0,.3,0,.5-.4.6-12.1,3.1-21.4,11.2-21.5,11.3-.1,0-.2,0-.3,0h0Z"/>
  <path d="M353.1,348.4c-.2,0-.4,0-.5-.3-1.8-4.2-4.1-8.7-4.1-8.8-.1-.2,0-.5.2-.7s.5,0,.7.2c0,0,2.4,4.6,4.2,8.8.1.2,0,.5-.3.7h-.2Z"/>
  <path d="M353.1,348.4h0c-.3,0-.5-.2-.5-.5s.2-.5.5-.5.5.2.5.5-.2.5-.5.5Z"/>
  <g>
    <path class="st1" d="M354.9,352.9s-4.9,3.6-9.1,6.4c-3,2-7.1,4.6-8.4,6.8,0,0-1.9.2-3.5-1.3,0,0-.2-.2-.2-.3h0c-1.5-1.8-.2-4.8,2.4-6.9,2.3-1.9,11.4-7.7,17-9.6.8,1.8,1.5,3.6,1.8,5h0Z"/>
    <path d="M337.3,366.6c-.6,0-2.3,0-3.7-1.5-.1,0-.2-.2-.3-.3h-.1c-.5-.7-.8-1.6-.7-2.6.2-1.7,1.4-3.6,3.2-5.1,2.5-2,11.5-7.8,17.2-9.7.2,0,.5,0,.6.3.9,2,1.5,3.7,1.9,5,0,.2,0,.4-.2.5,0,0-5,3.6-9.1,6.4l-1.2.8c-2.7,1.8-6,4-7,5.9,0,.2-.2.2-.4.3h-.2,0ZM352.8,348.6c-5.5,2-14.1,7.5-16.4,9.4-1.6,1.3-2.7,3-2.8,4.4,0,.7.1,1.3.5,1.8.1.2.2.2.2.3,1.1,1,2.4,1.2,2.9,1.2,1.3-2,4.4-4.1,7.2-6l1.1-.8c3.5-2.4,7.7-5.4,8.8-6.2-.3-1.1-.8-2.5-1.5-4.1h0Z"/>
  </g>
  <path d="M354.9,353.4h-.2c-.2,0-.4-.4-.3-.7s3.5-8.1,9-10.5c5.4-2.4,11.5-2.5,11.7-2.5h0c.3,0,.5.2.5.5s-.2.5-.5.5c0,0-6.1,0-11.4,2.4-5.2,2.3-8.5,10-8.5,10,0,.2-.3.3-.5.3h.2Z"/>
  <g>
    <path d="M799.3,368.3c0,.2,0,.4-.2.5h0c0,0-.2.3-.4.5s0,0,0,0c-1.9,1.6-7.7.9-17.1-3.4-4.8-2.2-10.8-5.7-16.9-10,1.7-2.8,4.5-7,8-10.9,13.1,8.3,27.6,19.6,26.7,23.3h0Z"/>
    <path d="M795.7,370.6c-3.2,0-8.2-1.5-14.3-4.2-4.7-2.1-10.7-5.7-17-10-.2-.2-.3-.4-.2-.7,1.7-2.8,4.5-7,8-11,.2-.2.4-.2.6,0,10.5,6.7,28,19.3,26.9,23.8,0,.2-.2.5-.3.7h0c0,0-.2.3-.3.4h0v.2c-.7.6-1.8.9-3.3.9h-.1ZM765.3,355.7c6.1,4.2,11.9,7.6,16.5,9.7,9.9,4.5,15.1,4.8,16.5,3.5h0c0-.2.2-.3.3-.4h0v-.3h0c.7-2.9-10.5-12.5-26.1-22.5-3.2,3.6-5.7,7.4-7.4,10.1h.2Z"/>
  </g>
  <path d="M798.6,369.8c-.2,0-.3,0-.4-.2-.2-.2,0-.5,0-.7,0,0,.2-.2.3-.3,0-.2.4-.3.7-.2.2,0,.3.4.2.7,0,.2-.3.5-.5.6,0,0-.2,0-.3,0h0Z"/>
  <g>
    <path class="st9" d="M798.6,369.3c-1.3,1.5-4.6,4.8-12.3,10.8-4.8,3.7-8.3,7.3-10.7,10.2-18.3-12.6-43.8-25.4-61.5-39.9-4.2-3.4-8.2-6.3-12.1-8.8,5.3-8,16.4-24.5,16.4-24.5,0,0,11.7,7.9,23,19.7,6.4,6.7,14.9,13.6,23,19.2,6.2,4.3,12.2,7.8,16.9,10,9.4,4.3,15.2,5,17.1,3.4h.2Z"/>
    <path d="M775.7,390.7h-.3c-7.2-5-15.4-9.9-24-15.1-13.1-7.9-26.7-16.1-37.5-24.8-4.1-3.3-8.1-6.3-12-8.7,0,0-.2-.2-.2-.3v-.4c5.2-7.9,16.3-24.4,16.4-24.5,0,0,.2-.2.3-.2h.4c.1,0,11.9,8.1,23.1,19.7,6,6.2,14.2,13,23,19.2,6.2,4.3,12.2,7.8,16.9,10,9.9,4.5,15.1,4.8,16.5,3.5.2-.2.5-.2.7,0s.2.5,0,.7c-1.3,1.5-4.7,4.9-12.3,10.8-4.1,3.1-7.6,6.5-10.6,10.1,0,0-.2.2-.4.2h0v-.2ZM702.8,341.4c3.8,2.4,7.7,5.3,11.7,8.5,10.7,8.7,24.2,16.9,37.3,24.8,8.5,5.1,16.6,10,23.7,14.8,3-3.5,6.5-6.8,10.5-9.9,5.6-4.3,8.9-7.3,10.8-9.1-3.1.4-8.5-1-15.5-4.2-4.7-2.1-10.7-5.7-17-10-8.9-6.1-17.1-13-23.1-19.3-9.9-10.3-20.3-17.8-22.5-19.3-1.7,2.6-11,16.3-15.8,23.7h-.1Z"/>
  </g>
  <path d="M799.1,369.3c0,0-.2,0-.3,0-.2-.2-.2-.5,0-.7,0-.2.2-.3.2-.3.2-.2.5-.3.7-.2.2.2.3.5.2.7,0,0,0,0-.3.4,0,0-.2.2-.4.2h-.1Z"/>
  <g>
    <path class="st9" d="M851.6,332.3c-5,0-11.8-2.5-27.6-10.5-16.4-8.2-21.7-16.2-36.8-25.1-14.8-8.7-34.5-14-38.7-26.9,2-3,3.7-5.5,4.9-7.3.6-.8,1.4-1.4,2.3-1.8-3.3,1.8,3.5,11.5,15.5,17.5,12.7,6.3,20.6,9.9,41,25.7s36.8,20.3,40.2,20.9c3.5.6,3.3-1.3,2.9-2.4.2.5.4,1,.5,1.4.5,2.6-1.1,5.7-4.1,8.5h-.1Z"/>
    <path d="M851.6,332.8h0c-5.4,0-12.4-2.8-27.8-10.6-9.1-4.6-14.7-9-20.6-13.7-4.7-3.7-9.5-7.5-16.2-11.4-4.1-2.4-8.6-4.6-13-6.7-11.7-5.6-22.8-11-25.9-20.5v-.4c1.9-2.9,3.7-5.5,4.9-7.3.6-.9,1.5-1.6,2.5-2,.2,0,.5,0,.6.2s0,.5-.2.6c-.4.2-.6.6-.6,1.1,0,3.2,6.2,10.6,16.1,15.5l1.6.8c12,5.9,19.9,9.8,39.5,24.9,19.2,14.8,35.3,20,40,20.8,1.2.2,2.1,0,2.4-.3.3-.4,0-1.1,0-1.4s0-.5.3-.6c.2,0,.5,0,.7.3.2.5.4,1,.5,1.5.5,2.8-1,6-4.3,9,0,0-.2,0-.3,0h-.2ZM749,269.9c3.1,9,13.9,14.2,25.3,19.7,4.4,2.1,8.9,4.3,13,6.7,6.8,4,11.6,7.8,16.3,11.5,5.9,4.7,11.5,9,20.5,13.6,14.9,7.5,22.1,10.3,27.2,10.5,2.5-2.3,3.8-4.8,3.9-6.9-.6.5-1.6.6-3,.3-4.7-.8-21.1-6-40.4-21-19.5-15.1-27.4-19-39.3-24.8l-1.6-.8c-9.7-4.8-16.6-12.5-16.6-16.3h0c-.2,0-.4.2-.5.5-1.2,1.7-2.9,4.2-4.8,7.1h0Z"/>
  </g>
  <g>
    <path class="st9" d="M851.6,332.3c-5.3,4.9-15.3,9.1-27.2,8.9-18.7-.4-35.4-8.9-45.2-2.2-2.4,1.7-4.7,3.8-6.7,6-3.5,3.9-6.3,8.1-8,10.9-8.2-5.6-16.7-12.5-23-19.2-11.3-11.7-23-19.7-23-19.7,0,0,18.9-30.4,29.7-46.9,0-.1.2-.2.2-.4,4.2,12.9,23.9,18.2,38.7,26.9,15.1,8.9,20.4,16.9,36.8,25.1,15.9,8,22.6,10.4,27.6,10.5h.1Z"/>
    <path d="M764.6,356.4h-.3c-8.9-6.1-17.1-13-23.1-19.3-11.1-11.5-22.8-19.5-22.9-19.6-.2-.2-.3-.5-.2-.7.2-.3,19-30.6,29.7-46.9,0,0,0-.1,0-.2v-.2c.2-.2.4-.3.6-.2.2,0,.4.2.4.3,3,9.1,13.9,14.4,25.4,19.9,4.4,2.1,8.9,4.3,13,6.7,6.8,4,11.6,7.8,16.3,11.5,5.9,4.7,11.5,9,20.5,13.6,15.1,7.6,22.3,10.3,27.4,10.5.2,0,.4,0,.5.3s0,.4,0,.5c-4.9,4.5-14.7,9.3-27.5,9-7.1-.2-14-1.5-20.1-2.7-10.1-2-18.8-3.7-24.8.4-2.2,1.5-4.4,3.5-6.6,5.9-3.5,3.9-6.2,8-7.9,10.8,0,0-.2.2-.3.2h0v.2ZM719.2,316.9c2.2,1.5,12.7,9,22.7,19.4,5.9,6.2,13.9,12.8,22.5,18.8,1.7-2.8,4.4-6.8,7.7-10.5,2.2-2.5,4.5-4.5,6.8-6,6.3-4.3,15.2-2.6,25.5-.6,6.1,1.2,13,2.5,20,2.7,11.7.3,20.9-3.8,25.9-7.9-5.2-.5-12.3-3.3-26.6-10.5-9.1-4.6-14.7-9-20.6-13.7-4.7-3.7-9.5-7.5-16.2-11.4-4.1-2.4-8.6-4.6-13-6.7-11.3-5.5-22.1-10.6-25.6-19.5-10,15.4-26.9,42.4-29.1,46h0Z"/>
  </g>
  <g>
    <path d="M852.4,324.8c-3.4-.6-19.8-5.1-40.2-20.9-20.4-15.8-28.3-19.4-41-25.7-12-5.9-18.8-15.7-15.5-17.5h.2c0,0,.3-.1.4-.1h0c.8-.2,1.6-.2,2.4,0,3.7.8,10.1,2.9,18.1,8.7,12.8,9.1,24.3,17.8,41.5,25.6,15.8,7.2,33.1,19.8,36.8,27.3,0,0,0,.2.2.4.4,1.1.6,2.9-2.9,2.4h0v-.2Z"/>
    <path d="M853.6,325.4c-.4,0-.8,0-1.3,0h0c-4.7-.8-21.1-6-40.4-21-19.5-15.1-27.4-19-39.3-24.8l-1.6-.8c-9.7-4.8-16.6-12.5-16.6-16.3s.6-1.8,1.1-2c0,0,.2,0,.3-.1,0,0,.2-.1.5-.1h0c.9-.2,1.8-.2,2.6,0,4,.9,10.4,3.1,18.3,8.7,1.2.9,2.4,1.7,3.6,2.5,11.5,8.2,22.3,16,37.8,23,16.5,7.5,33.4,20.1,37,27.6,0,0,0,.2.2.4.4,1,.3,1.8,0,2.4-.4.5-1.1.8-2.1.8h0v-.2ZM852.4,324.3c1.2.2,2.1,0,2.4-.3.3-.4,0-1.1,0-1.4s0-.2,0-.3c-3.5-7.3-20.2-19.7-36.5-27.1-15.6-7.1-26.5-14.9-38-23.1-1.2-.9-2.4-1.7-3.6-2.5-7.8-5.6-14.1-7.7-18-8.6-.7-.2-1.5-.1-2.2,0h-.5c-.4.2-.6.6-.5,1.1,0,3.2,6.2,10.6,16.1,15.5l1.6.8c12,5.9,19.9,9.8,39.5,24.9,19.2,14.8,35.3,20,40,20.8h0l-.2.2Z"/>
  </g>
  <g>
    <path class="st6" d="M86.1,412c-1.1,12.4-7.9,21.9-15.2,21.3-.7,0-1.4-.2-2.1-.5h-.2c-.8-.4-1.5-.8-2.1-1.4-.5-.4-1.1-.9-1.5-1.5-3.8-4.2-5.9-11.8-5.1-20.4.9-10.2,5.7-18.4,11.4-20.7,1.2-.5,2.4-.7,3.6-.6h.3c.7,0,1.4.2,2,.5,6.2,2.2,10.1,12,9.1,23.2h-.2Z"/>
    <path d="M71.6,433.8h-.8c-.8,0-1.5-.2-2.2-.5h-.2c-.8-.4-1.6-.8-2.3-1.4-.5-.4-1.1-.9-1.6-1.5-4-4.4-6-12.4-5.2-20.7.9-10.2,5.6-18.7,11.7-21.1,1.2-.5,2.5-.7,3.8-.6h.3c.7,0,1.5.2,2.2.5,6.5,2.4,10.5,12.3,9.5,23.7h0c-.6,6.1-2.5,11.7-5.4,15.8-2.8,3.9-6.2,6-9.6,6h0l-.2-.2ZM69.1,432.3c.6.2,1.2.4,1.9.4,3.4.3,6.7-1.7,9.5-5.5,2.8-4,4.7-9.4,5.2-15.3,1-10.8-2.8-20.5-8.8-22.7-.6-.2-1.3-.4-1.9-.4h-.2c-1.1,0-2.3,0-3.4.6-5.6,2.2-10.2,10.6-11.1,20.3-.7,8.1,1.2,15.7,5,20,.5.5,1,1,1.5,1.4.6.5,1.3.9,2,1.2h.3c0,0,0,0,0,0ZM86.1,412h0Z"/>
  </g>
  <g>
    <path class="st9" d="M194.2,15.3v28.4c0,7,4.1,13.4,10.4,16.4l72.6,34.1c5.4,2.5,11.6-1.4,11.6-7.4v-23.7c0-6.7-3.7-12.8-9.6-16L206.1,8.1c-5.5-2.9-12,1-12,7.2h.1Z"/>
    <path d="M280.7,95.4c-1.2,0-2.5-.3-3.7-.8l-72.6-34.1c-6.5-3-10.7-9.6-10.7-16.8V15.3c0-3.1,1.6-5.9,4.2-7.4,2.6-1.6,5.8-1.7,8.5-.2l73.1,39c6.1,3.2,9.8,9.5,9.8,16.4v23.7c0,3-1.5,5.7-4,7.3-1.4.9-3,1.4-4.6,1.4h0ZM202.4,7.6c-1.4,0-2.7.4-4,1.1-2.3,1.4-3.7,3.9-3.7,6.6v28.4c0,6.8,4,13,10.1,15.9l72.6,34.1c2.4,1.1,5.1,1,7.4-.5s3.6-3.8,3.6-6.5v-23.7c0-6.5-3.6-12.5-9.3-15.5L206,8.5c-1.1-.6-2.4-.9-3.6-.9h0Z"/>
  </g>
  <path class="st9" d="M535.3,325.6c-12.3,22.1-22.7,46.7-27.9,66.3-3.8,13.7-5.9,28.7-6.1,41.7-9-3.8-16.5-7.3-22.6-11.8,3-35,17.4-74.1,34.2-104,7.5,3.2,13.3,6.9,19.3,7.8.9,0,2,0,3,0h0Z"/>
  <path class="st9" d="M87.4,130.3c-11.1,5.4-18.4,15.8-23.7,26.5-1.5,3-2.8,6-3.9,9.2-7.4,1-14.7.9-22.3,0v1.5c1.9.3,3.3.5,5.2.6,5.4.5,10.9.5,16.4,0-6.3,19.1-6.1,40.8,5.3,57.9,5.2,7.9,11.6,14,19.5,19.2l.5-.5c1-1,1.6-2.2,1.9-3.6l.4-2c-11.3-7.4-20-17.3-24.1-31.3-3.6-13.1-2.6-27.3,1.9-40.4,10.4-1.8,20.3-6.1,27.8-13.8,4.1-4.5,7.9-9.3,9.4-15.5,1.9-9.5-7-11.3-14.2-7.8h0ZM95.1,144.8c-7,11.2-17.8,17.5-29.9,20.2,2.8-7.5,6.7-14.5,11.4-20.7,3.5-4.3,7.6-8.3,12.5-10.6,2.1-1.1,5-1.8,7.1-1.3,5,1.7.9,9.4-1,12.5h-.1Z"/>
  <path class="st9" d="M280.5,245.4c-34.1,5.9-68.2,14-102.7,14.6h-.2c-2.3.8-4.6,1.1-7,.8h0l1.2.9c3.2,1.8,6.2,3.8,8.8,6,0,0,.1,0,.2.1,33.8-.3,67.9-6.5,101.4-12,18.6-2.7,39.5-5.1,57.8-.7l6.6-10.3c-21.2-5.9-44.6-2.6-66,.7h-.1Z"/>
</svg>