<svg width="91" height="90" viewBox="0 0 91 90" fill="none" xmlns="http://www.w3.org/2000/svg">
<g clip-path="url(#clip0_2957_2116)">
<path fill-rule="evenodd" clip-rule="evenodd" d="M4.23876 50.0425C4.23876 27.513 22.5025 9.24923 45.032 9.24923C67.5615 9.24923 85.8252 27.513 85.8252 50.0425C85.8252 60.0576 82.221 69.2225 76.2327 76.3234L13.2704 76.074C7.70377 69.0452 4.23876 59.6746 4.23876 50.0425ZM11.2933 80.273L78.1237 80.5377C85.5164 72.5196 90.032 61.8084 90.032 50.0425C90.032 25.1897 69.8848 5.04247 45.032 5.04247C20.1792 5.04247 0.0319977 25.1897 0.0319977 50.0425C0.0319977 61.3784 4.37538 72.3604 11.2933 80.273ZM15.866 50.2083C15.866 34.5443 28.5642 21.8462 44.2282 21.8462C59.8922 21.8462 72.5904 34.5443 72.5904 50.2083C72.5904 56.2081 70.7297 61.7671 67.554 66.3476C66.8921 67.3022 67.1295 68.6127 68.0842 69.2746C69.0388 69.9364 70.3493 69.6991 71.0112 68.7444C74.6592 63.4826 76.7971 57.092 76.7971 50.2083C76.7971 32.221 62.2155 17.6394 44.2282 17.6394C26.2409 17.6394 11.6593 32.221 11.6593 50.2083C11.6593 57.092 13.7972 63.4826 17.4452 68.7444C18.1071 69.6991 19.4176 69.9364 20.3722 69.2746C21.3269 68.6127 21.5642 67.3022 20.9024 66.3476C17.7267 61.767 15.866 56.2081 15.866 50.2083ZM44.8577 58.1706C48.7645 58.1706 51.9315 55.0035 51.9315 51.0968C51.9315 47.19 48.7645 44.0229 44.8577 44.0229C40.9509 44.0229 37.7838 47.19 37.7838 51.0968C37.7838 55.0035 40.9509 58.1706 44.8577 58.1706ZM44.8577 62.3774C51.0878 62.3774 56.1383 57.3269 56.1383 51.0968C56.1383 50.7138 56.1192 50.3354 56.082 49.9623L64.7395 46.6916C65.9349 46.24 66.5379 44.9049 66.0863 43.7095C65.6347 42.5142 64.2996 41.9112 63.1042 42.3628L54.68 45.5453C52.7425 42.1245 49.0696 39.8161 44.8577 39.8161C38.6275 39.8161 33.577 44.8666 33.577 51.0968C33.577 57.3269 38.6275 62.3774 44.8577 62.3774Z" fill="url(#paint0_linear_2957_2116)"/>
</g>
<defs>
<linearGradient id="paint0_linear_2957_2116" x1="49.8398" y1="12.996" x2="56.4038" y2="99.9041" gradientUnits="userSpaceOnUse">
<stop stop-color="#FF784A"/>
<stop offset="1" stop-color="#5F61C6"/>
</linearGradient>
<clipPath id="clip0_2957_2116">
<rect width="90" height="90" fill="white" transform="translate(0.0319977)"/>
</clipPath>
</defs>
</svg>
