<?xml version="1.0" standalone="no"?>
<!DOCTYPE svg PUBLIC "-//W3C//DTD SVG 20010904//EN"
 "http://www.w3.org/TR/2001/REC-SVG-20010904/DTD/svg10.dtd">
<svg version="1.0" xmlns="http://www.w3.org/2000/svg"
 width="1285.000000pt" height="363.000000pt" viewBox="0 0 1285.000000 363.000000"
 preserveAspectRatio="xMidYMid meet">

<g transform="translate(0.000000,363.000000) scale(0.100000,-0.100000)"
fill="#000000" stroke="none">
<path d="M1926 3455 c-50 -7 -133 -16 -187 -20 -108 -8 -148 -25 -173 -73 -9
-17 -25 -97 -36 -178 -11 -82 -27 -185 -35 -229 -8 -44 -22 -134 -30 -200 -9
-66 -22 -151 -30 -190 -8 -38 -21 -126 -30 -195 -9 -69 -22 -154 -30 -190 -7
-36 -16 -94 -20 -130 -4 -36 -16 -112 -26 -170 -11 -58 -26 -152 -34 -210 -36
-251 -79 -490 -106 -575 -47 -154 -148 -254 -275 -275 -118 -19 -205 23 -248
121 -27 63 -36 161 -17 197 5 9 17 78 26 152 9 74 21 160 26 190 12 66 63 402
89 585 23 158 37 245 50 308 11 56 0 93 -32 107 -22 10 -175 -2 -368 -29 -78
-11 -90 -15 -111 -44 -23 -32 -34 -88 -63 -302 -15 -104 -33 -226 -41 -270 -8
-44 -24 -145 -35 -225 -12 -80 -25 -163 -30 -185 -5 -22 -17 -94 -25 -160 -9
-66 -20 -150 -25 -187 -28 -196 6 -411 85 -533 80 -123 150 -185 275 -242 179
-83 398 -82 599 2 277 115 487 341 599 645 40 111 86 281 107 400 9 52 21 106
25 120 5 14 16 88 25 165 30 263 47 335 97 424 31 55 151 181 172 181 6 0 22
9 36 20 14 10 58 27 98 37 178 42 317 -44 351 -218 10 -48 9 -77 -8 -176 -11
-65 -22 -145 -26 -178 -4 -33 -11 -77 -16 -97 -19 -76 -49 -347 -49 -449 0
-130 21 -238 66 -337 64 -141 222 -269 396 -323 105 -33 291 -33 398 0 184 58
310 132 438 261 160 160 257 344 327 615 37 143 65 277 71 335 7 78 26 203 53
362 42 241 156 386 354 453 90 30 124 31 197 5 84 -30 94 -27 134 33 80 116
106 157 106 163 0 3 29 50 64 103 36 53 70 109 77 124 7 15 16 27 21 27 5 0 8
10 6 23 -4 27 -100 77 -186 97 -100 23 -254 21 -358 -5 -92 -24 -202 -66 -239
-91 -31 -22 -45 -17 -45 15 0 54 -21 64 -124 56 -50 -4 -149 -15 -219 -25
-173 -23 -184 -35 -202 -215 -3 -33 -12 -94 -19 -135 -17 -90 -33 -197 -41
-265 -4 -27 -12 -84 -20 -125 -7 -41 -20 -122 -29 -180 -9 -58 -24 -163 -35
-235 -11 -71 -27 -179 -36 -240 -39 -273 -92 -428 -175 -514 -145 -149 -382
-114 -431 63 -12 43 -3 174 26 361 54 348 66 433 71 535 13 243 -59 447 -207
586 -39 36 -157 114 -173 114 -6 0 -24 7 -39 15 -54 28 -143 38 -294 33 -130
-5 -159 -9 -241 -36 -51 -17 -99 -34 -105 -39 -7 -5 -25 -15 -41 -21 l-29 -13
7 72 c4 39 16 124 28 188 29 173 47 310 48 367 0 78 -21 88 -154 69z"/>
<path d="M536 3295 c-73 -30 -138 -92 -174 -165 -23 -47 -27 -68 -27 -140 0
-73 4 -93 28 -143 48 -96 126 -158 226 -178 143 -28 288 42 341 165 12 28 26
59 31 68 5 10 9 47 9 83 0 236 -225 396 -434 310z"/>
<path d="M11429 2811 l-24 -19 -2 -303 c-2 -166 -4 -304 -7 -306 -2 -2 -20 7
-41 21 -69 47 -143 69 -252 74 -86 4 -111 1 -167 -18 -161 -53 -263 -164 -320
-349 -74 -235 -48 -544 60 -729 150 -256 462 -302 687 -101 30 27 58 46 60 42
3 -5 8 -24 12 -43 9 -41 33 -92 49 -102 31 -21 163 1 191 32 14 15 14 25 1 96
-11 63 -14 236 -15 876 -1 438 -4 803 -7 811 -9 25 -52 37 -128 37 -58 0 -79
-4 -97 -19z m-160 -767 c60 -17 131 -58 131 -77 0 -6 0 -154 1 -327 l0 -315
-48 -43 c-26 -23 -77 -57 -113 -75 -54 -26 -76 -32 -130 -32 -125 1 -185 54
-242 214 -29 79 -37 317 -14 414 52 222 190 303 415 241z"/>
<path d="M5762 2701 c-23 -4 -49 -14 -57 -22 -7 -8 -57 -138 -110 -289 -137
-387 -149 -421 -195 -550 -101 -279 -290 -821 -290 -830 0 -25 47 -40 127 -40
127 0 120 -7 199 217 l69 194 340 0 340 0 69 -195 c57 -162 72 -196 92 -205
31 -14 189 -14 215 -1 36 20 65 -67 -420 1299 -76 216 -144 398 -150 404 -22
22 -143 31 -229 18z m103 -368 c7 -44 20 -84 154 -472 45 -129 81 -238 81
-243 0 -4 -115 -8 -255 -8 -202 0 -255 3 -255 13 0 7 54 167 120 354 66 188
123 361 126 384 8 47 18 37 29 -28z"/>
<path d="M8761 2259 c-143 -32 -251 -92 -251 -140 0 -29 38 -104 67 -131 l23
-21 86 37 c114 49 208 69 309 64 159 -8 225 -69 225 -210 l0 -75 -142 -11
c-278 -23 -467 -87 -554 -186 -99 -114 -118 -310 -45 -454 46 -90 155 -155
287 -171 164 -20 292 19 426 131 l47 39 6 -28 c11 -51 36 -111 51 -124 19 -16
133 -5 175 16 30 16 31 18 25 68 -4 29 -10 246 -14 482 -9 449 -9 452 -55 541
-22 43 -92 108 -144 134 -124 62 -347 79 -522 39z m459 -803 l0 -124 -52 -48
c-29 -26 -82 -61 -118 -78 -58 -28 -75 -31 -157 -31 -77 0 -96 3 -119 21 -49
36 -67 70 -72 133 -9 128 61 196 232 225 119 21 138 23 219 25 l67 1 0 -124z"/>
<path d="M10202 2249 c-40 -19 -80 -50 -111 -86 -34 -38 -52 -52 -55 -42 -3 8
-10 33 -16 57 -6 24 -20 52 -32 64 -17 17 -28 19 -72 14 -81 -11 -125 -25
-136 -45 -6 -13 -5 -40 5 -87 12 -55 15 -172 15 -587 l0 -518 25 -24 c21 -22
33 -25 103 -25 65 0 84 4 106 21 l26 20 0 451 0 450 54 53 c68 65 107 80 195
71 119 -13 114 -14 130 19 20 41 26 129 11 164 -27 67 -146 82 -248 30z"/>
<path d="M12178 2256 c-107 -38 -179 -102 -224 -199 -21 -48 -26 -73 -26 -140
-1 -98 11 -146 52 -210 37 -58 121 -115 227 -152 185 -65 252 -108 274 -172
14 -44 4 -114 -22 -148 -74 -93 -263 -92 -425 1 l-41 24 -27 -21 c-33 -26 -66
-89 -66 -127 0 -57 107 -121 248 -148 249 -47 457 31 553 208 33 62 34 66 34
183 0 111 -2 124 -27 171 -15 28 -43 65 -63 83 -42 37 -147 91 -225 116 -131
42 -213 102 -231 168 -16 62 1 110 53 145 38 25 49 27 142 27 90 0 108 -3 161
-28 l60 -28 26 29 c40 44 65 117 51 147 -38 82 -348 126 -504 71z"/>
<path d="M6645 2263 c-29 -7 -45 -23 -45 -43 0 -10 39 -159 86 -332 48 -172
101 -367 119 -433 78 -288 116 -422 126 -447 14 -34 31 -38 160 -38 134 0 140
4 167 120 11 47 56 228 101 404 45 175 81 333 82 350 1 72 15 70 28 -5 6 -41
55 -245 107 -454 74 -298 99 -384 115 -397 31 -26 237 -26 267 0 15 11 31 55
52 137 17 66 37 140 45 165 7 25 37 133 65 240 28 107 57 215 65 240 43 140
116 434 113 452 -4 30 -42 48 -104 48 -75 0 -111 -15 -123 -53 -23 -70 -210
-827 -222 -894 -7 -40 -15 -73 -19 -73 -4 0 -10 23 -14 51 -8 61 -190 791
-232 931 -7 23 -57 38 -128 38 -100 0 -106 -6 -144 -150 -101 -389 -181 -714
-192 -780 -14 -84 -25 -115 -34 -90 -2 8 -12 58 -20 110 -9 52 -62 272 -118
489 l-102 394 -33 13 c-31 13 -126 17 -168 7z"/>
</g>
</svg>
