<svg width="91" height="90" viewBox="0 0 91 90" fill="none" xmlns="http://www.w3.org/2000/svg">
<path fill-rule="evenodd" clip-rule="evenodd" d="M53.4384 5.88477C52.6952 5.05005 51.4229 4.95786 50.5671 5.67671C50.3477 5.861 50.1276 6.0604 49.9087 6.2736C46.5439 9.2178 43.6872 9.69452 41.535 9.33959C39.2707 8.96615 37.4436 7.61322 36.388 6.38578C35.6551 5.53349 34.3751 5.42379 33.5078 6.13894C32.6405 6.85409 32.5043 8.1315 33.2013 9.01344C35.8956 12.4226 36.8377 14.9701 37.0111 16.7459C37.1657 18.3307 36.7234 19.4251 36.1618 20.1685C35.5974 20.5846 35.0401 21.0596 34.4908 21.596C34.4116 21.6734 34.3398 21.7558 34.2755 21.8422C29.9402 25.7766 23.5026 32.2906 18.7963 39.1201C16.585 36.6922 12.2906 29.5567 12.5437 19.1786C12.604 16.7071 13.2891 14.9519 14.2557 13.677C15.2343 12.3864 16.6039 11.4545 18.2301 10.8155C21.5438 9.51338 25.6249 9.54975 28.3848 10.0321C29.5086 10.2284 30.5788 9.47665 30.7752 8.35287C30.9716 7.22909 30.2198 6.15888 29.096 5.9625C25.8846 5.40128 20.974 5.29851 16.7192 6.97045C14.5612 7.81843 12.5024 9.15185 10.9638 11.181C9.41332 13.2258 8.49255 15.8447 8.41369 19.0778C8.12117 31.0708 13.2696 39.4497 16.1488 42.3289C16.2724 42.4525 16.4078 42.5572 16.5514 42.6429C16.4162 42.8751 16.2837 43.1072 16.1541 43.3391C12.8428 49.2646 9.72764 55.616 8.68364 61.532C7.61807 67.5703 8.68538 73.4283 14.047 77.7783C16.3445 79.6423 19.2153 80.4012 22.154 80.523C25.0918 80.6447 28.2393 80.1379 31.2778 79.3265C36.8149 77.8477 42.2814 75.2771 45.9949 73.1554C47.8325 74.3443 49.6789 75.4121 51.4905 76.2928C64.435 82.5852 73.8197 81.0488 78.291 77.8551C80.6052 76.2021 83.1532 72.947 83.5213 67.3529C83.8835 61.8475 82.1287 54.2237 76.2879 43.6927C76.2368 43.6005 76.1796 43.5137 76.1172 43.4326L76.1413 43.385L76.1552 43.3574C76.2742 43.1193 76.4141 42.8439 76.5713 42.5344C78.1939 39.3395 81.6605 32.5139 83.0491 25.7158C83.811 21.986 84.0087 17.9997 82.7271 14.5224C81.4138 10.9593 78.6373 8.17862 74.0447 6.77071C73.5062 6.51006 72.8536 6.33405 72.1624 6.21749C71.3196 6.07538 70.2793 5.99887 69.0363 6.02337C66.5488 6.07239 63.1708 6.52745 58.7959 7.74669C57.697 8.05295 57.0544 9.19209 57.3606 10.291C57.6669 11.39 58.806 12.0325 59.905 11.7263C64.0174 10.5802 67.0455 10.1946 69.1177 10.1538C70.1544 10.1334 70.9323 10.1996 71.4755 10.2912C71.9628 10.3734 72.1835 10.4629 72.2247 10.4797C72.2327 10.4829 72.234 10.4834 72.2291 10.4806L72.6801 10.6743C76.2312 11.721 78.0031 13.6514 78.8507 15.9511C79.7486 18.3871 79.6962 21.4881 79.0015 24.889C77.7332 31.0977 74.5285 37.4237 72.8867 40.6645L72.8866 40.6646C72.729 40.9757 72.5858 41.2584 72.4601 41.5098C72.0048 42.4204 71.0512 43.8004 69.6951 45.5189C68.3647 47.205 66.7307 49.1132 64.9973 51.0535C61.5315 54.933 57.7242 58.8785 55.281 61.3217C54.4743 62.1284 54.4743 63.4363 55.281 64.2429C56.0877 65.0496 57.3956 65.0496 58.2022 64.2429C60.6868 61.7584 64.5495 57.7557 68.0781 53.8059C69.842 51.8315 71.5364 49.8547 72.9383 48.078C73.1449 47.8162 73.3471 47.5563 73.5438 47.2992C78.4556 56.5839 79.6734 62.9094 79.3989 67.0817C79.1148 71.4011 77.2278 73.5376 75.8897 74.4933C73.0563 76.5172 65.3968 78.4593 53.2967 72.5773C43.6497 67.8878 32.5514 57.1786 28.1851 52.3526C27.4197 51.5066 26.1134 51.4413 25.2675 52.2067C24.4215 52.9721 24.3562 54.2783 25.1216 55.1243C28.254 58.5864 34.906 65.172 42.1966 70.5272C38.859 72.2856 34.5283 74.1824 30.2118 75.3351C27.4109 76.0832 24.7038 76.4938 22.3251 76.3953C19.9473 76.2967 18.0396 75.6976 16.6499 74.5702C12.7938 71.4416 11.861 67.2992 12.752 62.25C13.6646 57.0785 16.4628 51.2554 19.7605 45.3544C24.1728 37.4586 32.35 29.1296 37.3636 24.6194C37.9112 24.2612 38.4674 23.8022 38.9805 23.2357C41.1109 21.8117 43.0578 21.7785 44.724 22.2959C46.5277 22.856 48.08 24.0992 49.0353 25.2121C49.115 25.3108 49.1963 25.4094 49.2791 25.508C50.0053 26.3726 51.2912 26.4938 52.1662 25.7802C53.0412 25.0665 53.1811 23.7825 52.4803 22.8973C52.3958 22.7905 52.3078 22.6832 52.2164 22.5756C49.857 19.6339 49.466 16.934 49.8523 14.7219C50.2507 12.4408 51.5119 10.5056 52.7241 9.29922C52.9203 9.12563 53.1167 8.94623 53.3132 8.76089C54.1261 7.99394 54.1816 6.71949 53.4384 5.88477ZM61.0043 24.2962C60.2085 23.4788 58.9007 23.4614 58.0833 24.2572C57.266 25.0531 57.2485 26.3608 58.0444 27.1782C60.2039 29.396 64.9057 34.4248 66.8874 37.1991C67.5504 38.1275 68.8405 38.3425 69.7688 37.6794C70.6972 37.0163 70.9122 35.7262 70.2491 34.7979C68.0567 31.7285 63.1349 26.4843 61.0043 24.2962Z" fill="url(#paint0_linear_2957_2138)"/>
<defs>
<linearGradient id="paint0_linear_2957_2138" x1="45.984" y1="5.19272" x2="56.0206" y2="95.7675" gradientUnits="userSpaceOnUse">
<stop stop-color="#FF784A"/>
<stop offset="1" stop-color="#5F61C6"/>
</linearGradient>
</defs>
</svg>
