<svg width="91" height="90" viewBox="0 0 91 90" fill="none" xmlns="http://www.w3.org/2000/svg">
<g clip-path="url(#clip0_2957_2125)">
<path fill-rule="evenodd" clip-rule="evenodd" d="M10.6437 4.7699C4.77418 4.7699 0.0159912 9.52809 0.0159912 15.3976V70.1011C0.0159912 75.9707 4.77417 80.7289 10.6437 80.7289H48.149C49.3229 80.7289 50.2745 79.7772 50.2745 78.6033C50.2745 77.4294 49.3229 76.4778 48.149 76.4778H10.6437C7.12198 76.4778 4.26707 73.6229 4.26707 70.1011V28.4399H79.724V47.8196C79.724 48.9935 80.6757 49.9451 81.8496 49.9451C83.0235 49.9451 83.9751 48.9935 83.9751 47.8196V15.3976C83.9751 9.52808 79.2169 4.7699 73.3474 4.7699H10.6437ZM79.724 24.4427V15.3976C79.724 11.8759 76.8691 9.02098 73.3474 9.02098H10.6437C7.12199 9.02098 4.26707 11.8759 4.26707 15.3976V24.4427H79.724ZM16.5135 17.1718C16.5135 19.2237 14.8061 20.8759 12.7163 20.8759C10.6128 20.8759 8.91912 19.2237 8.91912 17.1718C8.91912 15.1199 10.6128 13.4677 12.7163 13.4677C14.8198 13.4677 16.5135 15.1199 16.5135 17.1718ZM13.7817 17.1852C13.7817 16.6122 13.3036 16.1459 12.7163 16.1459C12.129 16.1459 11.6509 16.6122 11.6509 17.1852C11.6509 17.7581 12.129 18.2244 12.7163 18.2244C13.3036 18.2244 13.7817 17.7581 13.7817 17.1852ZM26.5117 17.1718C26.5117 19.2237 24.8043 20.8759 22.7145 20.8759C20.611 20.8759 18.9173 19.2237 18.9173 17.1718C18.9173 15.1199 20.611 13.4677 22.7145 13.4677C24.818 13.4677 26.5117 15.1199 26.5117 17.1718ZM23.7799 17.1852C23.7799 16.6122 23.3018 16.1459 22.7145 16.1459C22.1272 16.1459 21.6491 16.6122 21.6491 17.1852C21.6491 17.7581 22.1272 18.2244 22.7145 18.2244C23.3018 18.2244 23.7799 17.7581 23.7799 17.1852ZM32.7129 20.8759C34.8027 20.8759 36.5101 19.2237 36.5101 17.1718C36.5101 15.1199 34.8164 13.4677 32.7129 13.4677C30.6094 13.4677 28.9157 15.1199 28.9157 17.1718C28.9157 19.2237 30.6094 20.8759 32.7129 20.8759ZM32.7129 16.1459C33.3002 16.1459 33.7783 16.6122 33.7783 17.1852C33.7783 17.7581 33.3002 18.2244 32.7129 18.2244C32.1256 18.2244 31.6475 17.7581 31.6475 17.1852C31.6475 16.6122 32.1256 16.1459 32.7129 16.1459ZM90.016 69.2975C90.016 71.7064 88.5706 74.4555 85.354 75.1781L85.3398 75.164C85.2264 75.1923 85.1273 75.2915 85.0706 75.419C85.0422 75.5041 84.9997 75.6741 85.1131 75.8583C86.8844 78.6499 86.0483 81.6256 84.4187 83.3544C82.775 85.1115 79.8417 86.1034 77.0077 84.3321L76.6534 84.1196C76.5542 84.0487 76.4125 84.0346 76.285 84.0912C76.2 84.1196 76.0583 84.2188 76.0016 84.4455C75.2506 87.7472 72.4874 89.2209 70.0784 89.2209C67.6695 89.2209 64.9063 87.7472 64.1552 84.4455C64.0986 84.2188 63.9569 84.1196 63.8718 84.0912C63.7443 84.0346 63.6026 84.0487 63.4892 84.1196L63.1491 84.3321C60.3293 86.0893 57.396 85.1115 55.7381 83.3544C54.1085 81.6256 53.2725 78.6357 55.0438 75.8583C55.1571 75.6741 55.1146 75.5041 55.0863 75.419C55.0438 75.2773 54.9304 75.1923 54.817 75.164C51.6004 74.4555 50.155 71.6923 50.155 69.2833C50.155 66.8744 51.6004 64.1253 54.817 63.4026C54.9304 63.3743 55.0296 63.2751 55.0863 63.1476C55.1146 63.0626 55.1571 62.8925 55.0438 62.7083C53.2725 59.9309 54.1085 56.9552 55.7381 55.2264C57.396 53.4693 60.3293 52.4774 63.1491 54.2486L63.5034 54.4612C63.6168 54.532 63.7585 54.5462 63.886 54.4895C63.971 54.4612 64.1127 54.362 64.1694 54.1353C64.9204 50.8336 67.6836 49.3599 70.0926 49.3599C72.5015 49.3599 75.2647 50.8336 76.0158 54.1353C76.0724 54.362 76.2141 54.4612 76.2992 54.4895C76.4125 54.5462 76.5542 54.532 76.6676 54.4612L77.0219 54.2486C79.8417 52.4915 82.775 53.4693 84.4329 55.2264C86.0625 56.9552 86.8985 59.9451 85.1273 62.7225C85.0139 62.9067 85.0564 63.0767 85.0847 63.1617C85.1273 63.3034 85.2406 63.3885 85.354 63.4168C88.5706 64.1253 90.016 66.8885 90.016 69.2975ZM81.443 80.5628C81.9673 80.0102 82.2932 79.0608 81.6697 78.083H81.6555C80.8478 76.8219 80.7203 75.249 81.2871 73.8603C81.8539 72.4858 83.0017 71.508 84.4471 71.1821C85.524 70.9412 85.9066 70.0202 85.9066 69.2975C85.9066 68.5748 85.524 67.6537 84.4471 67.4128C83.0017 67.0869 81.8539 66.1092 81.2871 64.7346C80.7203 63.346 80.8478 61.7731 81.6555 60.5119C82.279 59.52 81.9531 58.5847 81.4288 58.0321C80.7911 57.3519 79.9551 57.2386 79.1757 57.7204L78.8215 57.9329C77.5745 58.7123 76.0866 58.8398 74.7263 58.273C73.3517 57.7062 72.3315 56.5017 72.0056 55.0422C71.7363 53.866 70.8011 53.4551 70.0784 53.4551C69.3557 53.4551 68.4205 53.866 68.1513 55.0422C67.8112 56.5017 66.8051 57.7062 65.4306 58.273C64.0702 58.8398 62.5682 58.7123 61.3212 57.9329L60.9669 57.7204C60.1876 57.2386 59.3515 57.3519 58.7139 58.0321C58.1896 58.5847 57.8636 59.5342 58.4871 60.5119C59.2948 61.7731 59.4224 63.346 58.8556 64.7346C58.2887 66.1233 57.1409 67.0869 55.6956 67.4128C54.6186 67.6537 54.236 68.5748 54.236 69.2975C54.236 70.0202 54.6186 70.9412 55.6956 71.1821C57.1409 71.508 58.2887 72.4858 58.8556 73.8603C59.4224 75.249 59.2948 76.8219 58.4871 78.083C57.8636 79.075 58.1896 80.0102 58.7139 80.5628C59.3515 81.243 60.1876 81.3564 60.9669 80.8746L61.3212 80.662C62.058 80.1944 62.8799 79.9677 63.7018 79.9677C64.2828 79.9677 64.8638 80.0952 65.4306 80.322C66.8051 80.8888 67.8253 82.0932 68.1513 83.5528C68.4205 84.7289 69.3557 85.1398 70.0784 85.1398C70.8011 85.1398 71.7363 84.7289 72.0056 83.5528C72.3457 82.0932 73.3517 80.8888 74.7263 80.322C76.0866 79.7551 77.5887 79.8827 78.8356 80.662L79.1899 80.8746C79.9551 81.3564 80.8053 81.243 81.443 80.5628ZM60.8961 69.2975C60.8961 64.2245 65.0196 60.101 70.0926 60.101C75.1655 60.101 79.2891 64.2245 79.2891 69.2975C79.2891 74.3704 75.1655 78.494 70.0926 78.494C65.0196 78.494 60.8961 74.3704 60.8961 69.2975ZM70.0926 74.3988C72.9125 74.3988 75.1939 72.1032 75.1939 69.2975C75.1939 66.4776 72.9125 64.1962 70.0926 64.1962C67.2727 64.1962 64.9913 66.4918 64.9913 69.2975C64.9913 72.1032 67.2727 74.3988 70.0926 74.3988Z" fill="url(#paint0_linear_2957_2125)"/>
</g>
<defs>
<linearGradient id="paint0_linear_2957_2125" x1="49.8238" y1="13.667" x2="58.7168" y2="94.8066" gradientUnits="userSpaceOnUse">
<stop stop-color="#FF784A"/>
<stop offset="1" stop-color="#5F61C6"/>
</linearGradient>
<clipPath id="clip0_2957_2125">
<rect width="90" height="90" fill="white" transform="translate(0.0159912)"/>
</clipPath>
</defs>
</svg>
