<?xml version="1.0" standalone="no"?>
<!DOCTYPE svg PUBLIC "-//W3C//DTD SVG 20010904//EN"
 "http://www.w3.org/TR/2001/REC-SVG-20010904/DTD/svg10.dtd">
<svg version="1.0" xmlns="http://www.w3.org/2000/svg"
 width="665.000000pt" height="155.000000pt" viewBox="0 0 665.000000 155.000000"
 preserveAspectRatio="xMidYMid meet">

<g transform="translate(0.000000,155.000000) scale(0.100000,-0.100000)"
fill="#000000" stroke="none">
<path d="M620 1536 c-158 -34 -275 -99 -395 -220 -75 -75 -99 -107 -138 -186
-67 -135 -82 -199 -82 -355 0 -156 15 -220 82 -355 40 -80 62 -110 143 -190
80 -81 110 -103 190 -143 135 -67 199 -82 355 -81 151 0 218 14 341 75 196 96
349 283 405 496 29 109 29 287 0 396 -24 93 -84 210 -146 289 -92 117 -254
223 -400 263 -82 22 -273 28 -355 11z m350 -144 c194 -64 347 -216 416 -417
25 -70 28 -95 28 -200 0 -105 -3 -130 -28 -200 -69 -201 -222 -353 -416 -417
-89 -29 -253 -36 -341 -14 -239 60 -425 246 -485 486 -20 79 -15 266 8 320
l15 35 6 -55 c9 -78 67 -189 125 -241 241 -214 614 -85 673 233 38 207 -105
418 -313 462 -57 12 -60 14 -33 21 17 4 35 8 40 11 6 2 62 2 125 0 83 -2 133
-9 180 -24z m-283 -152 c221 -98 221 -414 -1 -511 -182 -80 -389 57 -389 256
0 203 204 337 390 255z"/>
<path d="M4193 1135 c-29 -20 -31 -75 -5 -98 23 -21 76 -22 96 -2 60 60 -22
149 -91 100z"/>
<path d="M4820 865 l0 -285 60 0 60 0 0 285 0 285 -60 0 -60 0 0 -285z"/>
<path d="M6250 865 l0 -285 65 0 65 0 0 64 c0 43 5 67 14 76 12 9 22 -1 58
-64 l43 -76 77 0 78 0 -75 109 c-41 60 -75 114 -75 120 0 7 21 35 47 64 26 29
56 62 67 75 l19 22 -75 0 -75 0 -52 -77 -51 -78 0 168 0 167 -65 0 -65 0 0
-285z"/>
<path d="M3958 1060 c-58 -14 -58 -14 -58 -52 0 -34 -3 -38 -25 -38 -23 0 -25
-4 -25 -45 0 -41 2 -45 25 -45 l25 0 0 -110 c0 -164 25 -200 137 -200 l63 0 0
50 c0 49 -1 50 -30 50 -41 0 -50 23 -50 124 l0 86 45 0 45 0 0 45 0 45 -45 0
-44 0 -3 53 -3 52 -57 -15z"/>
<path d="M2765 1056 c-36 -12 -40 -16 -43 -49 -3 -32 -7 -37 -28 -37 -22 0
-24 -4 -24 -45 0 -41 2 -45 24 -45 23 0 24 -2 28 -112 7 -167 34 -203 149
-196 l54 3 3 48 3 47 -36 0 c-46 0 -57 26 -53 129 l3 76 43 3 42 3 0 45 0 44
-45 0 -45 0 0 50 c0 56 -3 58 -75 36z"/>
<path d="M1940 964 c-19 -8 -42 -22 -52 -31 -17 -15 -18 -14 -18 10 0 26 -2
27 -56 27 l-57 0 7 -61 c3 -34 6 -158 6 -275 l0 -214 60 0 60 0 0 90 0 91 30
-16 c38 -20 103 -19 147 1 136 65 133 323 -4 380 -41 18 -79 17 -123 -2z m75
-109 c21 -20 25 -34 25 -80 0 -49 -4 -60 -29 -86 -36 -35 -64 -37 -96 -4 -21
20 -25 34 -25 85 0 51 4 65 25 85 13 14 36 25 50 25 14 0 37 -11 50 -25z"/>
<path d="M2358 966 c-94 -34 -132 -91 -132 -196 0 -75 16 -112 68 -158 61 -53
181 -58 254 -9 113 74 111 276 -3 343 -54 31 -135 40 -187 20z m109 -91 c27
-19 44 -89 33 -138 -11 -52 -36 -77 -76 -77 -48 0 -69 36 -69 118 0 57 3 66
28 88 32 28 54 30 84 9z"/>
<path d="M3108 970 c-81 -24 -132 -104 -132 -205 0 -111 61 -181 168 -192 73
-8 166 5 173 23 3 8 2 29 -1 48 -7 34 -7 34 -43 24 -21 -6 -60 -8 -87 -5 -39
3 -55 11 -75 33 l-24 29 126 3 c124 3 127 3 133 26 10 42 -15 134 -48 171 -42
49 -119 67 -190 45z m96 -91 c14 -11 26 -29 26 -40 0 -17 -8 -19 -70 -19 -43
0 -70 4 -70 11 0 16 56 69 73 69 8 0 26 -9 41 -21z"/>
<path d="M3576 957 c-46 -24 -48 -25 -53 -6 -4 15 -14 19 -54 19 l-49 0 0
-195 0 -195 60 0 60 0 0 125 c0 120 1 127 25 150 29 30 45 31 76 6 23 -18 24
-27 27 -150 l4 -131 59 0 59 0 0 143 c0 115 -3 148 -18 176 -38 76 -115 99
-196 58z"/>
<path d="M4457 966 c-60 -17 -62 -19 -50 -58 7 -24 14 -32 29 -30 111 15 125
15 144 -3 11 -10 20 -21 20 -25 0 -4 -26 -11 -57 -15 -105 -13 -162 -56 -170
-128 -6 -54 15 -101 57 -122 41 -21 108 -19 148 5 26 16 32 17 32 5 0 -12 13
-15 58 -15 l57 0 -5 152 c-6 169 -14 194 -73 225 -41 21 -132 26 -190 9z m141
-243 c-2 -25 -11 -42 -30 -56 -25 -19 -28 -19 -52 -3 -52 34 -14 93 62 95 21
1 23 -3 20 -36z"/>
<path d="M5236 970 c-16 -5 -39 -19 -52 -31 l-24 -22 0 26 c0 26 -2 27 -55 27
l-55 0 0 -275 0 -275 60 0 60 0 0 90 c0 50 3 90 8 90 4 0 16 -7 26 -15 32 -24
112 -19 162 10 58 34 84 90 84 182 0 93 -28 149 -90 181 -46 23 -76 26 -124
12z m65 -116 c20 -21 24 -36 24 -86 0 -53 -3 -62 -28 -84 -15 -13 -37 -24 -47
-24 -10 0 -32 11 -47 24 -25 22 -28 31 -28 84 0 50 4 65 24 86 14 15 35 26 51
26 16 0 37 -11 51 -26z"/>
<path d="M5597 966 c-61 -17 -66 -23 -55 -65 8 -28 12 -32 31 -26 46 14 115
17 136 6 37 -20 25 -38 -31 -45 -64 -8 -131 -39 -151 -69 -37 -58 -28 -128 24
-172 40 -33 116 -35 165 -4 29 17 34 18 34 5 0 -13 12 -16 55 -16 l55 0 0 118
c0 64 -5 137 -11 162 -23 102 -118 142 -252 106z m143 -232 c0 -36 -17 -63
-46 -74 -39 -15 -66 4 -62 43 3 35 34 57 81 57 22 0 27 -4 27 -26z"/>
<path d="M6113 961 c-17 -11 -35 -27 -41 -36 -7 -14 -10 -12 -15 14 -6 30 -9
31 -57 31 l-50 0 0 -195 0 -195 60 0 60 0 0 99 c0 144 18 181 89 181 l31 0 0
60 c0 56 -2 60 -22 60 -13 0 -37 -9 -55 -19z"/>
<path d="M4180 775 l0 -195 60 0 60 0 0 195 0 195 -60 0 -60 0 0 -195z"/>
</g>
</svg>
