<?xml version="1.0" standalone="no"?>
<!DOCTYPE svg PUBLIC "-//W3C//DTD SVG 20010904//EN"
 "http://www.w3.org/TR/2001/REC-SVG-20010904/DTD/svg10.dtd">
<svg version="1.0" xmlns="http://www.w3.org/2000/svg"
 width="779.000000pt" height="300.000000pt" viewBox="0 0 779.000000 300.000000"
 preserveAspectRatio="xMidYMid meet">

<g transform="translate(0.000000,300.000000) scale(0.100000,-0.100000)"
fill="#000000" stroke="none">
<path d="M1619 2982 c-106 -36 -185 -106 -237 -212 -23 -48 -26 -67 -27 -155
0 -92 3 -105 32 -167 102 -216 333 -297 549 -191 55 27 134 101 134 125 0 11
-147 108 -163 108 -3 0 -22 -18 -44 -39 -75 -75 -194 -63 -257 27 -24 34 -31
56 -34 106 -9 135 62 226 175 226 52 -1 120 -33 140 -68 l17 -29 78 56 c43 30
78 61 78 68 0 26 -74 94 -136 124 -55 27 -77 32 -157 36 -70 2 -105 -1 -148
-15z"/>
<path d="M0 2605 l0 -385 105 0 104 0 3 118 3 117 40 3 41 3 68 -121 68 -120
120 0 120 0 -20 33 c-11 17 -47 81 -81 140 l-62 108 23 19 c37 28 79 115 85
173 11 111 -53 229 -150 276 -40 19 -61 21 -255 21 l-212 0 0 -385z m375 180
c32 -31 33 -82 4 -119 -20 -25 -25 -27 -93 -24 l-71 3 -3 69 c-2 38 -1 75 2
83 4 9 25 13 71 13 57 0 69 -3 90 -25z"/>
<path d="M740 2605 l0 -385 280 0 280 0 0 90 0 90 -170 0 -170 0 0 65 0 65
140 0 140 0 0 85 0 85 -140 0 -140 0 0 55 0 55 165 0 165 0 0 90 0 90 -275 0
-275 0 0 -385z"/>
<path d="M2150 2605 l0 -385 110 0 110 0 0 121 0 120 41 -3 42 -3 66 -117 66
-117 118 -1 c64 0 117 2 117 4 0 2 -34 63 -75 135 -41 71 -75 134 -75 139 0 5
12 19 26 33 45 41 74 115 74 189 -1 105 -48 191 -133 240 l-52 30 -217 0 -218
0 0 -385z m370 195 c28 -15 43 -69 29 -108 -15 -43 -35 -52 -113 -52 l-66 0 0
85 0 85 66 0 c36 0 74 -4 84 -10z"/>
<path d="M2880 2772 c0 -120 5 -245 11 -278 23 -123 87 -211 188 -257 67 -32
235 -31 304 0 92 43 142 99 176 200 19 57 21 85 21 308 l0 245 -104 0 -105 0
-3 -237 c-3 -226 -4 -240 -26 -281 -56 -104 -192 -89 -232 26 -8 23 -14 120
-17 265 l-5 227 -104 0 -104 0 0 -218z"/>
<path d="M3710 2605 l0 -385 110 0 110 0 0 385 0 385 -110 0 -110 0 0 -385z"/>
<path d="M4010 2900 l0 -90 110 0 110 0 0 -295 0 -295 110 0 110 0 0 295 0
295 110 0 110 0 0 90 0 90 -330 0 -330 0 0 -90z"/>
<path d="M4750 2605 l0 -385 110 0 110 0 2 193 3 192 60 -132 59 -133 61 0 60
0 60 136 60 136 3 -196 2 -196 105 0 105 0 0 385 0 386 -117 -3 -116 -3 -80
-173 c-44 -95 -83 -169 -88 -165 -4 4 -41 82 -82 173 l-75 165 -121 3 -121 3
0 -386z"/>
<path d="M5690 2605 l0 -385 280 0 280 0 0 90 0 90 -170 0 -170 0 0 65 0 65
140 0 140 0 0 85 0 85 -140 0 -140 0 0 55 0 55 165 0 165 0 0 90 0 90 -275 0
-275 0 0 -385z"/>
<path d="M6350 2605 l0 -385 110 0 110 0 0 186 0 186 150 -186 151 -186 89 0
90 0 0 385 0 385 -110 0 -110 0 -2 -190 -3 -190 -150 190 -150 190 -87 0 -88
0 0 -385z"/>
<path d="M7130 2900 l0 -90 110 0 110 0 0 -295 0 -295 110 0 110 0 0 295 0
295 110 0 110 0 0 90 0 90 -330 0 -330 0 0 -90z"/>
<path d="M540 1620 l0 -390 110 0 110 0 2 196 3 197 60 -136 60 -137 60 0 60
0 62 138 62 137 1 -197 0 -198 110 0 110 0 0 390 0 390 -118 0 -118 0 -78
-172 c-43 -95 -82 -177 -86 -181 -3 -4 -44 73 -90 173 l-83 180 -119 0 -118 0
0 -390z"/>
<path d="M1697 2003 c-4 -6 -214 -658 -242 -750 -6 -23 -6 -23 103 -23 l110 0
19 73 20 72 109 3 110 3 19 -76 18 -75 110 0 c99 0 109 2 105 18 -3 9 -58 185
-123 390 l-119 372 -117 0 c-65 0 -120 -3 -122 -7z m153 -339 c41 -151 43
-144 -35 -144 -37 0 -65 4 -65 10 0 18 63 250 67 246 2 -2 17 -52 33 -112z"/>
<path d="M2290 1620 l0 -390 105 0 105 0 0 121 0 120 42 -3 42 -3 66 -115 66
-115 117 -3 c64 -1 117 0 117 3 0 3 -34 65 -75 136 -41 72 -75 134 -75 138 0
4 13 20 29 35 79 75 96 235 36 331 -40 64 -101 110 -165 124 -28 6 -132 11
-230 11 l-180 0 0 -390z m360 190 c28 -15 43 -69 29 -108 -15 -43 -35 -52
-113 -52 l-66 0 0 85 0 85 66 0 c36 0 74 -4 84 -10z"/>
<path d="M3060 1620 l0 -390 110 0 110 0 0 113 c0 111 0 114 28 140 l29 28 93
-141 93 -140 124 0 124 0 -19 28 c-41 59 -217 310 -248 353 l-33 46 139 171
c77 94 140 174 140 177 0 3 -54 5 -119 5 l-120 0 -115 -146 -116 -146 0 146 0
146 -110 0 -110 0 0 -390z"/>
<path d="M3850 1620 l0 -390 280 0 280 0 0 90 0 90 -170 0 -170 0 0 65 0 65
140 0 140 0 0 85 0 85 -140 0 -140 0 0 55 0 55 165 0 165 0 0 95 0 95 -275 0
-275 0 0 -390z"/>
<path d="M4490 1915 l0 -95 110 0 110 0 0 -295 0 -295 110 0 110 0 0 295 0
295 110 0 110 0 0 95 0 95 -330 0 -330 0 0 -95z"/>
<path d="M5270 1620 l0 -390 105 0 105 0 0 390 0 390 -105 0 -105 0 0 -390z"/>
<path d="M5650 1620 l0 -390 105 0 105 0 0 188 1 187 40 -45 c21 -25 90 -109
152 -187 l112 -142 88 -1 87 0 0 390 0 390 -105 0 -105 0 -2 -196 -3 -197
-154 197 -155 196 -83 0 -83 0 0 -390z"/>
<path d="M6745 1992 c-119 -41 -187 -101 -239 -212 -29 -60 -31 -73 -30 -165
1 -127 24 -192 97 -272 114 -124 311 -159 432 -77 l35 23 0 -29 0 -30 90 0 90
0 0 205 0 205 -160 0 -160 0 0 -75 0 -75 60 0 c33 0 60 -3 60 -7 0 -5 -15 -18
-34 -31 -104 -71 -219 -44 -272 64 -63 128 6 287 130 301 60 7 105 -10 151
-57 l38 -39 78 60 c84 64 85 65 42 114 -87 100 -273 144 -408 97z"/>
<path d="M1230 540 l0 -540 2645 0 2645 0 0 540 0 540 -2645 0 -2645 0 0 -540z
m4822 389 c64 -13 198 -67 198 -80 0 -5 -19 -46 -42 -93 l-41 -83 -66 30 c-82
39 -187 50 -197 22 -13 -32 12 -50 119 -87 179 -61 227 -99 248 -197 23 -107
-27 -213 -122 -261 -86 -44 -230 -46 -369 -4 -44 13 -124 47 -138 59 -1 1 18
45 42 98 l45 96 53 -29 c97 -53 223 -75 249 -44 23 28 -3 47 -112 84 -199 67
-244 111 -244 241 0 67 4 81 30 124 67 106 201 154 347 124z m-4007 -389 l122
-385 -100 -3 c-56 -1 -106 -1 -113 2 -6 2 -19 36 -29 75 l-17 71 -109 0 -108
0 -11 -42 c-6 -24 -16 -58 -21 -76 l-11 -32 -109 0 c-110 0 -110 0 -103 23 31
102 237 744 241 750 2 4 59 6 125 5 l120 -3 123 -385z m390 143 c43 -137 81
-254 85 -261 3 -7 16 19 30 62 l23 75 -61 178 c-34 98 -62 182 -62 186 0 4 45
7 99 7 l99 0 7 -27 c23 -97 58 -195 65 -182 4 8 20 58 35 112 l28 97 99 0 c54
0 98 -4 98 -8 0 -5 -28 -88 -63 -186 l-63 -177 25 -74 c14 -40 27 -72 28 -71
2 2 39 117 83 256 44 139 82 255 84 257 2 2 55 2 118 1 l115 -3 -146 -387
-146 -388 -95 0 -95 0 -54 135 c-31 75 -58 130 -62 124 -4 -7 -29 -67 -55
-135 l-49 -124 -95 0 -95 0 -128 338 c-70 185 -136 361 -147 390 l-20 52 118
0 119 0 78 -247z m1439 -131 c66 -207 121 -383 124 -389 3 -10 -22 -13 -107
-13 l-110 0 -11 43 c-6 23 -16 57 -21 75 l-11 32 -108 0 -108 0 -18 -75 -18
-75 -112 0 -113 0 9 28 c5 15 46 142 90 282 45 140 97 303 116 363 l36 107
121 0 122 0 119 -378z m692 354 c101 -47 161 -154 152 -270 -6 -71 -26 -116
-73 -166 l-33 -35 78 -135 c44 -74 79 -138 79 -142 1 -5 -52 -8 -116 -8 l-118
0 -68 120 -68 120 -40 0 -39 0 0 -120 0 -120 -110 0 -110 0 0 390 0 390 208 0
c196 0 210 -1 258 -24z m759 3 c57 -17 78 -31 130 -82 87 -86 109 -145 109
-287 0 -137 -23 -201 -103 -281 -91 -91 -132 -102 -383 -107 l-208 -4 0 391 0
391 194 0 c168 0 203 -3 261 -21z"/>
<path d="M1766 587 c-16 -62 -31 -118 -34 -124 -3 -10 14 -13 66 -13 l70 0
-32 119 c-17 66 -34 122 -36 125 -3 2 -18 -46 -34 -107z"/>
<path d="M3617 650 c-9 -30 -24 -88 -35 -127 l-19 -73 69 0 68 0 -6 28 c-4 15
-19 72 -34 127 l-27 100 -16 -55z"/>
<path d="M4320 660 l0 -80 74 0 c66 0 77 3 90 22 23 32 20 90 -4 116 -18 19
-32 22 -90 22 l-70 0 0 -80z"/>
<path d="M5090 540 l0 -200 60 0 c74 0 117 17 153 59 77 91 53 266 -43 320
-28 15 -55 21 -104 21 l-66 0 0 -200z"/>
</g>
</svg>
