<?xml version="1.0" standalone="no"?>
<!DOCTYPE svg PUBLIC "-//W3C//DTD SVG 20010904//EN"
 "http://www.w3.org/TR/2001/REC-SVG-20010904/DTD/svg10.dtd">
<svg version="1.0" xmlns="http://www.w3.org/2000/svg"
 width="1000.000000pt" height="700.000000pt" viewBox="0 0 1000.000000 700.000000"
 preserveAspectRatio="xMidYMid meet">

<g transform="translate(0.000000,700.000000) scale(0.100000,-0.100000)"
fill="#000000" stroke="none">
<path d="M659 6536 c-132 -54 -224 -163 -249 -297 -15 -76 -14 -5386 1 -5464
27 -148 135 -268 279 -309 50 -15 452 -16 4335 -14 l4280 3 66 32 c82 40 150
111 192 201 l32 67 3 2724 c2 2431 1 2731 -13 2785 -30 117 -106 208 -215 260
l-65 31 -4295 2 -4295 3 -56 -24z m2937 -908 c37 -7 64 -17 64 -24 0 -6 11
-15 25 -18 14 -4 25 -11 25 -16 0 -6 7 -10 15 -10 8 0 15 -4 15 -10 0 -5 7
-10 15 -10 8 0 15 -7 15 -15 0 -8 5 -15 10 -15 6 0 10 -7 10 -15 0 -8 7 -15
15 -15 8 0 15 -4 15 -10 0 -5 7 -10 15 -10 8 0 15 -9 15 -20 0 -11 7 -20 15
-20 9 0 15 -9 15 -25 0 -14 5 -25 10 -25 6 0 10 -18 10 -40 0 -29 4 -40 15
-40 13 0 15 -21 15 -125 0 -104 -2 -125 -15 -125 -11 0 -15 -11 -15 -40 0 -22
-4 -40 -10 -40 -5 0 -10 -9 -10 -20 0 -11 -7 -20 -15 -20 -8 0 -15 -9 -15 -20
0 -11 -7 -20 -15 -20 -8 0 -15 -9 -15 -20 0 -11 -7 -20 -15 -20 -8 0 -15 -7
-15 -15 0 -8 -4 -15 -10 -15 -5 0 -10 -6 -10 -14 0 -8 -12 -17 -26 -20 -15 -4
-33 -13 -41 -21 -7 -8 -32 -19 -53 -25 -22 -6 -40 -15 -40 -19 0 -5 -25 -12
-55 -16 -30 -3 -55 -11 -55 -16 0 -5 -105 -9 -255 -9 -163 0 -255 -4 -255 -10
0 -5 5 -10 10 -10 6 0 10 -7 10 -15 0 -8 7 -15 15 -15 8 0 15 -7 15 -15 0 -8
6 -15 14 -15 8 0 22 -18 32 -40 10 -22 21 -40 25 -40 4 0 10 -11 13 -25 4 -14
11 -25 16 -25 6 0 10 -18 10 -40 0 -27 5 -43 15 -46 12 -5 15 -25 15 -94 0
-57 -4 -90 -11 -92 -6 -2 -14 -27 -17 -56 -3 -35 -9 -52 -18 -52 -9 0 -14 -11
-14 -30 0 -20 -5 -30 -15 -30 -9 0 -15 -9 -15 -21 0 -22 -22 -49 -39 -49 -6 0
-11 -7 -11 -15 0 -8 -7 -15 -15 -15 -8 0 -15 -6 -15 -14 0 -8 -5 -16 -12 -18
-6 -2 -8 -10 -4 -16 5 -9 136 -12 527 -12 339 0 519 -3 519 -10 0 -5 18 -10
39 -10 22 0 46 -7 54 -15 8 -7 26 -17 41 -21 14 -3 26 -10 26 -15 0 -5 5 -9
11 -9 14 0 39 -25 39 -39 0 -6 7 -11 15 -11 8 0 15 -7 15 -15 0 -8 5 -15 11
-15 16 0 39 -26 39 -44 0 -9 7 -16 15 -16 8 0 15 -9 15 -20 0 -11 7 -23 15
-26 8 -4 15 -19 15 -34 0 -16 5 -32 10 -35 6 -4 10 -67 10 -156 0 -93 -4 -149
-10 -149 -5 0 -10 -13 -10 -30 0 -20 -5 -30 -15 -30 -9 0 -15 -9 -15 -24 0
-13 -7 -26 -15 -30 -8 -3 -15 -15 -15 -26 0 -11 -4 -20 -10 -20 -5 0 -10 -7
-10 -15 0 -8 -7 -15 -15 -15 -8 0 -15 -7 -15 -15 0 -8 -7 -15 -15 -15 -8 0
-15 -4 -15 -10 0 -5 -11 -12 -25 -16 -14 -3 -25 -10 -25 -14 0 -5 -13 -11 -30
-15 -16 -4 -30 -10 -30 -15 0 -26 -84 -30 -706 -30 -653 0 -716 3 -752 37 -7
7 -20 13 -28 13 -8 0 -14 7 -14 15 0 8 -7 15 -14 15 -15 0 -66 42 -66 54 0 10
-39 46 -50 46 -5 0 -10 11 -10 25 0 16 -6 25 -15 25 -9 0 -15 9 -15 24 0 14
-4 28 -10 31 -5 3 -10 24 -10 45 0 22 -5 40 -12 43 -18 5 -18 199 0 205 7 2
12 21 12 42 0 21 4 42 10 45 6 3 10 17 10 31 0 14 6 24 14 24 8 0 17 11 20 25
4 14 11 25 16 25 6 0 10 7 10 15 0 8 6 15 13 15 8 0 20 11 27 25 7 14 19 25
27 25 7 0 13 7 13 15 0 13 -22 15 -135 15 -82 0 -135 4 -135 10 0 5 -18 13
-40 16 -24 4 -40 12 -40 20 0 8 -9 14 -20 14 -11 0 -20 4 -20 10 0 5 -16 16
-35 24 -19 8 -35 20 -35 25 0 6 -7 11 -15 11 -8 0 -15 7 -15 15 0 8 -4 15 -10
15 -5 0 -10 7 -10 15 0 8 -7 15 -15 15 -8 0 -15 7 -15 15 0 8 -7 15 -15 15 -9
0 -15 9 -15 25 0 14 -4 25 -10 25 -5 0 -10 20 -10 45 0 33 -4 45 -15 45 -22 0
-22 248 0 256 10 4 15 20 15 44 0 22 5 42 10 45 6 3 10 15 10 26 0 11 7 22 15
25 8 4 15 12 15 20 0 8 6 14 13 14 7 0 21 16 31 35 11 20 30 38 43 41 66 17 1
24 -216 24 -160 0 -241 4 -243 11 -2 5 -24 13 -48 16 -25 3 -49 12 -53 19 -4
8 -20 14 -35 14 -16 0 -34 8 -42 20 -8 10 -27 22 -42 25 -15 4 -28 13 -28 21
0 8 -7 14 -15 14 -8 0 -15 5 -15 11 0 14 -25 39 -39 39 -6 0 -11 11 -11 25 0
14 -6 25 -13 25 -13 0 -37 53 -37 82 0 9 -7 18 -15 22 -12 4 -15 31 -15 151 0
120 3 147 15 151 8 4 15 12 15 20 0 30 25 94 37 94 7 0 13 9 13 20 0 11 7 20
15 20 8 0 15 7 15 15 0 8 5 15 10 15 6 0 10 7 10 15 0 8 7 15 15 15 8 0 15 4
15 9 0 5 14 12 30 16 17 4 30 11 30 17 0 19 28 37 81 51 45 12 211 15 998 16
684 1 961 -2 1007 -11z m1779 -203 l0 -50 -77 -3 -78 -3 0 -225 c0 -182 -3
-228 -14 -240 -19 -18 -66 -18 -66 0 0 8 -6 17 -12 20 -10 4 -10 7 -1 12 13 6
19 304 5 304 -4 0 -8 9 -9 20 -1 11 2 20 8 20 5 0 9 18 9 39 0 47 -8 51 -96
51 -36 0 -64 4 -64 10 0 6 -7 10 -15 10 -23 0 -21 77 3 83 9 3 105 4 212 3
l195 -1 0 -50z m376 45 c5 0 9 -52 9 -115 l0 -115 109 0 c126 0 120 -7 114
115 -4 90 8 125 43 125 56 0 54 11 54 -287 0 -297 -1 -303 -54 -303 -16 0 -26
6 -26 15 0 8 -3 15 -8 15 -4 0 -8 53 -8 118 l-1 117 -111 3 -112 3 0 -136 0
-135 -34 0 c-22 0 -36 6 -40 16 -3 9 -6 139 -6 289 0 252 1 274 18 278 9 3 23
3 30 1 8 -2 18 -4 23 -4z m987 4 c19 -6 22 -13 22 -55 l0 -49 -135 0 -135 0 0
-65 0 -65 120 0 120 0 0 -40 0 -40 -120 0 -121 0 3 -82 3 -83 129 -3 c135 -3
156 -10 156 -51 0 -12 -4 -21 -10 -21 -5 0 -10 -7 -10 -15 0 -13 -26 -15 -175
-15 -149 0 -175 2 -175 15 0 8 -4 15 -10 15 -5 0 -10 7 -10 16 0 8 5 12 10 9
6 -3 10 -1 10 4 0 6 -4 11 -10 11 -6 0 -10 88 -10 245 0 157 4 245 10 245 6 0
10 7 10 15 0 13 24 15 153 15 83 0 162 -3 175 -6z m-1358 -949 l0 -45 -80 0
-80 0 0 -241 c0 -260 -2 -269 -54 -269 -16 0 -26 6 -26 15 0 8 -4 15 -10 15
-5 0 -10 7 -10 15 0 8 5 15 10 15 14 0 12 47 -2 54 -10 5 -10 7 0 12 15 7 18
254 2 254 -5 0 -10 9 -10 20 0 11 5 20 10 20 18 0 11 49 -10 70 -15 15 -33 20
-72 20 -84 0 -98 7 -98 45 0 24 5 35 18 38 9 3 106 5 215 6 l197 1 0 -45z
m520 30 c0 -8 5 -15 10 -15 6 0 10 -13 10 -30 0 -20 5 -30 15 -30 11 0 15 -11
15 -40 0 -27 5 -43 15 -46 9 -4 15 -19 15 -40 0 -19 5 -34 10 -34 6 0 10 -18
10 -40 0 -29 4 -40 15 -40 10 0 15 -10 15 -29 0 -16 7 -36 15 -45 8 -8 15 -26
15 -40 0 -14 5 -26 10 -26 6 0 10 -16 10 -35 0 -22 6 -38 15 -41 8 -4 15 -10
15 -15 0 -5 -7 -9 -15 -9 -8 0 -15 -5 -15 -11 0 -5 -4 -7 -10 -4 -5 3 -10 1
-10 -4 0 -6 -7 -11 -15 -11 -8 0 -15 5 -15 10 0 6 -7 10 -15 10 -10 0 -15 10
-15 30 0 17 -4 30 -10 30 -5 0 -10 20 -10 45 l0 45 -110 0 -110 0 0 -30 c0
-20 -5 -30 -15 -30 -11 0 -15 -11 -15 -39 0 -43 -10 -51 -66 -51 -30 0 -34 3
-34 25 0 14 5 25 10 25 6 0 10 15 10 34 0 19 7 41 15 50 8 8 15 26 15 40 0 16
6 26 15 26 11 0 15 11 15 40 0 22 5 40 10 40 6 0 10 16 10 35 0 22 6 38 15 41
8 4 15 17 15 29 0 13 7 30 15 39 8 8 15 28 15 45 0 21 5 31 15 31 10 0 15 10
15 34 0 37 9 44 53 45 18 1 27 -4 27 -14z m568 9 l22 -6 0 -238 0 -238 28 -5
c15 -3 54 -4 87 -3 33 2 81 1 108 -2 l47 -5 0 -48 0 -49 -175 0 -175 0 0 300
c0 329 -4 310 58 294z m992 -39 l0 -45 -129 0 c-148 0 -141 5 -141 -96 l0 -64
120 0 120 0 0 -40 0 -40 -120 0 -121 0 3 -82 3 -83 132 0 c100 0 133 -3 133
-12 0 -7 7 -13 15 -13 9 0 15 -9 15 -25 0 -16 -6 -25 -15 -25 -8 0 -15 -7 -15
-15 0 -13 -26 -15 -175 -15 -149 0 -175 2 -175 15 0 8 -6 15 -12 15 -17 0 -16
532 1 538 6 2 11 10 11 18 0 12 31 14 175 14 l175 0 0 -45z m430 26 c0 -11 7
-26 15 -35 8 -8 15 -19 15 -25 0 -6 5 -11 10 -11 6 0 10 -11 10 -25 0 -14 7
-28 15 -31 8 -4 15 -15 15 -25 0 -11 7 -22 15 -25 8 -4 15 -17 15 -30 0 -13 5
-24 10 -24 6 0 10 -11 10 -25 0 -16 6 -25 15 -25 8 0 15 -9 15 -20 0 -11 7
-23 15 -26 8 -4 15 -15 15 -25 0 -10 5 -19 10 -19 6 0 10 70 10 189 0 124 4
192 11 196 6 4 26 4 45 1 l34 -7 0 -294 0 -295 -41 0 c-44 0 -68 19 -69 53 0
9 -7 17 -15 17 -8 0 -15 7 -15 16 0 8 -7 22 -15 30 -8 9 -15 24 -15 35 0 10
-4 19 -10 19 -5 0 -10 11 -10 25 0 16 -6 25 -15 25 -9 0 -15 9 -15 25 0 16 -6
25 -15 25 -9 0 -15 9 -15 24 0 14 -4 28 -10 31 -5 3 -10 17 -10 31 0 15 -6 24
-15 24 -13 0 -15 -27 -15 -180 0 -153 -2 -180 -15 -180 -8 0 -15 -4 -15 -10 0
-16 -38 -12 -60 7 -19 17 -20 29 -20 285 0 300 0 298 71 298 32 0 39 -4 39
-19z m1004 13 c11 -4 16 -19 16 -45 l0 -39 -80 0 -80 0 0 -240 c0 -207 -2
-240 -15 -240 -8 0 -15 -7 -15 -15 0 -20 -35 -19 -60 2 -19 17 -20 29 -20 255
l0 238 -80 0 -80 0 0 38 c0 21 3 42 7 45 8 9 386 9 407 1z m-3797 -922 c9 -6
13 -70 15 -242 l3 -235 133 -3 c77 -1 132 -7 132 -12 0 -6 7 -10 15 -10 10 0
15 -10 15 -30 0 -20 -5 -30 -15 -30 -8 0 -15 -4 -15 -10 0 -6 -65 -10 -175
-10 l-175 0 0 289 c0 267 1 290 18 294 27 7 36 7 49 -1z m806 -2 c13 0 17 -8
17 -35 0 -24 5 -35 15 -35 10 0 15 -10 15 -30 0 -20 5 -30 15 -30 11 0 15 -12
15 -45 0 -25 5 -45 10 -45 6 0 10 -16 10 -35 0 -24 5 -35 15 -35 11 0 15 -11
15 -40 0 -29 4 -40 15 -40 11 0 15 -11 15 -40 0 -22 5 -40 10 -40 6 0 10 -13
10 -30 0 -20 5 -30 15 -30 10 0 15 -11 15 -35 0 -34 -1 -35 -40 -35 -22 0 -40
5 -40 10 0 6 -7 10 -15 10 -11 0 -15 12 -15 45 0 25 -4 45 -10 45 -5 0 -10 11
-10 25 0 25 -1 25 -87 25 -121 0 -133 -4 -133 -46 0 -24 -5 -34 -15 -34 -10 0
-15 -11 -15 -35 0 -29 -4 -36 -25 -41 -34 -8 -75 3 -75 21 0 8 5 15 10 15 6 0
10 18 10 40 0 29 4 40 15 40 10 0 15 11 15 35 0 24 5 35 15 35 11 0 15 11 15
40 0 22 5 40 10 40 6 0 10 16 10 35 0 24 5 35 15 35 11 0 15 11 15 40 0 29 4
40 15 40 10 0 15 10 15 30 0 20 5 30 15 30 11 0 15 11 15 40 0 22 5 40 10 40
6 0 10 7 10 16 0 12 6 15 23 10 12 -3 30 -6 40 -6z m745 -7 c2 -7 15 -13 28
-13 13 0 24 -4 24 -10 0 -5 7 -10 15 -10 8 0 15 -9 15 -20 0 -11 7 -20 15 -20
12 0 15 -14 15 -70 0 -56 -3 -70 -15 -70 -8 0 -15 -4 -15 -10 0 -5 -7 -10 -15
-10 -8 0 -15 -4 -15 -10 0 -5 7 -10 15 -10 8 0 15 -7 15 -15 0 -8 7 -15 15
-15 8 0 15 -7 15 -15 0 -8 5 -15 10 -15 6 0 10 -33 10 -80 0 -47 -4 -80 -10
-80 -5 0 -10 -11 -10 -24 0 -19 -7 -26 -30 -31 -16 -4 -30 -10 -30 -15 0 -18
-68 -30 -169 -30 -58 0 -116 3 -128 6 l-23 6 0 274 c0 237 2 274 15 274 8 0
15 6 15 13 0 19 231 18 238 0z m736 -6 c10 -9 24 -17 31 -17 8 0 17 -9 20 -20
3 -11 11 -20 16 -20 5 0 9 -7 9 -15 0 -8 7 -15 15 -15 8 0 15 -4 15 -10 0 -5
-7 -10 -15 -10 -8 0 -15 -7 -15 -15 0 -27 -55 -19 -70 10 -7 14 -19 25 -26 25
-7 0 -14 6 -16 13 -3 7 -23 12 -50 12 -60 0 -78 -19 -78 -83 0 -48 1 -49 38
-60 20 -6 55 -13 77 -16 22 -3 41 -10 43 -16 2 -5 15 -10 28 -10 15 0 24 -6
24 -15 0 -8 7 -15 15 -15 8 0 15 -4 15 -10 0 -5 7 -10 15 -10 12 0 15 -16 15
-85 0 -49 -4 -85 -10 -85 -5 0 -12 -11 -16 -25 -3 -14 -12 -25 -20 -25 -8 0
-14 -6 -14 -14 0 -18 -48 -28 -130 -29 -75 0 -122 10 -133 29 -4 8 -15 14 -22
14 -8 0 -15 7 -15 15 0 8 -4 15 -10 15 -5 0 -10 11 -10 25 0 16 -6 25 -15 25
-9 0 -15 9 -15 25 0 18 9 28 37 42 27 12 38 14 41 5 2 -7 10 -12 18 -12 9 0
14 -11 14 -30 0 -20 5 -30 15 -30 8 0 15 -4 15 -10 0 -5 17 -12 38 -16 20 -4
40 -12 45 -18 5 -8 9 -8 15 0 4 6 18 15 32 19 40 12 50 25 50 63 0 36 -29 72
-57 72 -8 0 -21 7 -29 15 -9 8 -33 15 -55 15 -21 0 -39 5 -39 10 0 6 -13 10
-30 10 -20 0 -30 5 -30 15 0 8 -6 15 -14 15 -21 0 -46 133 -27 144 6 4 11 20
11 37 0 19 5 29 15 29 8 0 15 5 15 10 0 6 7 10 15 10 8 0 15 6 15 14 0 20 23
25 106 23 52 -2 75 -7 88 -20z m1060 -1362 c8 -8 32 -15 55 -15 30 0 41 -4 41
-15 0 -9 9 -15 25 -15 14 0 25 -4 25 -10 0 -5 11 -10 25 -10 16 0 25 -6 25
-15 0 -8 7 -15 15 -15 8 0 15 -6 15 -14 0 -8 11 -17 25 -20 14 -4 25 -13 25
-21 0 -8 7 -15 15 -15 8 0 15 -4 15 -10 0 -5 7 -10 15 -10 9 0 15 -9 15 -21 0
-22 22 -49 39 -49 6 0 11 -13 11 -30 0 -19 5 -30 14 -30 8 0 17 -11 20 -25 4
-14 11 -25 16 -25 6 0 10 -16 10 -35 0 -19 5 -35 10 -35 6 0 10 -63 10 -170 0
-107 -4 -170 -10 -170 -5 0 -10 -18 -10 -40 0 -29 -4 -40 -15 -40 -9 0 -15 -9
-15 -25 0 -16 -6 -25 -15 -25 -8 0 -15 -9 -15 -20 0 -11 -7 -20 -15 -20 -8 0
-15 -9 -15 -20 0 -11 -4 -20 -10 -20 -5 0 -10 -7 -10 -15 0 -8 -7 -15 -15 -15
-8 0 -15 -4 -15 -10 0 -5 -7 -10 -15 -10 -8 0 -15 -7 -15 -15 0 -8 -4 -15 -10
-15 -5 0 -10 -6 -10 -14 0 -8 -12 -17 -27 -21 -15 -3 -34 -15 -43 -25 -9 -10
-28 -22 -43 -25 -15 -4 -27 -11 -27 -15 0 -4 -18 -10 -40 -14 -22 -3 -40 -10
-40 -15 0 -5 -21 -12 -47 -16 -27 -4 -1508 -10 -3293 -12 -3351 -4 -3420 -4
-3458 34 -7 7 -24 13 -37 13 -12 0 -25 6 -28 14 -3 8 -24 20 -46 27 -23 7 -41
16 -41 21 0 12 -26 38 -37 38 -14 0 -73 55 -73 68 0 7 -4 12 -10 12 -5 0 -10
5 -10 10 0 13 -37 50 -50 50 -5 0 -10 14 -10 30 0 17 -4 30 -10 30 -5 0 -10
11 -10 25 0 16 -6 25 -15 25 -11 0 -15 11 -15 36 0 19 -7 42 -15 50 -12 12
-15 43 -15 140 0 104 2 124 15 124 11 0 15 11 15 39 0 22 7 46 15 55 8 8 15
24 15 35 0 12 5 21 10 21 6 0 10 9 10 20 0 11 7 20 15 20 8 0 15 9 15 20 0 11
7 23 15 26 8 4 15 12 15 20 0 8 5 14 10 14 6 0 10 7 10 15 0 8 7 15 15 15 8 0
15 5 15 10 0 6 7 10 15 10 8 0 15 7 15 15 0 8 7 15 15 15 8 0 15 5 15 11 0 16
25 37 54 45 14 3 29 10 32 15 3 5 14 9 25 9 10 0 19 4 19 10 0 5 18 13 40 16
22 4 40 10 40 15 0 4 8 10 18 12 9 3 1519 5 3354 6 2954 1 3338 -1 3352 -14z"/>
<path d="M1720 5570 c0 -5 -12 -10 -27 -10 -46 0 -133 -24 -133 -36 0 -7 -11
-15 -25 -18 -14 -4 -25 -11 -25 -16 0 -6 -7 -10 -15 -10 -8 0 -15 -4 -15 -10
0 -5 -7 -10 -15 -10 -8 0 -15 -9 -15 -20 0 -11 -7 -20 -15 -20 -9 0 -15 -9
-15 -25 0 -14 -4 -25 -10 -25 -5 0 -10 -11 -10 -25 0 -16 -6 -25 -15 -25 -11
0 -15 -11 -15 -41 0 -23 -7 -47 -15 -55 -8 -9 -15 -33 -15 -54 0 -21 7 -45 15
-54 9 -9 15 -34 15 -65 0 -39 4 -51 15 -51 8 0 15 -9 15 -20 0 -11 5 -20 10
-20 6 0 10 -9 10 -20 0 -11 7 -20 15 -20 8 0 15 -7 15 -15 0 -8 7 -15 15 -15
8 0 15 -7 15 -15 0 -8 7 -15 15 -15 8 0 15 -4 15 -10 0 -5 11 -12 25 -16 14
-3 25 -10 25 -14 0 -4 11 -11 25 -14 14 -4 25 -11 25 -16 0 -5 18 -13 40 -16
22 -4 40 -10 40 -15 0 -5 401 -9 916 -9 800 0 917 2 930 15 9 8 29 15 45 15
16 0 29 4 29 9 0 5 9 13 21 16 12 4 29 15 40 26 10 10 30 21 44 25 14 3 25 12
25 20 0 8 7 14 15 14 8 0 15 9 15 20 0 11 5 20 10 20 6 0 10 9 10 20 0 11 7
20 15 20 11 0 15 11 15 40 0 29 4 40 15 40 13 0 15 20 15 120 0 100 -2 120
-15 120 -10 0 -15 10 -15 29 0 16 -6 31 -15 35 -8 3 -15 15 -15 26 0 11 -4 20
-10 20 -5 0 -10 7 -10 15 0 8 -7 15 -15 15 -8 0 -15 7 -15 15 0 8 -5 15 -11
15 -14 0 -39 25 -39 39 0 6 -7 11 -15 11 -8 0 -15 4 -15 8 0 14 -94 42 -142
42 -27 0 -48 5 -48 10 0 7 -298 10 -875 10 -577 0 -875 -3 -875 -10z"/>
<path d="M2303 4657 c-24 -6 -43 -17 -43 -24 0 -7 -6 -13 -13 -13 -8 0 -27
-11 -43 -25 -16 -14 -35 -25 -41 -25 -7 0 -13 -7 -13 -15 0 -15 -6 -25 -37
-60 -7 -7 -13 -25 -13 -39 0 -16 -6 -26 -15 -26 -13 0 -15 -24 -15 -160 0
-136 2 -160 15 -160 10 0 15 -10 15 -30 0 -16 5 -30 10 -30 6 0 10 -7 10 -15
0 -8 7 -15 15 -15 9 0 15 -9 15 -25 0 -16 6 -25 15 -25 8 0 15 -4 15 -9 0 -5
11 -12 25 -15 14 -4 25 -11 25 -16 0 -6 7 -10 15 -10 8 0 15 -6 15 -13 0 -8
26 -19 63 -27 125 -30 557 -13 557 21 0 4 11 10 25 13 14 4 25 13 25 21 0 8 7
15 15 15 8 0 15 5 15 10 0 6 7 10 15 10 8 0 15 7 15 15 0 8 5 15 10 15 6 0 10
9 10 20 0 11 7 20 15 20 8 0 15 9 15 20 0 11 7 20 15 20 11 0 15 12 15 48 0
26 5 53 11 59 20 20 -3 252 -27 266 -8 4 -14 17 -14 27 0 11 -7 20 -15 20 -8
0 -15 9 -15 20 0 11 -4 20 -10 20 -5 0 -10 7 -10 15 0 8 -7 15 -15 15 -8 0
-15 5 -15 10 0 6 -6 10 -13 10 -8 0 -20 11 -27 25 -10 18 -25 27 -52 31 -21 4
-38 10 -38 15 0 13 -476 8 -527 -4z"/>
<path d="M2763 3767 c-24 -6 -43 -17 -43 -24 0 -7 -11 -13 -24 -13 -13 0 -31
-11 -42 -25 -10 -14 -24 -25 -31 -25 -7 0 -13 -7 -13 -15 0 -8 -7 -15 -15 -15
-8 0 -15 -9 -15 -20 0 -11 -4 -20 -10 -20 -5 0 -10 -9 -10 -20 0 -11 -7 -20
-15 -20 -11 0 -15 -11 -15 -40 0 -29 -4 -40 -15 -40 -12 0 -15 -19 -15 -110 0
-89 3 -112 15 -116 9 -4 15 -19 15 -40 0 -22 6 -37 15 -40 8 -4 15 -15 15 -25
0 -10 5 -19 10 -19 6 0 10 -5 10 -12 0 -12 87 -98 101 -98 4 0 12 -6 16 -13 4
-8 31 -20 58 -28 69 -19 1317 -21 1337 -1 6 6 18 12 25 12 8 0 24 11 36 24 12
13 33 27 47 31 32 10 50 29 50 54 0 12 6 21 15 21 8 0 15 9 15 20 0 11 6 20
14 20 20 0 28 49 33 208 3 95 1 142 -6 142 -6 0 -11 11 -11 25 0 14 -4 25 -10
25 -5 0 -12 11 -16 25 -3 14 -12 25 -20 25 -8 0 -14 7 -14 15 0 8 -4 15 -10
15 -5 0 -10 6 -10 14 0 8 -13 20 -30 28 -16 7 -30 19 -30 25 0 7 -6 13 -14 13
-8 0 -16 5 -18 11 -9 28 -104 33 -713 35 -405 1 -635 -2 -662 -9z"/>
<path d="M5840 4361 c0 -22 -4 -43 -10 -46 -5 -3 -10 -22 -10 -41 0 -24 -5
-34 -15 -34 -8 0 -15 -4 -15 -10 0 -6 28 -10 65 -10 l65 0 0 40 c0 22 -4 40
-10 40 -5 0 -10 18 -10 40 0 29 -4 40 -15 40 -8 0 -15 5 -15 10 0 6 -7 10 -15
10 -11 0 -15 -11 -15 -39z"/>
<path d="M5870 3475 c0 -8 -7 -15 -15 -15 -11 0 -15 -11 -15 -40 0 -22 -4 -40
-10 -40 -5 0 -10 -18 -10 -40 l0 -40 65 0 c51 0 65 3 65 15 0 8 -7 15 -15 15
-11 0 -15 11 -15 40 0 22 -4 40 -10 40 -5 0 -10 18 -10 40 0 29 -4 40 -15 40
-8 0 -15 -7 -15 -15z"/>
<path d="M6490 3485 l0 -75 65 0 c37 0 65 4 65 10 0 6 7 10 15 10 8 0 15 7 15
15 0 8 7 15 15 15 9 0 15 9 15 25 0 16 -6 25 -15 25 -8 0 -15 7 -15 15 0 9 -9
15 -25 15 -14 0 -25 5 -25 10 0 6 -7 10 -15 10 -8 0 -15 -4 -15 -10 0 -5 -7
-10 -15 -10 -8 0 -15 4 -15 8 0 4 -11 9 -25 10 -25 2 -25 1 -25 -73z"/>
<path d="M6490 3245 l0 -86 88 5 c48 2 90 5 95 5 4 1 7 12 7 26 0 14 5 25 10
25 6 0 10 9 10 20 0 11 -4 20 -10 20 -5 0 -10 9 -10 20 0 11 -7 20 -15 20 -8
0 -15 7 -15 15 0 12 -16 15 -80 15 l-80 0 0 -85z"/>
<path d="M1700 2203 c-30 -8 -57 -18 -60 -23 -3 -4 -15 -10 -27 -14 -13 -4
-23 -12 -23 -17 0 -5 -7 -9 -15 -9 -8 0 -15 -6 -15 -13 0 -12 -24 -28 -62 -43
-10 -3 -18 -13 -18 -20 0 -8 -7 -14 -15 -14 -8 0 -15 -6 -15 -14 0 -8 -7 -16
-15 -20 -8 -3 -15 -12 -15 -21 0 -8 -4 -15 -10 -15 -5 0 -10 -9 -10 -19 0 -10
-7 -21 -15 -25 -9 -3 -15 -18 -15 -36 0 -20 -5 -30 -15 -30 -11 0 -15 -11 -15
-40 0 -22 -5 -40 -11 -40 -7 0 -9 -42 -5 -127 6 -166 14 -223 32 -223 8 0 14
-10 14 -25 0 -16 6 -25 15 -25 8 0 15 -9 15 -20 0 -11 5 -20 10 -20 6 0 10 -9
10 -20 0 -11 7 -20 15 -20 8 0 15 -7 15 -15 0 -8 7 -15 15 -15 8 0 15 -7 15
-15 0 -8 5 -15 11 -15 14 0 39 -25 39 -39 0 -6 8 -11 18 -11 11 0 29 -9 42
-20 13 -11 29 -20 37 -20 7 0 13 -4 13 -8 0 -11 61 -29 123 -37 26 -4 47 -10
47 -16 0 -5 1243 -9 3280 -9 2076 0 3280 4 3280 10 0 5 17 12 38 15 101 16
152 30 152 42 0 8 12 13 30 13 20 0 30 5 30 15 0 8 5 15 10 15 6 0 10 6 10 14
0 8 14 17 30 21 17 4 30 13 30 21 0 8 5 14 10 14 6 0 10 7 10 15 0 8 7 15 15
15 8 0 15 7 15 15 0 8 6 15 13 15 8 0 20 18 27 40 7 22 19 40 27 40 9 0 13 13
13 40 0 29 4 40 15 40 13 0 15 26 15 170 0 144 -2 170 -15 170 -10 0 -15 11
-15 35 0 24 -5 35 -15 35 -9 0 -15 9 -15 25 0 14 -4 25 -10 25 -5 0 -10 11
-10 25 0 16 -6 25 -15 25 -8 0 -15 7 -15 15 0 8 -7 15 -15 15 -8 0 -15 7 -15
15 0 8 -4 15 -10 15 -5 0 -10 7 -10 15 0 8 -7 15 -15 15 -8 0 -15 5 -15 10 0
6 -7 10 -15 10 -8 0 -15 4 -15 10 0 5 -11 12 -25 16 -14 3 -25 12 -25 20 0 8
-10 14 -25 14 -15 0 -25 6 -25 14 0 9 -18 16 -52 21 -29 4 -1556 9 -3393 10
-2911 2 -3347 1 -3395 -12z m4650 -294 c0 -5 8 -9 18 -9 27 0 62 -34 62 -59 0
-12 7 -24 15 -27 9 -4 15 -19 15 -40 0 -24 -5 -34 -15 -34 -10 0 -15 -10 -15
-27 -1 -31 -21 -63 -39 -63 -6 0 -11 -11 -11 -25 0 -14 -5 -25 -11 -25 -14 0
-39 -25 -39 -39 0 -6 -7 -11 -15 -11 -8 0 -15 -7 -15 -15 0 -8 -7 -15 -15 -15
-8 0 -15 -7 -15 -15 0 -12 15 -15 73 -15 104 0 117 -5 117 -46 l0 -34 -160 0
-160 0 0 30 c0 17 5 30 11 30 14 0 39 25 39 39 0 6 7 11 15 11 9 0 15 9 15 25
0 15 6 25 14 25 8 0 20 14 28 30 7 17 19 30 25 30 7 0 13 7 13 15 0 8 6 15 13
15 14 0 37 40 37 65 0 8 7 15 15 15 8 0 15 9 15 19 0 10 -7 21 -15 25 -8 3
-15 12 -15 19 0 29 -27 40 -65 27 -29 -10 -35 -16 -35 -40 0 -21 -6 -29 -24
-34 -41 -10 -56 2 -56 45 0 21 5 39 10 39 6 0 10 7 10 15 0 8 7 15 15 15 8 0
15 7 15 15 0 9 9 15 21 15 11 0 26 6 34 13 14 15 75 11 75 -4z m1220 2 c3 -5
15 -11 28 -15 12 -4 22 -14 22 -22 0 -8 6 -14 14 -14 9 0 15 -16 18 -45 8 -66
-2 -135 -18 -135 -8 0 -14 -7 -14 -15 0 -8 -6 -15 -13 -15 -7 0 -19 -16 -26
-35 -7 -19 -19 -35 -27 -35 -8 0 -14 -7 -14 -15 0 -8 -7 -15 -15 -15 -8 0 -15
-7 -15 -15 0 -8 -4 -15 -10 -15 -5 0 -10 -7 -10 -15 0 -12 15 -15 74 -15 96 0
106 -4 106 -46 l0 -34 -160 0 -160 0 0 30 c0 17 5 30 11 30 15 0 35 22 43 48
4 12 12 22 17 22 5 0 9 7 9 15 0 8 7 15 15 15 8 0 15 7 15 15 0 8 7 15 15 15
8 0 15 7 15 15 0 8 5 15 10 15 6 0 10 7 10 15 0 8 7 15 15 15 8 0 15 9 15 20
0 11 6 20 14 20 8 0 15 14 18 37 6 50 -1 83 -18 83 -8 0 -14 5 -14 10 0 6 -11
10 -25 10 -14 0 -25 -4 -25 -10 0 -5 -7 -10 -15 -10 -8 0 -15 -9 -15 -20 0
-11 -7 -20 -15 -20 -8 0 -15 -7 -15 -15 0 -16 -9 -19 -34 -9 -18 7 -23 84 -6
84 6 0 10 7 10 15 0 8 7 15 15 15 8 0 15 7 15 15 0 9 10 15 26 15 14 0 33 7
41 16 16 15 62 12 73 -5z m-5464 -5 c8 -8 14 -29 14 -46 0 -18 6 -33 15 -36 9
-4 15 -19 15 -40 0 -24 5 -34 15 -34 11 0 15 -11 15 -35 0 -22 6 -38 15 -41 9
-4 15 -19 15 -40 0 -19 5 -34 10 -34 6 0 10 -18 10 -40 0 -29 4 -40 15 -40 10
0 15 -10 15 -30 0 -20 5 -30 15 -30 9 0 15 -9 15 -25 0 -22 -4 -25 -40 -25
-29 0 -40 4 -40 15 0 8 -7 15 -15 15 -11 0 -15 11 -15 40 0 28 -4 40 -14 40
-8 0 -16 5 -18 11 -4 12 -76 19 -125 11 -27 -4 -33 -9 -33 -28 0 -15 -6 -24
-15 -24 -11 0 -15 -11 -15 -40 l0 -40 -50 0 c-47 0 -63 11 -40 25 6 3 10 22
10 41 0 24 5 34 15 34 11 0 15 11 15 40 0 29 4 40 15 40 10 0 15 10 15 34 0
19 5 38 10 41 6 3 10 22 10 41 0 24 5 34 15 34 11 0 15 11 15 40 0 29 4 40 15
40 10 0 15 11 15 35 0 29 4 36 25 41 14 3 25 10 25 15 0 14 20 11 36 -5z
m1204 -1 c0 -8 7 -15 15 -15 10 0 15 -11 15 -35 0 -19 5 -35 10 -35 6 0 10
-18 10 -40 0 -29 4 -40 15 -40 11 0 15 -11 15 -35 0 -22 6 -38 15 -41 9 -4 15
-19 15 -40 0 -19 5 -34 10 -34 6 0 10 -16 10 -35 0 -22 6 -38 15 -41 9 -4 15
-19 15 -40 0 -22 6 -37 15 -40 28 -11 15 -24 -25 -24 -22 0 -40 5 -40 10 0 6
-7 10 -15 10 -11 0 -15 11 -15 40 0 29 -4 40 -15 40 -8 0 -15 6 -15 14 0 17
-46 24 -111 18 -33 -3 -49 -9 -49 -18 0 -8 -4 -14 -10 -14 -5 0 -10 -16 -10
-36 0 -46 -19 -64 -70 -64 -39 0 -42 2 -35 23 4 12 9 37 12 55 3 18 11 32 19
32 9 0 14 12 14 35 0 22 6 38 15 41 9 4 15 19 15 40 0 22 6 37 15 40 8 4 15
19 15 34 0 16 5 32 10 35 6 3 10 22 10 41 0 24 5 34 15 34 11 0 15 11 15 40 0
33 3 40 20 40 11 0 20 5 20 10 0 6 9 10 20 10 11 0 20 -7 20 -15z m475 5 c-3
-5 3 -10 14 -10 12 0 21 5 21 10 0 6 7 10 15 10 8 0 15 -4 15 -10 0 -5 7 -10
15 -10 8 0 15 5 15 10 0 6 11 10 25 10 14 0 25 -4 25 -10 0 -5 10 -10 21 -10
12 0 37 -16 55 -35 31 -31 34 -39 34 -96 0 -53 -3 -65 -26 -85 -14 -13 -32
-24 -40 -24 -7 0 -14 -9 -14 -20 0 -11 5 -20 10 -20 6 0 10 -9 10 -20 0 -11 7
-20 15 -20 10 0 15 -10 15 -30 0 -17 5 -30 13 -30 12 0 37 -44 37 -67 0 -7 7
-13 15 -13 8 0 15 -7 15 -15 0 -11 -12 -15 -50 -15 -46 0 -50 2 -56 27 -4 15
-18 38 -31 51 -12 12 -23 32 -23 42 0 11 -7 20 -15 20 -8 0 -15 9 -15 20 0 11
-4 20 -10 20 -5 0 -10 9 -10 20 0 17 -7 20 -45 20 l-45 0 0 -110 0 -110 -40 0
-40 0 0 245 c0 211 2 245 15 245 8 0 15 5 15 10 0 6 12 10 26 10 14 0 23 -4
19 -10z m605 0 c0 -5 11 -10 25 -10 14 0 25 5 25 10 0 6 7 10 15 10 8 0 15 -4
15 -10 0 -5 18 -10 40 -10 27 0 43 -5 46 -15 4 -8 15 -15 25 -15 10 0 19 -7
19 -15 0 -8 6 -15 14 -15 8 0 17 -11 20 -25 4 -14 11 -25 16 -25 6 0 10 -18
10 -40 0 -22 5 -40 10 -40 6 0 10 -25 10 -55 0 -30 -4 -55 -10 -55 -5 0 -10
-18 -10 -39 0 -25 -5 -41 -15 -45 -8 -3 -15 -12 -15 -21 0 -8 -6 -15 -13 -15
-7 0 -19 -9 -27 -20 -8 -11 -20 -20 -27 -20 -7 0 -13 -6 -13 -14 0 -15 -87
-24 -177 -18 -42 3 -52 7 -57 25 -3 12 -6 118 -6 235 0 188 2 214 18 231 18
20 62 28 62 11z m750 1 c0 -5 12 -12 26 -15 29 -8 54 -29 54 -45 0 -6 7 -11
15 -11 10 0 15 -10 15 -30 0 -20 -5 -30 -15 -30 -8 0 -15 -4 -15 -10 0 -5 -11
-10 -25 -10 -20 0 -25 5 -25 23 0 19 -8 26 -41 36 -46 14 -99 6 -99 -14 0 -7
-3 -20 -6 -28 -8 -22 37 -63 79 -71 20 -4 37 -11 37 -16 0 -6 12 -10 26 -10
31 0 84 -50 84 -79 0 -12 6 -21 15 -21 8 0 15 -7 15 -16 0 -8 -7 -22 -15 -30
-8 -9 -15 -26 -15 -40 0 -15 -6 -24 -15 -24 -8 0 -15 -7 -15 -15 0 -8 -4 -15
-10 -15 -5 0 -10 -6 -10 -14 0 -10 -19 -16 -64 -21 -65 -7 -126 0 -126 15 0 5
-12 11 -27 14 -34 8 -53 45 -53 103 0 38 3 43 23 43 24 0 43 -18 66 -62 10
-19 25 -30 48 -34 45 -9 103 3 103 21 0 8 7 15 15 15 9 0 15 9 15 25 0 16 -6
25 -15 25 -8 0 -15 7 -15 15 0 9 -10 15 -26 15 -14 0 -32 7 -40 15 -9 8 -28
15 -44 15 -16 0 -30 7 -34 15 -3 8 -11 15 -19 15 -7 0 -23 9 -35 20 -19 18
-22 32 -22 90 0 56 3 70 15 70 8 0 15 7 15 15 0 8 7 15 15 15 8 0 15 7 15 15
0 11 12 15 50 15 28 0 50 5 50 10 0 6 7 10 15 10 8 0 15 -4 15 -9z m1810 -1
c0 -5 11 -10 25 -10 16 0 25 -6 25 -15 0 -8 7 -15 15 -15 8 0 15 -7 15 -15 0
-8 5 -15 10 -15 6 0 10 -6 10 -14 0 -8 6 -21 14 -28 14 -15 22 -108 18 -220
-2 -44 -6 -58 -17 -58 -9 0 -15 -9 -15 -25 0 -14 -4 -25 -10 -25 -5 0 -10 -7
-10 -15 0 -8 -7 -15 -15 -15 -8 0 -15 -6 -15 -14 0 -18 -73 -29 -139 -20 -33
4 -51 11 -51 20 0 8 -7 14 -15 14 -8 0 -15 7 -15 15 0 8 -4 15 -10 15 -5 0
-10 9 -10 19 0 10 -7 21 -15 25 -11 4 -15 21 -15 61 0 30 -4 55 -10 55 -5 0
-10 9 -10 20 0 11 5 20 10 20 6 0 10 27 10 60 0 47 3 60 15 60 9 0 15 9 15 25
0 14 5 25 10 25 6 0 10 7 10 15 0 8 7 15 15 15 8 0 15 7 15 15 0 10 10 15 30
15 17 0 30 5 30 10 0 6 18 10 40 10 22 0 40 -4 40 -10z m1134 -2 c5 -10 7 -10
12 0 7 14 34 16 34 2 0 -15 57 -12 64 3 5 10 7 10 12 0 3 -7 12 -13 20 -13 9
0 14 -12 14 -36 l0 -35 -80 4 c-44 3 -80 1 -80 -4 0 -5 -7 -9 -15 -9 -11 0
-15 -11 -15 -41 l0 -41 35 6 c50 10 125 -3 125 -20 0 -8 7 -14 15 -14 8 0 15
-7 15 -15 0 -8 7 -15 15 -15 9 0 15 -9 15 -25 0 -14 5 -25 10 -25 6 0 10 -18
10 -39 0 -22 -4 -43 -10 -46 -5 -3 -10 -19 -10 -35 0 -15 -7 -30 -15 -34 -8
-3 -15 -12 -15 -20 0 -7 -11 -17 -25 -20 -14 -4 -25 -11 -25 -16 0 -6 -31 -10
-70 -10 -38 0 -70 4 -70 9 0 5 -11 12 -25 15 -14 4 -25 13 -25 20 0 8 -7 16
-15 20 -20 7 -21 76 -1 76 8 0 16 5 18 12 6 17 48 -28 48 -52 0 -23 51 -36
105 -26 31 6 35 11 35 36 0 17 5 30 10 30 6 0 10 11 10 25 0 14 -4 25 -10 25
-5 0 -10 13 -10 30 0 25 -4 30 -35 36 -47 9 -105 -3 -105 -21 0 -11 -12 -15
-41 -15 l-41 0 4 92 c2 61 7 93 16 96 6 2 12 19 12 38 0 19 6 41 13 49 15 18
63 19 71 3z m-5520 -75 c4 -38 10 -99 14 -137 9 -91 32 -103 32 -17 0 48 3 61
15 61 10 0 15 10 15 34 0 38 17 50 56 40 19 -5 24 -13 24 -40 0 -19 4 -34 10
-34 5 0 10 -26 12 -57 2 -34 8 -58 16 -61 9 -3 12 14 12 62 0 50 4 68 15 72
11 5 15 23 15 75 l0 69 40 0 40 0 0 -71 c0 -49 -4 -75 -15 -85 -12 -12 -15
-42 -15 -136 0 -66 -5 -138 -12 -159 -11 -37 -13 -39 -53 -39 -37 0 -42 3 -53
33 -7 18 -12 49 -12 69 0 20 -7 41 -15 48 -9 7 -15 29 -15 51 0 22 -4 39 -10
39 -12 0 -19 -32 -37 -169 -7 -57 -22 -71 -72 -71 -37 0 -41 3 -41 24 0 13 -7
26 -15 30 -12 4 -15 29 -15 136 0 104 -3 135 -15 146 -10 11 -15 36 -15 85 l0
69 44 0 44 0 6 -67z"/>
<path d="M2047 1743 c-4 -3 -7 -20 -7 -38 0 -17 -5 -36 -11 -42 -7 -7 -9 -22
-4 -40 4 -15 10 -22 12 -15 3 7 22 12 44 12 35 0 39 3 39 25 0 14 -4 25 -10
25 -5 0 -10 18 -10 40 0 35 -3 40 -23 40 -13 0 -27 -3 -30 -7z"/>
<path d="M3260 1720 c0 -29 -4 -40 -15 -40 -10 0 -15 -10 -15 -30 0 -30 1 -30
55 -30 48 0 55 2 55 20 0 11 -7 20 -15 20 -11 0 -15 11 -15 40 0 29 -4 40 -15
40 -8 0 -15 5 -15 10 0 6 -4 10 -10 10 -5 0 -10 -18 -10 -40z"/>
<path d="M3790 1765 l0 -55 70 0 c40 0 70 4 70 10 0 6 7 10 15 10 11 0 15 12
15 45 l0 45 -85 0 -85 0 0 -55z"/>
<path d="M4405 1820 c-3 -6 -7 -82 -8 -170 l-2 -160 63 0 c48 0 62 3 62 15 0
8 5 15 10 15 27 0 48 40 51 97 6 109 0 163 -16 163 -8 0 -15 6 -15 14 0 24
-132 47 -145 26z"/>
<path d="M6868 1817 c-21 -8 -28 -18 -28 -39 0 -18 -5 -28 -15 -28 -20 0 -22
-172 -2 -192 8 -7 17 -25 20 -39 5 -19 15 -28 34 -32 40 -7 93 3 93 19 0 8 6
14 14 14 10 0 15 24 19 94 6 114 0 176 -19 176 -8 0 -14 6 -14 14 0 27 -52 33
-102 13z"/>
</g>
</svg>
