<?xml version="1.0" standalone="no"?>
<!DOCTYPE svg PUBLIC "-//W3C//DTD SVG 20010904//EN"
 "http://www.w3.org/TR/2001/REC-SVG-20010904/DTD/svg10.dtd">
<svg version="1.0" xmlns="http://www.w3.org/2000/svg"
 width="1170.000000pt" height="499.000000pt" viewBox="0 0 1170.000000 499.000000"
 preserveAspectRatio="xMidYMid meet">

<g transform="translate(0.000000,499.000000) scale(0.100000,-0.100000)"
fill="#000000" stroke="none">
<path d="M0 2495 l0 -2495 578 2 577 3 3 1038 2 1037 375 0 375 0 2 -1037 3
-1038 1248 -3 c896 -1 1247 1 1247 9 0 6 -64 101 -142 212 -78 111 -257 366
-398 567 -333 473 -657 935 -833 1183 -77 109 -140 205 -141 213 -1 10 38 31
114 63 245 102 397 195 540 329 253 236 380 556 380 954 0 389 -105 686 -330
931 -216 236 -574 414 -965 481 -226 39 -458 46 -1567 46 l-1068 0 0 -2495z
m1129 1743 c49 -51 132 -138 185 -193 l95 -100 251 128 c137 70 250 123 250
117 0 -6 -50 -109 -110 -230 -105 -209 -120 -249 -101 -278 4 -7 86 -92 181
-188 96 -95 172 -176 169 -178 -4 -4 -263 34 -435 65 -63 11 -75 11 -96 -3
-16 -11 -63 -94 -137 -244 -63 -128 -115 -223 -120 -218 -5 5 -25 115 -46 244
-20 129 -43 245 -50 257 -20 30 -49 37 -299 77 -120 20 -222 38 -225 42 -8 7
1 13 233 131 109 56 208 110 219 121 19 20 19 21 -17 248 -21 126 -40 244 -43
262 -3 17 -2 32 1 32 4 0 46 -42 95 -92z"/>
<path d="M4820 4790 c0 -20 7 -20 3400 -20 3393 0 3400 0 3400 20 0 20 -7 20
-3400 20 -3393 0 -3400 0 -3400 -20z"/>
<path d="M7506 4322 c-4 -7 -294 -696 -545 -1297 l-67 -160 150 -3 c83 -1 155
-1 161 2 6 2 39 76 75 165 l63 161 306 0 306 0 65 -165 65 -165 164 0 c151 0
163 1 156 18 -3 9 -142 340 -307 735 l-301 717 -143 0 c-78 0 -145 -4 -148 -8z
m240 -614 c49 -122 91 -226 92 -230 2 -4 -82 -8 -187 -8 -105 0 -191 2 -191 5
0 5 122 311 161 403 12 28 25 52 29 52 3 0 47 -100 96 -222z"/>
<path d="M10617 4323 c-3 -5 -141 -332 -307 -728 -166 -396 -304 -723 -307
-728 -2 -4 69 -6 158 -5 l163 3 65 163 65 162 305 -2 305 -3 66 -162 65 -163
164 0 c151 0 163 1 156 18 -3 9 -142 340 -307 735 l-301 717 -143 0 c-78 0
-145 -3 -147 -7z m238 -614 c50 -122 92 -225 93 -230 2 -5 -79 -9 -187 -9
-105 0 -191 2 -191 5 0 3 36 95 79 203 44 108 84 209 90 225 6 15 14 27 19 27
4 0 48 -99 97 -221z"/>
<path d="M4900 4175 l0 -145 215 0 215 0 0 -585 0 -585 155 0 155 0 2 583 3
582 218 3 217 2 0 145 0 145 -590 0 -590 0 0 -145z"/>
<path d="M6340 3590 l0 -730 155 0 155 0 0 730 0 730 -155 0 -155 0 0 -730z"/>
<path d="M8640 3591 l0 -731 155 0 155 0 0 235 0 235 124 0 123 0 154 -235
154 -235 182 0 183 0 -28 43 c-15 23 -91 138 -170 254 -78 117 -142 216 -142
221 0 4 24 19 53 34 188 92 281 310 232 543 -37 173 -147 287 -331 341 -50 14
-117 18 -451 21 l-393 5 0 -731z m764 413 c66 -34 97 -82 103 -157 9 -109 -24
-173 -111 -213 -48 -22 -62 -24 -248 -24 l-198 0 0 211 0 210 208 -3 c186 -3
211 -5 246 -24z"/>
<path d="M8170 2382 c-91 -12 -160 -75 -179 -161 -34 -159 92 -292 249 -261
25 5 48 9 52 10 3 0 21 12 38 26 l31 27 -26 27 -27 28 -35 -24 c-90 -61 -197
2 -197 116 0 113 107 177 196 116 l35 -23 26 32 c29 36 27 40 -28 67 -33 17
-96 26 -135 20z"/>
<path d="M8590 2380 c-203 -40 -239 -317 -53 -405 47 -22 148 -23 190 -2 29
15 33 15 56 -3 24 -19 24 -19 46 4 25 27 26 34 6 56 -14 15 -14 21 0 53 30 73
13 180 -38 235 -46 50 -135 77 -207 62z m101 -85 c42 -22 69 -71 69 -126 0
-25 -3 -49 -7 -53 -4 -3 -21 7 -38 24 l-31 30 -29 -30 -29 -30 34 -34 33 -35
-27 -7 c-129 -32 -218 145 -119 238 45 42 93 49 144 23z"/>
<path d="M9675 2379 c-17 -4 -44 -22 -60 -39 -24 -25 -29 -39 -29 -80 0 -67
26 -93 130 -128 65 -22 80 -31 82 -50 2 -13 -2 -30 -8 -38 -19 -22 -89 -17
-134 10 l-39 24 -24 -28 c-13 -15 -23 -30 -23 -33 0 -12 69 -47 113 -57 68
-15 124 -3 166 35 31 29 35 38 35 84 0 42 -5 56 -28 80 -16 16 -39 32 -53 35
-13 4 -48 16 -78 27 -44 16 -55 25 -55 43 0 48 56 61 123 27 l37 -19 22 31 21
30 -21 18 c-12 9 -45 22 -73 28 -57 12 -63 12 -104 0z"/>
<path d="M10930 2380 c-203 -40 -239 -317 -53 -405 22 -11 60 -17 98 -17 129
0 215 84 215 212 0 57 -20 113 -53 148 -46 50 -135 77 -207 62z m101 -85 c93
-48 91 -202 -2 -251 -131 -67 -251 126 -142 228 45 42 93 49 144 23z"/>
<path d="M4920 2340 l0 -40 60 0 60 0 0 -170 0 -170 45 0 45 0 0 170 0 170 60
0 60 0 0 40 0 40 -165 0 -165 0 0 -40z"/>
<path d="M5427 2373 c-3 -5 -28 -62 -55 -128 -28 -66 -66 -157 -86 -202 l-35
-83 43 0 c43 0 45 1 63 45 l18 45 92 0 92 0 20 -45 c19 -43 22 -45 60 -45 23
0 41 3 41 8 0 4 -39 98 -86 210 l-86 202 -38 0 c-22 0 -41 -3 -43 -7z m72
-174 c13 -33 21 -62 18 -65 -3 -3 -27 -4 -55 -2 l-50 3 25 63 c14 34 28 62 32
62 3 0 17 -27 30 -61z"/>
<path d="M5750 2170 l0 -210 145 0 145 0 0 40 0 40 -100 0 -100 0 0 170 0 170
-45 0 -45 0 0 -210z"/>
<path d="M6120 2170 l0 -210 155 0 155 0 0 40 0 40 -110 0 -110 0 0 45 0 45
95 0 95 0 0 40 0 40 -95 0 -95 0 0 45 0 45 110 0 110 0 0 40 0 40 -155 0 -155
0 0 -210z"/>
<path d="M6520 2170 l0 -210 45 0 45 0 0 136 0 137 103 -136 c99 -133 103
-137 140 -137 l37 0 0 210 0 210 -45 0 -45 0 0 -131 0 -132 -101 132 c-98 129
-101 131 -140 131 l-39 0 0 -210z"/>
<path d="M6970 2340 l0 -40 60 0 60 0 0 -170 0 -170 45 0 45 0 0 170 0 170 60
0 60 0 0 40 0 40 -165 0 -165 0 0 -40z"/>
<path d="M7707 2373 c-3 -5 -28 -62 -55 -128 -28 -66 -66 -157 -86 -202 l-35
-83 43 0 c43 0 45 1 63 45 l18 46 94 -3 94 -3 16 -42 c15 -41 17 -43 58 -43
24 0 43 3 43 8 0 4 -39 98 -86 210 l-86 202 -38 0 c-22 0 -41 -3 -43 -7z m73
-178 c12 -31 20 -58 17 -61 -2 -3 -27 -4 -55 -2 l-50 3 25 62 c14 35 29 61 33
58 4 -3 18 -30 30 -60z"/>
<path d="M8930 2255 c0 -159 11 -213 53 -253 56 -55 182 -62 246 -15 56 43 66
75 70 241 l3 152 -46 0 -46 0 0 -140 c0 -149 -7 -181 -47 -199 -51 -23 -113
-6 -132 36 -6 14 -11 83 -11 163 l0 140 -45 0 -45 0 0 -125z"/>
<path d="M9400 2170 l0 -210 45 0 45 0 0 210 0 210 -45 0 -45 0 0 -210z"/>
<path d="M9990 2170 l0 -210 45 0 45 0 0 210 0 210 -45 0 -45 0 0 -210z"/>
<path d="M10160 2340 l0 -40 60 0 60 0 0 -170 0 -170 45 0 45 0 0 170 0 170
60 0 60 0 0 40 0 40 -165 0 -165 0 0 -40z"/>
<path d="M10570 2170 l0 -210 45 0 45 0 0 210 0 210 -45 0 -45 0 0 -210z"/>
<path d="M11270 2170 l0 -210 45 0 45 0 0 133 1 132 22 -26 c12 -14 58 -74
102 -132 77 -102 82 -106 118 -107 l37 0 0 210 0 210 -45 0 -45 0 0 -131 0
-132 -101 132 c-98 129 -101 131 -140 131 l-39 0 0 -210z"/>
<path d="M11022 1545 c-111 -25 -199 -91 -243 -183 -17 -37 -23 -66 -23 -132
-1 -76 2 -91 29 -138 45 -83 129 -132 288 -172 186 -47 237 -73 237 -121 0
-30 -34 -60 -78 -70 -85 -19 -248 27 -339 97 l-32 24 -76 -90 c-41 -50 -75
-95 -75 -100 0 -5 19 -22 43 -38 239 -164 594 -174 747 -20 73 73 106 207 77
309 -32 110 -118 173 -307 224 -176 48 -203 59 -224 88 -19 26 -19 30 -5 55
22 40 77 55 152 42 69 -13 149 -43 188 -71 15 -10 31 -19 36 -19 8 0 108 138
136 187 11 18 -97 80 -187 108 -100 32 -253 41 -344 20z"/>
<path d="M5312 1503 c-11 -27 -106 -257 -212 -513 -106 -256 -194 -468 -197
-473 -2 -4 62 -6 144 -5 l148 3 35 93 35 92 197 0 196 0 38 -95 37 -95 150 0
c115 0 148 3 144 13 -93 224 -393 945 -406 977 l-20 45 -134 3 -134 3 -21 -48z
m212 -443 l52 -135 -109 -3 c-60 -1 -111 -1 -114 1 -6 7 102 277 110 274 5 -1
32 -63 61 -137z"/>
<path d="M7822 1503 c-11 -27 -102 -246 -202 -488 -100 -242 -188 -455 -196
-473 l-13 -33 147 3 147 3 35 93 35 92 198 0 197 0 11 -27 c5 -16 21 -58 35
-95 l26 -68 149 0 c82 0 149 1 149 3 0 1 -97 234 -214 517 l-215 515 -134 3
-134 3 -21 -48z m217 -453 l48 -125 -110 -3 c-60 -1 -111 -1 -114 1 -3 4 17
58 97 262 14 36 8 46 79 -135z"/>
<path d="M5965 1438 c19 -57 93 -285 165 -508 72 -223 133 -411 135 -418 4 -9
34 -12 126 -10 l121 3 64 185 c119 346 137 391 145 383 4 -4 44 -116 89 -248
45 -132 88 -259 97 -283 l16 -43 120 3 120 3 53 160 c29 88 103 315 165 505
61 190 114 351 117 358 3 9 -29 12 -142 12 -80 0 -146 -2 -146 -5 0 -11 -170
-578 -174 -582 -3 -3 -48 128 -101 291 l-96 297 -120 -3 -120 -3 -79 -240
c-44 -132 -87 -264 -96 -293 -10 -29 -20 -49 -24 -45 -4 4 -45 137 -91 296
l-83 287 -147 0 -148 0 34 -102z"/>
<path d="M8640 1025 l0 -515 140 0 140 0 0 155 0 155 64 0 63 0 103 -155 103
-155 159 0 c126 0 157 3 151 13 -4 7 -58 87 -119 177 l-111 165 49 30 c58 35
99 83 130 152 33 73 32 218 -3 293 -33 71 -79 115 -154 151 -87 41 -160 49
-452 49 l-263 0 0 -515z m557 251 c58 -30 80 -105 47 -167 -26 -51 -81 -69
-211 -69 l-113 0 0 131 0 132 123 -5 c87 -3 131 -10 154 -22z"/>
<path d="M9680 1025 l0 -517 258 5 c275 5 318 11 429 63 75 36 172 130 212
204 62 116 74 283 31 422 -47 152 -171 264 -346 313 -46 13 -118 18 -321 22
l-263 5 0 -517z m501 249 c212 -63 234 -387 32 -485 -36 -17 -70 -23 -150 -27
l-103 -5 0 267 0 266 83 0 c47 0 107 -7 138 -16z"/>
<path d="M4820 90 c0 -20 7 -20 3400 -20 3393 0 3400 0 3400 20 0 20 -7 20
-3400 20 -3393 0 -3400 0 -3400 -20z"/>
</g>
</svg>
